<mxfile host="65bd71144e">
    <diagram id="v_faEbYUU1BO0BciKGaT" name="ページ1">
        <mxGraphModel dx="649" dy="1779" grid="1" gridSize="10" guides="1" tooltips="1" connect="1" arrows="1" fold="1" page="1" pageScale="1" pageWidth="827" pageHeight="1169" math="0" shadow="0">
            <root>
                <mxCell id="0"/>
                <mxCell id="1" parent="0"/>
                <mxCell id="72" value="" style="shape=image;verticalLabelPosition=bottom;verticalAlign=top;imageAspect=0;aspect=fixed;image=data:image/png,iVBORw0KGgoAAAANSUhEUgAAAgAAAAIACAYAAAD0eNT6AAAAGXRFWHRTb2Z0d2FyZQBBZG9iZSBJbWFnZVJlYWR5ccllPAAAA3ZpVFh0WE1MOmNvbS5hZG9iZS54bXAAAAAAADw/eHBhY2tldCBiZWdpbj0i77u/IiBpZD0iVzVNME1wQ2VoaUh6cmVTek5UY3prYzlkIj8+IDx4OnhtcG1ldGEgeG1sbnM6eD0iYWRvYmU6bnM6bWV0YS8iIHg6eG1wdGs9IkFkb2JlIFhNUCBDb3JlIDUuNi1jMTExIDc5LjE1ODMyNSwgMjAxNS8wOS8xMC0wMToxMDoyMCAgICAgICAgIj4gPHJkZjpSREYgeG1sbnM6cmRmPSJodHRwOi8vd3d3LnczLm9yZy8xOTk5LzAyLzIyLXJkZi1zeW50YXgtbnMjIj4gPHJkZjpEZXNjcmlwdGlvbiByZGY6YWJvdXQ9IiIgeG1sbnM6eG1wTU09Imh0dHA6Ly9ucy5hZG9iZS5jb20veGFwLzEuMC9tbS8iIHhtbG5zOnN0UmVmPSJodHRwOi8vbnMuYWRvYmUuY29tL3hhcC8xLjAvc1R5cGUvUmVzb3VyY2VSZWYjIiB4bWxuczp4bXA9Imh0dHA6Ly9ucy5hZG9iZS5jb20veGFwLzEuMC8iIHhtcE1NOk9yaWdpbmFsRG9jdW1lbnRJRD0ieG1wLmRpZDo5MTI5ZGVmOC04YmM4LTE1NGItYWE3OC02Zjk2YWY1YmQyMjIiIHhtcE1NOkRvY3VtZW50SUQ9InhtcC5kaWQ6OUFENjlFRjVCRjVFMTFFNTgyMURFQkVCOEI0ODk0MjciIHhtcE1NOkluc3RhbmNlSUQ9InhtcC5paWQ6OUFENjlFRjRCRjVFMTFFNTgyMURFQkVCOEI0ODk0MjciIHhtcDpDcmVhdG9yVG9vbD0iQWRvYmUgUGhvdG9zaG9wIENDIDIwMTUgKFdpbmRvd3MpIj4gPHhtcE1NOkRlcml2ZWRGcm9tIHN0UmVmOmluc3RhbmNlSUQ9InhtcC5paWQ6OTEyOWRlZjgtOGJjOC0xNTRiLWFhNzgtNmY5NmFmNWJkMjIyIiBzdFJlZjpkb2N1bWVudElEPSJ4bXAuZGlkOjkxMjlkZWY4LThiYzgtMTU0Yi1hYTc4LTZmOTZhZjViZDIyMiIvPiA8L3JkZjpEZXNjcmlwdGlvbj4gPC9yZGY6UkRGPiA8L3g6eG1wbWV0YT4gPD94cGFja2V0IGVuZD0iciI/PhE6qRoAAAkqSURBVHja7N3BTQMxEIbRHbQFUBKlJBVw9JbgLhZKoAJIB3RkzDESt1has/OeFIUTQqOQ/xM5EK21BQDI5ckJAEAAAAACAAAQAACAAAAABAAAIAAAAAEAAAgAAEAAAAACAAAQAACAAAAABAAAIAAAAAEAAAgAAEAAAIAAAAAEAAAgAAAAAQAACAAAQAAAAAIAABAAAIAAAAAEAAAgAAAAAQAACAAAQAAAAAIAABAAAIAAAAABAAAIAABAAAAAAgAAEAAAgAAAAAQAACAAAAABAAAIAABAAAAAAgAAEAAAgAAAAAQAACAAAAABAAACAAAQAACAAAAABAAAIAAAAAEAAAgAAEAAAAACAAAQAACAAAAABAAAIAAAAAEAAAgAAEAAAAACAAAEAAAgAAAAAQAACAAAQAAAAAIAABAAAIAAAAAEAAAgAAAAAQAACAAAQAAAAAIAABAAAIAAAAAEAAAIACcAAAEAAAgAAEAAAAACAAAQAACAAAAABAAAIAAAAAEAAAgAAEAAAAACAAAQAACAAAAABAAAIAAAAAEAAAIAABAAAIAAAAAEAAAgAAAAAQAACAAAQAAAAAIAABAAAIAAAAAEAAAgAAAAAQAACAAAQAAAAAIAAAQAACAAAAABAAAIAABAAAAAAgAAEAAAgAAAAAQAACAAAAABAAAIAABAAAAAAgAAEAAAgAAAAAQAAAgAAEAAAAACAAAQAACAAAAABAAAIAAAAAEAAAgAAOAIqxMwUkQ8/D1qrZ/96cU14V4pJVwBfwEAAAQAACAAAAABAAAIAAAQAACAAAAABAAAIAAAAAEAAAgAAEAAAAACAAAQAACAAAAABAAAIAAAAAEAAAgAAEAAAAACAAAQAACAAAAAAQAACAAAQAAAAAIAABAAAIAAAAAEAAAgAAAAAQAACAAAQAAAAAIAABAAAIAAAAAEAAAgAAAAAQAAAgAAEAAAgAAAAAQAACAAAAABAAAIAABAAAAAx1qdgAm998fNGf691/54dgaYU7TWXIFxL6gIR2Cpte796eISY5VS/IIxjI8AAOMPAgDA+IMAADD+IAAAjD8IAADjDwIAMP6AAACMPyAAAOMPCADA+AMCADD+gAAAjD8gAADjDwgAwPgDAgAw/oAAAIw/IAAA4w8IAMD4AwIAMP4gAADjb/xBAADGHxAAgPEHBABg/AEBABh/QAAAxh8QAIDxBwQAYPwBAQAYf0AAAMYfEACA8QcEAGD8AQEAGH9AAADGHxAAYPwBBAAY/7S+nQAEABj/XK798eEMIADA+Cca/23b3pwBBAAYf+MPCAAw/sYfBABg/I0/CADA+Bt/EACA8Tf+IAAA42/8QQAAxt/4gwAAjL/xBwEAGH/jDwIAMP7GHwQAYPyNPwgAwPgbfxAAYPwx/iAAwPgbf0AAgPE3/oAAAONv/AEBAMbf+AMCAIy/8QcEABh/4w8CADD+xh8EAGD8jT8IAMD4G38QAIDxN/4gAADjb/xBAADG3/iDAADj7xLGHwQAGH/jb/xBAIDxN/6AAADjb/wBAQDG3/gDAgCMv/EHBAAYf+MPCAAw/sYfEABg/I0/IADA+Bt/QACA8Tf+IAAA42/8QQAAxt/4gwAAjL/xBwEAxh/jDwIAjL/xBwQAGH/jDwgAMP7GHxAAYPyNPyAAwPgbf0AAgPE3/oAAAONv/AEBAMbf+AMCAIy/8QcEABh/4w8IADD+xh8QAGD8jT8gADD+xt/4gwAA44/xBwEAxt/4AwIAjL/xBwQAGH/jDwgAMP7GHxAAYPyNPyAAwPgbf0AAgPE3/oAAAONv/AEBAMbf+AMCAIy/8QcEABh/4w8IADD+xh8QABh/jD8gADD+xh9AAGD8jT+AAMD4G38AAYDxN/6AAADjb/wBAQDG3/gDAgCMv/EHBAAYf+MPCAAw/sYfEABg/I0/IADA+Bt/QACA8Tf+gADA+Bt/4w8IAIw/xh8QABh/4w8gADD+xh9AAGD8jT+AAMD4G38AAYDxN/4AAgDjb/wBBADG3/gDAgCMv/EHBAAYf+MPCAAw/sYfEABg/I0/IADA+Bt/QABg/DH+gAAA42/8AQHAefWhu/YnY2f8AQGACDD+AAIAEWD8AQQAIsD4AwgARIDxBxAAiADjDyAAEAHGH0AAIAKMP4AAQAQYfwABgAgw/gACABFg/AEEACLA+AMCAESA8QcEAIgA4w8IABABxh8QAJAuAow/cDqrEzBbBNRaf7+8GH8G+nICuBetNVdg3AsqYsj36RGwTxABxp+peL9mJB8BMO1fApZjPw4w/oAAgGQRYPwBAQDJIsD4AwIAkkWA8QcEACSLAOMPCABIFgHGHxAAkCwCjD8gACBZBBh/QABAsggw/oAAgGQRYPwBAeAEJIsA4w8gAEgWAcYfQACQLAKMP4AAIFkEGH8AAUCyCDD+AH8I/1+aoS+oiCl+jlrr3p9uxp8z8X6NAAAAHuIjAAAQAACAAAAABAAAIAAAAAEAAAgAAEAAAAACAAAQAACAAAAABAAAIAAAAAEAAAgAAEAAAAACAAAQAAAgAAAAAQAACAAAQAAAAAIAABAAAIAAAAAEAAAgAAAAAQAACAAAQAAAAAIAABAAAIAAAAAEAAAgAABAAAAAAgAAEAAAgAAAAAQAACAAAAABAAAIAABAAAAAAgAAEAAAgAAAAAQAACAAAAABAAAIAABAAACAAAAABAAAIAAAAAEAAAgAAEAAAAACAAAQAACAAAAABAAAIAAAAAEAAAgAAEAAAAACAAAQAACAAAAAAQAACAAAQAAAAAIAABAAAIAAAAAEAAAgAAAAAQAACAAAQAAAAAIAABAAAIAAAAAEAAAgAAAAAQAACAAAEAAAgAAAAAQAACAAAAABAAAIAABAAAAAAgAAEAAAgAAAAAQAACAAAAABAAAIAABAAAAAAgAAEAAAIAAAAAEAAAgAAEAAAAACAAAQAACAAAAABAAAIAAAAAEAAAgAAEAAAAACAAAQAACAAAAABAAAIAAAQAAAAAIAABAAAIAAAAAEAAAgAAAAAQAACAAAQAAAAAIAABAAAIAAAAAEAAAgAAAAAQAACAAAQAAAgAAAAAQAACAAAAABAAAIAABAAAAAAgAAEAAAgAAAAA7xI8AAcwcDSVMcxj8AAAAASUVORK5CYII=;fontSize=27;" vertex="1" parent="1">
                    <mxGeometry x="130" y="-57" width="327" height="327" as="geometry"/>
                </mxCell>
                <mxCell id="49" value="" style="ellipse;shape=doubleEllipse;whiteSpace=wrap;html=1;fillColor=#1ba1e2;fontColor=#ffffff;strokeColor=#006EAF;" parent="1" vertex="1">
                    <mxGeometry x="950" y="500" width="145" height="80" as="geometry"/>
                </mxCell>
                <mxCell id="41" value="" style="ellipse;shape=doubleEllipse;whiteSpace=wrap;html=1;fillColor=#0050ef;fontColor=#ffffff;strokeColor=#001DBC;" parent="1" vertex="1">
                    <mxGeometry x="722.5" y="240" width="240" height="190" as="geometry"/>
                </mxCell>
                <mxCell id="34" value="" style="ellipse;shape=doubleEllipse;whiteSpace=wrap;html=1;fillColor=#1ba1e2;fontColor=#ffffff;strokeColor=#006EAF;" parent="1" vertex="1">
                    <mxGeometry x="495" y="250" width="145" height="80" as="geometry"/>
                </mxCell>
                <mxCell id="33" value="" style="ellipse;shape=doubleEllipse;whiteSpace=wrap;html=1;fillColor=#e51400;fontColor=#ffffff;strokeColor=#B20000;" parent="1" vertex="1">
                    <mxGeometry x="85" y="250" width="240" height="190" as="geometry"/>
                </mxCell>
                <mxCell id="32" value="" style="ellipse;shape=doubleEllipse;whiteSpace=wrap;html=1;fillColor=#e3c800;fontColor=#000000;strokeColor=#B09500;" parent="1" vertex="1">
                    <mxGeometry x="600" y="635" width="162.5" height="100" as="geometry"/>
                </mxCell>
                <mxCell id="30" value="" style="ellipse;shape=doubleEllipse;whiteSpace=wrap;html=1;fillColor=#008a00;fontColor=#ffffff;strokeColor=#005700;" parent="1" vertex="1">
                    <mxGeometry x="450" y="440" width="180" height="83" as="geometry"/>
                </mxCell>
                <mxCell id="4" value="" style="shape=image;verticalLabelPosition=bottom;verticalAlign=top;imageAspect=0;aspect=fixed;image=data:image/png,iVBORw0KGgoAAAANSUhEUgAAAgAAAAIACAYAAAD0eNT6AAAACXBIWXMAAA/fAAAP3wHyuVZaAAAKvUlEQVR4nO3ZwW0bORiAUWqhQtxJvJ2kCx4tH9mFO4nTiTuZhYGctDkk2VnM2N97BdDET3n0iXPZtm0AAC1/OW8A6BEAABAkAAAgSAAAQJAAAIAgAQAAQQIAAIIEAAAECQAACBIAABAkAAAgSAAAQJAAAIAgAQAAQQIAAIIEAAAECQAACBIAABAkAAAgSAAAQJAAAIAgAQAAQQIAAIIEAAAECQAACBIAABAkAAAgSAAAQJAAAIAgAQAAQQIAAIIEAAAECQAACBIAABAkAAAgSAAAQJAAAIAgAQAAQQIAAIIEAAAECQAACBIAABAkAAAgSAAAQJAAAIAgAQAAQQIAAIIEAAAECQAACBIAABAkAAAgSAAAQJAAAIAgAQAAQQIAAIIEAAAECQAACBIAABAkAAAgSAAAQJAAAIAgAQAAQQIAAIIEAAAECQAACBIAABAkAAAgSAAAQJAAAIAgAQAAQQIAAIIEAAAECQAACBIAABAkAAAgSAAAQJAAAIAgAQAAQQIAAIIEAAAECQAACBIAABAkAAAgSAAAQJAAAIAgAQAAQQIAAIIEAAAECQAACBIAABAkAAAgSAAAQJAAAIAgAQAAQQIAAIIEAAAECQAACBIAABAkAAAgSAAAQNDVoXMma63HMcbjnluac972XG+ttet6Y4y3OefLXouttR7GGF/3Wu+Hlznn216LrbXe9/ew13rjY5zz65zzdec14Y8JAM7m/cv/aec97f0g33t/39+/YHdc7+F/2OP7F9duAfAjUL7suN74AOc8fswRTsErAAAIEgAAECQAACBIAABAkAAAgCABAABBAgAAggQAAAQJAAAIEgAAECQAACBIAABAkAAAgCABAABBAgAAggQAAAQJAAAIEgAAECQAACBIAABAkAAAgCABAABBAgAAggQAAAQJAAAIEgAAECQAACBIAABAkAAAgCABAABBAgAAgi7btjl3/mWt5YMBn8Sc8+IsuecGAACCBAAABAkAAAgSAAAQJAAAIEgAAECQAACAIAEAAEECAACCBAAABAkAAAgSAAAQJAAAIEgAAECQAACAIAEAAEECAACCBAAABAkAAAgSAAAQJAAAIEgAAECQAACAIAEAAEECAACCBAAABAkAAAgSAAAQJAAAIOiybZtzP5m11uMY4/HgXT2dbjDAn3o+eHKvc87Xg/fAnauBnNKjL2BgR2d4ngiAk/EKAACCBAAABAkAAAgSAAAQJAAAIEgAAECQAACAIAEAAEECAACCBAAABAkAAAgSAAAQJAAAIEgAAECQAACAIAEAAEECAACCrg6dz2rOeXG4/Fdrrc0Q+YzcAABAkBuAE5pz3sYYtyN35lcPfB5uw/gZNwAAECQAACBIAABAkAAAgCABAABBAgAAggQAAAQJAAAIEgAAECQAACBIAABAkAAAgCABAABBAgAAggQAAAQJAAAIEgAAEHR16PBr1lqbUZ3fnPNSnwH8CjcAABDkBuCE1lq3McZTfQ7APk5we/U857wdvAfuuAEAgCABAABBAgAAggQAAAQJAAAIEgAAECQAACBIAABAkAAAgCABAABBAgAAggQAAAQJAAAIEgAAECQAACBIAABAkAAAgCABAABBAgAAgq4O/ZTexhjfD97Yl5POBvh9Rz9P3g7++/yEADihOefLGOPlyJ2ttbazzgf4PXPORyPjnlcAABAkAAAgSAAAQJAAAIAgAQAAQQIAAIIEAAAECQAACBIAABAkAAAgSAAAQJAAAIAgAQAAQQIAAIIEAAAECQAACBIAABAkAAAg6OrQz2et9TDGeKjPAdjHWuvx4FG+zTnfDt4DdwTAOX0dYzzVhwDs5tvBo3weY9wO3gN3vAIAgCABAABBAgAAggQAAAQJAAAIEgAAECQAACBIAABAkAAAgCABAABBAgAAggQAAAQJAAAIEgAAECQAACBIAABAkAAAgCABAABBAgAAgq4O/ZRexhivB2/s20lnA/y+vw+e2dvBf5+fEAAnNOd8O/ofZq111vEAv2nOefQPCk7IKwAACBIAABAkAAAgSAAAQJAAAIAgAQAAQQIAAIIEAAAECQAACBIAABAkAAAgSAAAQJAAAIAgAQAAQQIAAIIEAAAECQAACBIAABB0dejns9b6Osb4Wp8DsI+11uvBo3yZc74cvAfuCIBzehhjfKkPAdjN0c+TowOEn/AKAACCBAAABAkAAAgSAAAQJAAAIEgAAECQAACAIAEAAEECAACCBAAABAkAAAgSAAAQJAAAIEgAAECQAACAIAEAAEECAACCBAAABAkAAAi6OvTzmXPexhi3Ize21tpOOh7gN805L2bGPTcAABDkBgB+kV9RwGfiBgAAggQAAAQJAAAIEgAAECQAACBIAABAkAAAgCABAABBAgAAggQAAAQJAAAIEgAAECQAACBIAABAkAAAgCABAABBAgAAgq4O/XzWWrcxxlN9DsA+1lrbwaN8nnPeDt4Dd9wAAECQGwA+rRP86gE4LTcAABAkAAAgSAAAQJAAAIAgAQAAQQIAAIIEAAAECQAACBIAABAkAAAgSAAAQJAAAIAgAQAAQQIAAIIEAAAECQAACBIAABB0dein9HqCTT2dYA/APp4PnuMZnmncuWzbZib8y1rLBwM+iTnnxVlyzysAAAgSAAAQJAAAIEgAAECQAACAIAEAAEECAACCBAAABAkAAAgSAAAQJAAAIEgAAECQAACAIAEAAEECAACCBAAABAkAAAgSAAAQJAAAIEgAAECQAACAIAEAAEECAACCBAAABAkAAAgSAAAQJAAAIEgAAECQAACAoMu2bc6d01hr3cYYT3vuZ8552XO9tdbe/zTf55yPey221npf69te6/3w95zzda/F1lrva33Za73xMc75ec5523lN+GNuAAAgSAAAQJAAAIAgAQAAQQIAAIIEAAAECQAACBIAABAkAAAgSAAAQJAAAIAgAQAAQQIAAIIEAAAECQAACBIAABAkAAAgSAAAQJAAAIAgAQAAQQIAAIIEAAAECQAACBIAABAkAAAgSAAAQJAAAIAgAQAAQQIAAIIEAAAECQAACLo6dE7m9QMcyPPO6739D+udfY8vH+Cs957hR/hsE3LZts15A0CMVwAAECQAACBIAABAkAAAgCABAABBAgAAggQAAAQJAAAIEgAAECQAACBIAABAkAAAgCABAABBAgAAggQAAAQJAAAIEgAAECQAACBIAABAkAAAgCABAABBAgAAggQAAAQJAAAIEgAAECQAACBIAABAkAAAgCABAABBAgAAggQAAAQJAAAIEgAAECQAACBIAABAkAAAgCABAABBAgAAggQAAAQJAAAIEgAAECQAACBIAABAkAAAgCABAABBAgAAggQAAAQJAAAIEgAAECQAACBIAABAkAAAgCABAABBAgAAggQAAAQJAAAIEgAAECQAACBIAABAkAAAgCABAABBAgAAggQAAAQJAAAIEgAAECQAACBIAABAkAAAgCABAABBAgAAggQAAAQJAAAIEgAAECQAACBIAABAkAAAgCABAABBAgAAggQAAAQJAAAIEgAAECQAACBIAABAkAAAgCABAABBAgAAggQAAAQJAAAIEgAAECQAACBIAABAkAAAgCABAABBAgAAggQAAAQJAAAIEgAAECQAACBIAABAkAAAgJoxxj+fJLQL3SHk7AAAAABJRU5ErkJggg==" parent="1" vertex="1">
                    <mxGeometry x="560" y="255" width="70" height="70" as="geometry"/>
                </mxCell>
                <mxCell id="5" value="" style="shape=image;verticalLabelPosition=bottom;verticalAlign=top;imageAspect=0;aspect=fixed;image=data:image/png,iVBORw0KGgoAAAANSUhEUgAAAgAAAAIACAYAAAD0eNT6AAAAGXRFWHRTb2Z0d2FyZQBBZG9iZSBJbWFnZVJlYWR5ccllPAAAA3ZpVFh0WE1MOmNvbS5hZG9iZS54bXAAAAAAADw/eHBhY2tldCBiZWdpbj0i77u/IiBpZD0iVzVNME1wQ2VoaUh6cmVTek5UY3prYzlkIj8+IDx4OnhtcG1ldGEgeG1sbnM6eD0iYWRvYmU6bnM6bWV0YS8iIHg6eG1wdGs9IkFkb2JlIFhNUCBDb3JlIDUuNi1jMTExIDc5LjE1ODMyNSwgMjAxNS8wOS8xMC0wMToxMDoyMCAgICAgICAgIj4gPHJkZjpSREYgeG1sbnM6cmRmPSJodHRwOi8vd3d3LnczLm9yZy8xOTk5LzAyLzIyLXJkZi1zeW50YXgtbnMjIj4gPHJkZjpEZXNjcmlwdGlvbiByZGY6YWJvdXQ9IiIgeG1sbnM6eG1wTU09Imh0dHA6Ly9ucy5hZG9iZS5jb20veGFwLzEuMC9tbS8iIHhtbG5zOnN0UmVmPSJodHRwOi8vbnMuYWRvYmUuY29tL3hhcC8xLjAvc1R5cGUvUmVzb3VyY2VSZWYjIiB4bWxuczp4bXA9Imh0dHA6Ly9ucy5hZG9iZS5jb20veGFwLzEuMC8iIHhtcE1NOk9yaWdpbmFsRG9jdW1lbnRJRD0ieG1wLmRpZDowMjE0NTc3Zi04MmQ2LTA4NGQtYTlmMS1kMDc0M2FiYjA1OGQiIHhtcE1NOkRvY3VtZW50SUQ9InhtcC5kaWQ6OTQ4RDJGMzRCRjVFMTFFNTg0MEVEQkU2REM3QTkxQUQiIHhtcE1NOkluc3RhbmNlSUQ9InhtcC5paWQ6OTQ4RDJGMzNCRjVFMTFFNTg0MEVEQkU2REM3QTkxQUQiIHhtcDpDcmVhdG9yVG9vbD0iQWRvYmUgUGhvdG9zaG9wIENDIDIwMTUgKFdpbmRvd3MpIj4gPHhtcE1NOkRlcml2ZWRGcm9tIHN0UmVmOmluc3RhbmNlSUQ9InhtcC5paWQ6MDIxNDU3N2YtODJkNi0wODRkLWE5ZjEtZDA3NDNhYmIwNThkIiBzdFJlZjpkb2N1bWVudElEPSJ4bXAuZGlkOjAyMTQ1NzdmLTgyZDYtMDg0ZC1hOWYxLWQwNzQzYWJiMDU4ZCIvPiA8L3JkZjpEZXNjcmlwdGlvbj4gPC9yZGY6UkRGPiA8L3g6eG1wbWV0YT4gPD94cGFja2V0IGVuZD0iciI/PpNX8NsAAAe+SURBVHja7NzBbYNAFEXREE0BKSElpAS7JK/4O3v5y3AnUAIluAR3QNhm4SiRMB4x50goOyIelnyVkdLN8/wGALSlEwAAIAAAAAEAAAgAAEAAAAACAAAQAACAAAAABAAAIAAAAAEAAAgAAEAAAAACAAAQAACAAAAABAAAIAAAQAAAAAIAABAAAIAAAAAEAAAgAAAAAQAACAAAQAAAAAIAABAAAIAAAAAEAAAgAAAAAQAACAAAQAAAgAAAAAQAACAAAAABAAAIAABAAAAAAgAAEAAAgAAAAAQAACAAAAABAAAIAABAAAAAAgAAEAAAgAAAAAEAAAgAAEAAAAACAAAQAACAAAAABAAAIAAAAAEAAAgAAEAAAAACAAAQAACAAAAABAAAIAAAAAEAAALACgAgAAAAAQAACAAAQAAAAAIAABAAAIAAAAAEAAAgAAAAAQAACAAAQAAAAAIAABAAAIAAAAAEAAAIAAHAbj7MXWcEfsjMYflxWPGWY9/3R8uyB+8mAAABAAAIAABAAAAAAgAAEAAAgAAAAAQAACAAAAABAAAIAABAAAAAAgAAEAAAgAAAAAQAACAAAAABAAACAAAQAACAAAAABAAAIAAAAAEAAAgAAEAAAAACAAAQAACAAAAABAAAIAAAAAEAAAgAAEAAAAACAAAEAAAgAAAAAQAACAAAQAAAAAIAABAAAIAAAAAEAAAgAAAAAQAACAAAQAAAAAIAABAAAIAAAAAEAAAIAABAAAAAAgAAEAAAgAAAAAQAACAAAAABAAAIAABAAAAAAgAAEAAAgAAAAAQAACAAAAABAAAIAAAQAABAY4oJ2IvMvFihSreIuJoBBAA8y9kEVRqXSwBAZRwBAIAAAAAEAAAgAAAAAQAACAAAQAAAAAIAABAAAIAAAAAEAAAgAAAAAQAACAAAQAAAAAIAABAAAIAAAAABAAA0opgAHpqW69Tgcw9ePQgAaNk9IsbWHjozvXlogCMAABAAAIAAAAAEAAAgAAAAAQAACAAAQAAAAAIAABAAAIAAAAAEAAAgAAAAAQAACAAAQAAAAAIAABAAACAAAAABAAAIAABAAAAAAgAAEAAAgAAAAAQAACAAAAABAAAIAABAAAAAAgAAEAAAgAAAAAQAACAAAEAAAAACAAAQAACAAAAABAAAIAAAAAEAAAgAAEAAAAACAAAQAACAAAAABAAAIAAAAAEAAAgAAEAAAIAAAAAEAAAgAAAAAQAACAAAQAAAAAIAAKhQMQHwZJ+ZeXnV7zY/CADgdV/CZzNAXRwBAIAAAAAEAAAgAAAAAQAACAAAQAAAAAIAABAAAIAAAAAEAAAgAAAAAQAACAAAQAAAAAIAABAAAIAAAAABAAA0opgAeLJpuU47eZa714kAAPjjl2ZEjHt5mL7vvVF2wREAAAgAAEAAAAACAAAQAACAAAAABAAAIAAAAAEAAAgAAEAAAAACAAAQAACAAAAABAAAIAAAAAEAAAgAABAAAIAAAAAEAAAgAAAAAQAACAAAQAAAAAIAABAAAIAAAAAEAAAgAAAAAQAACAAAQAAAAAIAABAAACAAAAABAAAIAABAAAAAAgAAEAAAgAAAAAQAACAAAAABAAAIAABAAAAAAgAAEAAAgAAAAAQAACAAAEAAAAACAAAQAACAAAAABAAAIAAAAAEAAAgAAEAAAAACAAAQAACAAAAABAAAIAAAAAEAAPyimAC2k5mXlW95i4irZQEBAHU7r3y/cbkEAPBvjgAAQAAAAAIAABAAAIAAAAAEAAAgAAAAAQAACAAAQAAAAAIAABAAAIAAAAAEAAAgAAAAAQAACAAAQAAAgAAAABpRTACbOq58v7tJAQEAlYuI0QpADRwBAIAAAAAEAAAgAAAAAQAACAAAQAAAAAIAABAAAIAAAAC25F8Bw4Yyc1j5llNEnCwLCACo28EEQA0cAQCAAAAABAAAIAAAAAEAAAgAAEAAAAACAAAQAACAAAAABAAAIAAAAAEAAAgAAEAAAAACAAAQAACAAAAAAQAANKKYALYTEZ0VAH8BAAAEAAAgAAAAAQAACAAAQAAAAAIAABAAAIAAAAABAAAIAABAAAAAAgAAEAAAgAAAAAQAACAAAAABAAAIAABgM8UE8NBXZg5mAAQAtOVjuQ5mAPbIEQAACAAAQAAAAAIAABAAAIAAAAAEAAAgAAAAAQAACAAAQAAAAAIAABAAAIAAAAAEAAAgAAAAAQAACAAAEAAAQCO6eZ6tAAACAAAQAACAAAAABAAAIAAAAAEAAAgAAEAAAAACAAAQAACAAAAABAAAIAAAAAEAAAgAAEAAAIAAEAAAIAAAAAEAAAgAAEAAAAACAAAQAACAAAAABAAAIAAAAAEAAAgAAEAAAAACAAAQAACAAAAABAAAIAAAQAAAAAIAABAAAIAAAAAEAAAgAAAAAQAACAAAQAAAAAIAABAAAIAAAAAEAAAgAAAAAQAACAAAQAAAgAAAAAQAACAAAAABAAAIAABAAAAAAgAAEAAAgAAAAAQAACAAAAABAAAIAABAAAAAAgAAEAAAgAAAAAEAAAgAAEAAAAACAAAQAACAAAAABAAAIAAAAAEAAAgAAEAAAAACAAAQAACAAAAABAAAIAAAAAEAAALACgDQmG8BBgC0rD5xXt71agAAAABJRU5ErkJggg==" parent="1" vertex="1">
                    <mxGeometry x="510" y="255" width="60" height="60" as="geometry"/>
                </mxCell>
                <mxCell id="8" value="" style="shape=image;verticalLabelPosition=bottom;verticalAlign=top;imageAspect=0;aspect=fixed;image=data:image/png,iVBORw0KGgoAAAANSUhEUgAAAgAAAAIACAYAAAD0eNT6AAAACXBIWXMAAA/fAAAP3wHyuVZaAAAKvUlEQVR4nO3ZwW0bORiAUWqhQtxJvJ2kCx4tH9mFO4nTiTuZhYGctDkk2VnM2N97BdDET3n0iXPZtm0AAC1/OW8A6BEAABAkAAAgSAAAQJAAAIAgAQAAQQIAAIIEAAAECQAACBIAABAkAAAgSAAAQJAAAIAgAQAAQQIAAIIEAAAECQAACBIAABAkAAAgSAAAQJAAAIAgAQAAQQIAAIIEAAAECQAACBIAABAkAAAgSAAAQJAAAIAgAQAAQQIAAIIEAAAECQAACBIAABAkAAAgSAAAQJAAAIAgAQAAQQIAAIIEAAAECQAACBIAABAkAAAgSAAAQJAAAIAgAQAAQQIAAIIEAAAECQAACBIAABAkAAAgSAAAQJAAAIAgAQAAQQIAAIIEAAAECQAACBIAABAkAAAgSAAAQJAAAIAgAQAAQQIAAIIEAAAECQAACBIAABAkAAAgSAAAQJAAAIAgAQAAQQIAAIIEAAAECQAACBIAABAkAAAgSAAAQJAAAIAgAQAAQQIAAIIEAAAECQAACBIAABAkAAAgSAAAQJAAAIAgAQAAQQIAAIIEAAAECQAACBIAABAkAAAgSAAAQJAAAIAgAQAAQQIAAIIEAAAECQAACBIAABAkAAAgSAAAQNDVoXMma63HMcbjnluac972XG+ttet6Y4y3OefLXouttR7GGF/3Wu+Hlznn216LrbXe9/ew13rjY5zz65zzdec14Y8JAM7m/cv/aec97f0g33t/39+/YHdc7+F/2OP7F9duAfAjUL7suN74AOc8fswRTsErAAAIEgAAECQAACBIAABAkAAAgCABAABBAgAAggQAAAQJAAAIEgAAECQAACBIAABAkAAAgCABAABBAgAAggQAAAQJAAAIEgAAECQAACBIAABAkAAAgCABAABBAgAAggQAAAQJAAAIEgAAECQAACBIAABAkAAAgCABAABBAgAAgi7btjl3/mWt5YMBn8Sc8+IsuecGAACCBAAABAkAAAgSAAAQJAAAIEgAAECQAACAIAEAAEECAACCBAAABAkAAAgSAAAQJAAAIEgAAECQAACAIAEAAEECAACCBAAABAkAAAgSAAAQJAAAIEgAAECQAACAIAEAAEECAACCBAAABAkAAAgSAAAQJAAAIOiybZtzP5m11uMY4/HgXT2dbjDAn3o+eHKvc87Xg/fAnauBnNKjL2BgR2d4ngiAk/EKAACCBAAABAkAAAgSAAAQJAAAIEgAAECQAACAIAEAAEECAACCBAAABAkAAAgSAAAQJAAAIEgAAECQAACAIAEAAEECAACCrg6dz2rOeXG4/Fdrrc0Q+YzcAABAkBuAE5pz3sYYtyN35lcPfB5uw/gZNwAAECQAACBIAABAkAAAgCABAABBAgAAggQAAAQJAAAIEgAAECQAACBIAABAkAAAgCABAABBAgAAggQAAAQJAAAIEgAAEHR16PBr1lqbUZ3fnPNSnwH8CjcAABDkBuCE1lq3McZTfQ7APk5we/U857wdvAfuuAEAgCABAABBAgAAggQAAAQJAAAIEgAAECQAACBIAABAkAAAgCABAABBAgAAggQAAAQJAAAIEgAAECQAACBIAABAkAAAgCABAABBAgAAgq4O/ZTexhjfD97Yl5POBvh9Rz9P3g7++/yEADihOefLGOPlyJ2ttbazzgf4PXPORyPjnlcAABAkAAAgSAAAQJAAAIAgAQAAQQIAAIIEAAAECQAACBIAABAkAAAgSAAAQJAAAIAgAQAAQQIAAIIEAAAECQAACBIAABAkAAAg6OrQz2et9TDGeKjPAdjHWuvx4FG+zTnfDt4DdwTAOX0dYzzVhwDs5tvBo3weY9wO3gN3vAIAgCABAABBAgAAggQAAAQJAAAIEgAAECQAACBIAABAkAAAgCABAABBAgAAggQAAAQJAAAIEgAAECQAACBIAABAkAAAgCABAABBAgAAgq4O/ZRexhivB2/s20lnA/y+vw+e2dvBf5+fEAAnNOd8O/ofZq111vEAv2nOefQPCk7IKwAACBIAABAkAAAgSAAAQJAAAIAgAQAAQQIAAIIEAAAECQAACBIAABAkAAAgSAAAQJAAAIAgAQAAQQIAAIIEAAAECQAACBIAABB0dejns9b6Osb4Wp8DsI+11uvBo3yZc74cvAfuCIBzehhjfKkPAdjN0c+TowOEn/AKAACCBAAABAkAAAgSAAAQJAAAIEgAAECQAACAIAEAAEECAACCBAAABAkAAAgSAAAQJAAAIEgAAECQAACAIAEAAEECAACCBAAABAkAAAi6OvTzmXPexhi3Ize21tpOOh7gN805L2bGPTcAABDkBgB+kV9RwGfiBgAAggQAAAQJAAAIEgAAECQAACBIAABAkAAAgCABAABBAgAAggQAAAQJAAAIEgAAECQAACBIAABAkAAAgCABAABBAgAAgq4O/XzWWrcxxlN9DsA+1lrbwaN8nnPeDt4Dd9wAAECQGwA+rRP86gE4LTcAABAkAAAgSAAAQJAAAIAgAQAAQQIAAIIEAAAECQAACBIAABAkAAAgSAAAQJAAAIAgAQAAQQIAAIIEAAAECQAACBIAABB0dein9HqCTT2dYA/APp4PnuMZnmncuWzbZib8y1rLBwM+iTnnxVlyzysAAAgSAAAQJAAAIEgAAECQAACAIAEAAEECAACCBAAABAkAAAgSAAAQJAAAIEgAAECQAACAIAEAAEECAACCBAAABAkAAAgSAAAQJAAAIEgAAECQAACAIAEAAEECAACCBAAABAkAAAgSAAAQJAAAIEgAAECQAACAoMu2bc6d01hr3cYYT3vuZ8552XO9tdbe/zTf55yPey221npf69te6/3w95zzda/F1lrva33Za73xMc75ec5523lN+GNuAAAgSAAAQJAAAIAgAQAAQQIAAIIEAAAECQAACBIAABAkAAAgSAAAQJAAAIAgAQAAQQIAAIIEAAAECQAACBIAABAkAAAgSAAAQJAAAIAgAQAAQQIAAIIEAAAECQAACBIAABAkAAAgSAAAQJAAAIAgAQAAQQIAAIIEAAAECQAACLo6dE7m9QMcyPPO6739D+udfY8vH+Cs957hR/hsE3LZts15A0CMVwAAECQAACBIAABAkAAAgCABAABBAgAAggQAAAQJAAAIEgAAECQAACBIAABAkAAAgCABAABBAgAAggQAAAQJAAAIEgAAECQAACBIAABAkAAAgCABAABBAgAAggQAAAQJAAAIEgAAECQAACBIAABAkAAAgCABAABBAgAAggQAAAQJAAAIEgAAECQAACBIAABAkAAAgCABAABBAgAAggQAAAQJAAAIEgAAECQAACBIAABAkAAAgCABAABBAgAAggQAAAQJAAAIEgAAECQAACBIAABAkAAAgCABAABBAgAAggQAAAQJAAAIEgAAECQAACBIAABAkAAAgCABAABBAgAAggQAAAQJAAAIEgAAECQAACBIAABAkAAAgCABAABBAgAAggQAAAQJAAAIEgAAECQAACBIAABAkAAAgCABAABBAgAAggQAAAQJAAAIEgAAECQAACBIAABAkAAAgCABAABBAgAAggQAAAQJAAAIEgAAECQAACBIAABAkAAAgCABAABBAgAAggQAAAQJAAAIEgAAECQAACBIAABAkAAAgJoxxj+fJLQL3SHk7AAAAABJRU5ErkJggg==;imageBackground=none;" parent="1" vertex="1">
                    <mxGeometry x="510" y="452" width="70" height="70" as="geometry"/>
                </mxCell>
                <mxCell id="9" value="" style="shape=image;verticalLabelPosition=bottom;verticalAlign=top;imageAspect=0;aspect=fixed;image=data:image/png,iVBORw0KGgoAAAANSUhEUgAAAgAAAAIACAYAAAD0eNT6AAAAGXRFWHRTb2Z0d2FyZQBBZG9iZSBJbWFnZVJlYWR5ccllPAAAA3ZpVFh0WE1MOmNvbS5hZG9iZS54bXAAAAAAADw/eHBhY2tldCBiZWdpbj0i77u/IiBpZD0iVzVNME1wQ2VoaUh6cmVTek5UY3prYzlkIj8+IDx4OnhtcG1ldGEgeG1sbnM6eD0iYWRvYmU6bnM6bWV0YS8iIHg6eG1wdGs9IkFkb2JlIFhNUCBDb3JlIDUuNi1jMTExIDc5LjE1ODMyNSwgMjAxNS8wOS8xMC0wMToxMDoyMCAgICAgICAgIj4gPHJkZjpSREYgeG1sbnM6cmRmPSJodHRwOi8vd3d3LnczLm9yZy8xOTk5LzAyLzIyLXJkZi1zeW50YXgtbnMjIj4gPHJkZjpEZXNjcmlwdGlvbiByZGY6YWJvdXQ9IiIgeG1sbnM6eG1wTU09Imh0dHA6Ly9ucy5hZG9iZS5jb20veGFwLzEuMC9tbS8iIHhtbG5zOnN0UmVmPSJodHRwOi8vbnMuYWRvYmUuY29tL3hhcC8xLjAvc1R5cGUvUmVzb3VyY2VSZWYjIiB4bWxuczp4bXA9Imh0dHA6Ly9ucy5hZG9iZS5jb20veGFwLzEuMC8iIHhtcE1NOk9yaWdpbmFsRG9jdW1lbnRJRD0ieG1wLmRpZDowMjE0NTc3Zi04MmQ2LTA4NGQtYTlmMS1kMDc0M2FiYjA1OGQiIHhtcE1NOkRvY3VtZW50SUQ9InhtcC5kaWQ6OTQ4RDJGMzRCRjVFMTFFNTg0MEVEQkU2REM3QTkxQUQiIHhtcE1NOkluc3RhbmNlSUQ9InhtcC5paWQ6OTQ4RDJGMzNCRjVFMTFFNTg0MEVEQkU2REM3QTkxQUQiIHhtcDpDcmVhdG9yVG9vbD0iQWRvYmUgUGhvdG9zaG9wIENDIDIwMTUgKFdpbmRvd3MpIj4gPHhtcE1NOkRlcml2ZWRGcm9tIHN0UmVmOmluc3RhbmNlSUQ9InhtcC5paWQ6MDIxNDU3N2YtODJkNi0wODRkLWE5ZjEtZDA3NDNhYmIwNThkIiBzdFJlZjpkb2N1bWVudElEPSJ4bXAuZGlkOjAyMTQ1NzdmLTgyZDYtMDg0ZC1hOWYxLWQwNzQzYWJiMDU4ZCIvPiA8L3JkZjpEZXNjcmlwdGlvbj4gPC9yZGY6UkRGPiA8L3g6eG1wbWV0YT4gPD94cGFja2V0IGVuZD0iciI/PpNX8NsAAAe+SURBVHja7NzBbYNAFEXREE0BKSElpAS7JK/4O3v5y3AnUAIluAR3QNhm4SiRMB4x50goOyIelnyVkdLN8/wGALSlEwAAIAAAAAEAAAgAAEAAAAACAAAQAACAAAAABAAAIAAAAAEAAAgAAEAAAAACAAAQAACAAAAABAAAIAAAQAAAAAIAABAAAIAAAAAEAAAgAAAAAQAACAAAQAAAAAIAABAAAIAAAAAEAAAgAAAAAQAACAAAQAAAgAAAAAQAACAAAAABAAAIAABAAAAAAgAAEAAAgAAAAAQAACAAAAABAAAIAABAAAAAAgAAEAAAgAAAAAEAAAgAAEAAAAACAAAQAACAAAAABAAAIAAAAAEAAAgAAEAAAAACAAAQAACAAAAABAAAIAAAAAEAAALACgAgAAAAAQAACAAAQAAAAAIAABAAAIAAAAAEAAAgAAAAAQAACAAAQAAAAAIAABAAAIAAAAAEAAAIAAHAbj7MXWcEfsjMYflxWPGWY9/3R8uyB+8mAAABAAAIAABAAAAAAgAAEAAAgAAAAAQAACAAAAABAAAIAABAAAAAAgAAEAAAgAAAAAQAACAAAAABAAACAAAQAACAAAAABAAAIAAAAAEAAAgAAEAAAAACAAAQAACAAAAABAAAIAAAAAEAAAgAAEAAAAACAAAEAAAgAAAAAQAACAAAQAAAAAIAABAAAIAAAAAEAAAgAAAAAQAACAAAQAAAAAIAABAAAIAAAAAEAAAIAABAAAAAAgAAEAAAgAAAAAQAACAAAAABAAAIAABAAAAAAgAAEAAAgAAAAAQAACAAAAABAAAIAAAQAABAY4oJ2IvMvFihSreIuJoBBAA8y9kEVRqXSwBAZRwBAIAAAAAEAAAgAAAAAQAACAAAQAAAAAIAABAAAIAAAAAEAAAgAAAAAQAACAAAQAAAAAIAABAAAIAAAAABAAA0opgAHpqW69Tgcw9ePQgAaNk9IsbWHjozvXlogCMAABAAAIAAAAAEAAAgAAAAAQAACAAAQAAAAAIAABAAAIAAAAAEAAAgAAAAAQAACAAAQAAAAAIAABAAACAAAAABAAAIAABAAAAAAgAAEAAAgAAAAAQAACAAAAABAAAIAABAAAAAAgAAEAAAgAAAAAQAACAAAEAAAAACAAAQAACAAAAABAAAIAAAAAEAAAgAAEAAAAACAAAQAACAAAAABAAAIAAAAAEAAAgAAEAAAIAAAAAEAAAgAAAAAQAACAAAQAAAAAIAAKhQMQHwZJ+ZeXnV7zY/CADgdV/CZzNAXRwBAIAAAAAEAAAgAAAAAQAACAAAQAAAAAIAABAAAIAAAAAEAAAgAAAAAQAACAAAQAAAAAIAABAAAIAAAAABAAA0opgAeLJpuU47eZa714kAAPjjl2ZEjHt5mL7vvVF2wREAAAgAAEAAAAACAAAQAACAAAAABAAAIAAAAAEAAAgAAEAAAAACAAAQAACAAAAABAAAIAAAAAEAAAgAABAAAIAAAAAEAAAgAAAAAQAACAAAQAAAAAIAABAAAIAAAAAEAAAgAAAAAQAACAAAQAAAAAIAABAAACAAAAABAAAIAABAAAAAAgAAEAAAgAAAAAQAACAAAAABAAAIAABAAAAAAgAAEAAAgAAAAAQAACAAAEAAAAACAAAQAACAAAAABAAAIAAAAAEAAAgAAEAAAAACAAAQAACAAAAABAAAIAAAAAEAAPyimAC2k5mXlW95i4irZQEBAHU7r3y/cbkEAPBvjgAAQAAAAAIAABAAAIAAAAAEAAAgAAAAAQAACAAAQAAAAAIAABAAAIAAAAAEAAAgAAAAAQAACAAAQAAAgAAAABpRTACbOq58v7tJAQEAlYuI0QpADRwBAIAAAAAEAAAgAAAAAQAACAAAQAAAAAIAABAAAIAAAAC25F8Bw4Yyc1j5llNEnCwLCACo28EEQA0cAQCAAAAABAAAIAAAAAEAAAgAAEAAAAACAAAQAACAAAAABAAAIAAAAAEAAAgAAEAAAAACAAAQAACAAAAAAQAANKKYALYTEZ0VAH8BAAAEAAAgAAAAAQAACAAAQAAAAAIAABAAAIAAAAABAAAIAABAAAAAAgAAEAAAgAAAAAQAACAAAAABAAAIAABgM8UE8NBXZg5mAAQAtOVjuQ5mAPbIEQAACAAAQAAAAAIAABAAAIAAAAAEAAAgAAAAAQAACAAAQAAAAAIAABAAAIAAAAAEAAAgAAAAAQAACAAAEAAAQCO6eZ6tAAACAAAQAACAAAAABAAAIAAAAAEAAAgAAEAAAAACAAAQAACAAAAABAAAIAAAAAEAAAgAAEAAAIAAEAAAIAAAAAEAAAgAAEAAAAACAAAQAACAAAAABAAAIAAAAAEAAAgAAEAAAAACAAAQAACAAAAABAAAIAAAQAAAAAIAABAAAIAAAAAEAAAgAAAAAQAACAAAQAAAAAIAABAAAIAAAAAEAAAgAAAAAQAACAAAQAAAgAAAAAQAACAAAAABAAAIAABAAAAAAgAAEAAAgAAAAAQAACAAAAABAAAIAABAAAAAAgAAEAAAgAAAAAEAAAgAAEAAAAACAAAQAACAAAAABAAAIAAAAAEAAAgAAEAAAAACAAAQAACAAAAABAAAIAAAAAEAAALACgDQmG8BBgC0rD5xXt71agAAAABJRU5ErkJggg==" parent="1" vertex="1">
                    <mxGeometry x="467" y="440" width="60" height="60" as="geometry"/>
                </mxCell>
                <mxCell id="12" value="" style="shape=image;verticalLabelPosition=bottom;verticalAlign=top;imageAspect=0;aspect=fixed;image=data:image/png,iVBORw0KGgoAAAANSUhEUgAAAgAAAAIACAYAAAD0eNT6AAAAGXRFWHRTb2Z0d2FyZQBBZG9iZSBJbWFnZVJlYWR5ccllPAAAGzFJREFUeNrs3ct1FMnWBtDof/X8qi2gZAGFBSpZgLCAkgUNI4aCISPRFkhYgLCAlAVIFlBYgK4F/BVdJ68CoXc98rX3WrFSomlQRSZ5vojIxx8/f/5MAMCw/J8uAAABAAAQAAAAAQAAEAAAAAEAABAAAAABAAAQAAAAAQAAEAAAAAEAABAAAAABAAAQAAAAAQAAEAAAAAEAAAQAAEAAAAAEAABAAAAABAAAQAAAAAQAAEAAAAAEAABAAAAABAAAQAAAAAQAAEAAAAAEAABAAAAABAAAEAAAAAEAABAAAAABAAAQAAAAAQAAEAAAAAEAABAAAAABAAAQAAAAAQAAEAAAAAEAABAAAAABAAAQAABAAAAABAAAQAAAAAQAAEAAAAAEAABAAAAABAAAQAAAAJrwpy5Yzvv373UCXTOKVrqYtzNdQ5e8efNGJwgAMBiTa4r4f+ZtXPyerSvfr8JZhITy+//G17NoWWUXgQAAPK7A1wW8LuzrKOgPNb4hiNwVGOqgUH8vIIAAAINVF/TcnhRfb/XoM45vCQp1MMjte/H1hUMDBADoi1FR4HfS9evvQwxAk2vCwSzaaREKZg4hEACgCyZFsR8r9g8OS6MrwWAWQaAOBZVuAgEA2lLwJ1HwJ7pjbaFgr/i1KgJBJRCAAACbMo5C/1zBbzx0HRSB4HNs3coIAgCsxFZR8PdSvy7U61sgyPKFhCdFIHBhIQgAcG+jKPY76depZ7oR2KbRUoSB09jOdA8IAHBT0X+Zmr/nntXZi3aYFssDH4UBEABA0R+W+nZMYQAEAAZoK4p+vaaPMFBfM5C3rhlgMLwNkKGYzNvRvH2LreJPbe/KsTHRJQgA0P3R/qs4sX9JiwvDXMXPbcfLNI6Vb3HsOF4QAKCDo/0faTHFO9IlPNAojp0fZgUQAKD98ujtazHah1UdV1/i2HJcIQBAS+Qp2rfFSM3V/KzLOF3OLL1NlgcQAKARo3R54daBkzEbDp0H6fKiwZEuQQCAzRb+qcJPw0FgKgggAMB6TdLl1dlT3UHL1EHgU3LBIB3hQUB0ofAfOKneyyz9+lS7/FCb8yX/zKfp11mWkZHurepHD1fz9i55XTECADxYLjKHyQN76kJ+dqWgVzcU/U3vo1ER1MrAME7DXp6ZRDuOIDBzGCMAwN1FJY/4pwP87FUUiu9R8Gep3e+3L8PHTSPdcezTvH0SX08GtE+n0QQBBAC4Qf3UvoMBjehPY3vW48JQf76Ta4Je/Tz+nQHMGNRBIIeAD8k7BxAA4F914e9rAaiuFHyjwMvZg5NrQkEdCPo4U5CP87+LIAACAIOUT/B9vH2qimJfJReBLRsKJtF2ehQIctA9jCCw7xhBAGCIo/7DnnyWsziJf3YyX0uYqq4Eguex7fpTH3Pwzbe2vjYbgADAkBynbk/7nxQFf2Z3NhIIRkUg6OrdIhfxbwE2zoOAaPLEt9/BE/WLefsjtseKf6NmN+yTLl1gt59cEIgAwACdpN+vDm9r0f8rTtYndlurj6f92FddCAMnjiea9MfPnz/1wj29f//+y4r/yI/J9F9eAviW2rUUcBL7xsm5H/LywMvUrmWCHEy2jf7/vTXy5Sr/wDdv3uw65O/HNQAPM1nxn3eqS/+3FPCp4Z8jX8j3TxR9U7L9mxk4iZCZQ0C++r7pCwhN/S+Mksd8N8YSAG06QTcRPvLV18+iHTsp9z5sHhf7u6kH8pj6RwCAhkZEZ+lyrfh1avfjdlnfMZD3/XYcC5s6Brp28SsCAPTixJhHf7vFaB/KWYHdDRwXpv4RAOAa65gazSfbd8VIr9LN3KCKY2Q7jpmLDhzfIADQG6saIc2Kwv82uV+fhx07b4sgsIpjx9Q/AgCs+UQ5K0Zxb5PpVpY7FusgsL9kEDD1jwAA9/CYqdKy8B/rQlbseIkgYOofAQDWMGJS+GlzEDD1T2t5EBBtddcDguqL+7xF7XeTK9+P0sNfuTy7psBVuvaXIJBbfqvlbS+1MvWPAACPUE+d7l0p/P+k5h7i0qRxFJp6+6Qo7JMN/yxVERS+x744K7ZD8aEIAn9fCQKm/hEAYAn7Udy24kS7qquy2z6Cr0ftO48cwW96luGmGYTT4uu+ziDUFwsex2zANJn6RwCAlZxcX/R4ZDmJ9jRG9qOefK46tEyuCQZ5P55HIOhTKJhF0f8nAqupfwQAWFJfisSoKPaT1PwLaZoMBnsxWk4RCKoiFMw6/hk9WhoBAAaufvvcTrqc1ud34ythaBZBIC8feDsjCADQmWKWi/7zgY7wVzVLMI12FCPqzxEGjK5BAIDWqAv+Xrr5djCWnyE4KGYH6kAACACg6A9sduAiQoAwAI/gSYDwsJFonpL+kRYPKJoq/o3ain3wKfbJUbLsAgIArHDEmR/y8m3evir6rQ8DX2NfvUouugQBAB5hL0aWuZgcKiadC22Hse8+pV+fJAkIAHDtKPKVwtHbIPcqmb0BAQCujBiPjPYHMytwZB+DAMCwTYrR4dTocBDqawXqWZ6JLkEAgGEV/i/RTPMP115xHAgCCAAwkMLvhI/jAgEAnODBcYIAAH0xdkJnySDgwUIIANAho7S40vurws+SQeBrctcAPeVdAPTRFydsVmgaYWBbVyAAQLu9TotbvIZiFi2/HOe8+PXqmt9b3WPUe9uv7cR2NLCQ9do/KwQAaL+TaH26xe8sivx5UfDPouiv0kNDQ76vflwEgqexHffweAIBADpgP0auXXy4TxXF/Ty2Zy3+WS9uCQjjaE9jO+ngvriIYwkEAOjYibvtSwGzKKDnReHvi+vCSx0EnsZ21IEgeeGfEwIAdEsblwLqEfPn2M4Gtk+uhoJRBIHnqX0zNqb+EQCgw9qwFHAWxf5jz0b4q5AD0HG0eobgZeyzJq8jMPWPAAAd19RSwFkU/JMBjvJXNUOQZwf2IhBsOgyY+qf3PAiIIdjUVG4uXPl2sXy/+LN5+6D4Lz078CH6cjv69qxHxwsIANDhEd1FUaQU/c2Egbqf17U/Tf0jAECPrPrEXsWf99cGR6Ys1DMtf8U+qDoQFEEAgAYtO7WbC8NxWkxH76bLC9doznHsi+34+qLB4wMEAGixx4zwZulybX8/meJvo1nsm/pagYfuI1P/CADQcw850ZdFZV1rzqx+/354RFgz9Y8AAANw11RvVRT+Y93VWcdFEKiWOB5AAIAeuW7El0eLu8n6fh+DQL1fZ9fMGJj6RwCAASlP/LNixF/pmt6q0u9LA6b+EQBggPK074tkqn+IMwLbse9N/SMAwIBDAPY9CAAAgAAAAPSQtwFCf0xim9+cV7/++ElavFXvMWbz9j2+zhfK1Y87rnQ1CADAZo2j5aL+NAr9pKGfpYpgcB5hoXyVLyAAAEsU+0kU+rrwt0kdPPau/HodBM4jJAgFIAAA9yj4z9Ov0/hd/BxlWKmXDz4LBCAAAIsCvxcFf9Lhgn+fzzkpZgwuIgjkQHCSPIgHBAAYgFEU/ZepfVP6mw4+uR3FjMDHCAMzhwgIANCngjcdeNG/Tb1kcFiEgWMzA7BengMA65NHuJ/m7UcUN8X/fmHgMPrsU/r9AkPADAC00qgY7Y90x9IBKrdZMSsw0y1gBgDaZJIW69nf5u1A8V95qDqIvj1KzT33AAQA4JdR6pdoU92xdtOivwUBEACgkUKUR6SfFKJGTCIEfBO8QACATRb+PBU90h2NG6XLpRdBAAQAWNuoU+FvdxCY6AoQAGDVqrR4WA3tdJK8qRAEAFiT/eQBNW10EfsGEABAoRHMAAEAVuckWQqwP0AAACNOGmNGBgQAUHgEMeC+vAsAHq+eeu7CC2tm6f7P0c9vLxx3qP8BAQAaGYFOomg2XdxP4/sqtmcrGB2XYWAS2520uO9+1OBnNgMDAgA0qi5Enzb0951FO49ttYHPV10JFqVJBISnsd3UzIGpfxAAoHHrXAqoi/xpbNtW9KorwWArQsFOEQ7W1d+AAACNW9VSQD3i/hxFrmuj3IsrBXorgtHzFfaPqX8QAKBVhe+xSwF10fzcw5Ft/mzH0VIRBvYeGQZM/cOKuA0QVuehU9NVFLS/YnsykD7Kn3U7ttUa+xcQAGBj7hqh5v/2LgrgbjEyHpp6ZmA3+uLDPfrN1D8IANDqwnZdoZoVo/236f735A9B7ovX6XImZPaIYAUIANC4cqq6Kka5x7rmTsfpcnakuqY/gRVxESCsRx6x/pO8n/6xqmiTtLgVEhAAoBMuFP+VBQFgDSwBAIAAAAAIAACAAAAACAAAgAAAAAgAAIAAAAAIAACAAAAACAAAgAAAAAgAAIAAAAAIAACAAAAACAAAgAAAAAIAACAAAAACAAAgAAAAAgAAIAAAAAIAACAAAAACAAAgAAAAAgAAsHJ/6oJBmczbF90A3GB33irdYAYAABAAAAABAAAQAAAAAQAAEAAAAAEAABAAAAABAAAQAAAAAQAAEAAAAAEAABAAAAABAAAQAABAAAAABAAAQAAAAAQAAEAAAAAEAABAAAAABAAAQAAAAAQAAEAAAAAEAABAAAAABAAAQAAAAAQAAEAAAAABAAAQAAAAAQAAEAAAAAEAABAAAIDW+1MXNOrJvE02+PeNdTnQonPEE10uAAzVNBoPV83b7or/zJ8P/P278XOsytt5O7BradChLhgOSwAAIAAAAAIAACAAAAACAAAgAAAAAgAAIAAAAAIAACAAAAACAAAgAAAAAgAAIAAAAAIAACAAAAACAAAgAACAAAAADMSfuuBBdjv+84/n7bAn+2Iybz8b/hm++CdBz7yetzPdMAx//Pz5Uy8s4f37910rmooWcNsgp+rKD/vmzRt7bAmWAABAAAAABAAAQAAAAAQAAEAAAAAEAABAAAAABAAAQAAAAAQAAEAAAAAEAABAAAAABAAAQAAAAAQAAEAAAAABAAAQAAAAAQAAEAAAAAEAABAAAAABAAAQAAAAAQAAEAAAAAEAABAAAAABAAAQAAAAAQAAEAAAAAEAAAQAAEAAAAAEAABAAAAAOu1PXTAo1bz9oRsAMAMAAAIAACAAAAACAAAgAAAAAgAAIAAAAAIAACAAAAACAAAgAAAAAgAAIAAAAAIAACAAAAACAAAgAAAAAgAACAAAgAAAAAgAAIAAAAAIAACAAAAACAAAgAAAAAgAAIAAAAAIAACAAAAdsTVvE92wtEn0JSAAQCcczduXaILA4wp/3X9HugMEAOiCvWhlIfs2b1Ndc6dp9FUZnMr+BAQAaKWtG0aso/j1H/N2GN9z2TeH0TdHN/TNUbIUAAIAtNhdhSr/t1fFKHc60MK2FZ+9nh15dY9+sxQAAgC00kOnqidR1L7Fdm8gfVR+5ska+xe4xZ+6AFY2oj1a4v+dRruYt2rePs/bSXzf9X7JRft5Ws0V/UfRPxcOORAAoA1WtUa9VYx08595FgXvtCOFr779cSe24zUFrRcOORAAoGnrnJoeR3sV359FOy/CQZPqIv+0+Fk31d8nDj0QAKDJEe8mL067rsjOop3G91URFi5W8PnGRbFPMbofpWbvZLAUAAIANKoNt6fVxbgu0AfX/J46JDzkz+tC8LIUAAIAbFyXrkrvQlF/bP9bCoBHcBsgLDcCpVkeEAQCACg8ghggAMD6eCCN/QECABhx0gJmZEAAAIVGMAMEAFidSTLV3GZ76WHvFgABALiXat720/3vp2dzZrFvKl0B9+M5APAwx9GmafHAnZEuabzwv4t9Mjhv3rxxBGAGABoIAttp8SQ6o87Ny32+G/vgWHeAAACbdhKFaFch2ljwqvtb8AIBAFoxIt2PEWmekp7pkpWZRZ9uJ+v8IABAi4vV23S5POA59Y93En24HX0qVMEKuQgQ1lvAcsv3qE/n7WX6/VW+/Cq/wvhjWkz1e9UvmAGATsuF7MO8PYvR7OsodFwW/dfRN8+irxR/MAMAvTKLAvchZgbyw2uep8UDbIbyhMFc3Kt5+5wWMySKPQgAMLiZgeN0effAOILATs8CwUWM8j9H4Tf7AQIAUDiL9uFKIHgaX4879jnOFXwQAIDHF9JSHQRGEQy2UnPPv69idH8eP+dMsQcBANhcKKhNipBQLx88SY9/XHEu6N/j64vi763sBhAAgPaoFGjgvtwGCAACAAAgAED/7ekC+x4EABheAfg0b9/S4lG9DMM09vknIQABAIYnXyV/FF+P4utcFCa6pteB71vs61H82lEazhMYQQCAG078uSh8iWZGoF8j/i8x4h/dEgRBAIABjARvm/qdFDMCgkC3C3894p8scTyAAAA98JAR36gIAq+SqeKu7N9X6fep/rtYCkAAgJ57zIk+F5HDRxQVNqcMa4eP2EeWAhAAoMeWnerNRWIaRcZ1Au0wjX1RL9dsNXh8gAAALbTqEd4k/rwfMeIc6+KNGUef/0h3r+8/lKUABADomXWd2Os156/R8tcj3b1yo2v6eV3701IAAgD0xKamduuR6TdhYOVFv17bH/foeIFGeRsgfdfUiG5cBIL8Gt1q3j6mm1/ly2W/vUyLaf0ml1WOYp9d2CUIANBNbVjTrcPAqygoubB8ju3MKP/fYv88tm1Zf6+D4wv/hBAAoHvaOJW7deXnmkUQOI9t32cIxlHon8Z21IHj58Q/JQQA6I6uXMyVC+D0yq/VQeA8tl0NBfXMx9Oi8HeNpQAEAOjgiburt3NNrimWZzFbcB7bWfxa04VpK4r7KNrT2PbltkhLAQgA0CF9vIq7Hk1f97nqQJCdXplJSNfMLtwVPm77tZ3Y1gV/SMeTpQAEAGi5w4F93rIYl8X6wKGw0mNKAKBXPAeAPtqdt2PdwIocxzEFAgC03Gze9uftWbp7yhtuUsUxtJ/crokAAJ1yFiO3XUGABxb++rjx4CYEAOjJCV0QwHECAgBO8OC4QACAIZ7wXdk9XCcKPwIADDcI5Ae8bKfFld6e9tZ/F7Gvt2PfK/wIADBgs7S40jsXhdfJFd993cevYx+7qh8EAPhtdPihGB1aHui+k3Q5y/MhmeWB//EkQLi5cOQ2SovHwP6dhvPo2z6M9v+J/WekD2YA4NHFpJ4VyA+FOTaKbKV6bf9ZMdpX/EEAgJXID4XJ68d/pcW0sjDQjqL/IvbJfvLgHrg3SwDwOPUSQS46eYngeVq8iGeka9Yqj+qrefucXKMBAgC0JAxk4yIQjHXNSpwVBd8IHwQAaG2xyu3tvG1FGNgxO/CoUf5pFH3LLCAAQKfUa9TH8f0ogsDT2JohuAxNueCfx3amS0AAgBTF8iJ1f/p3VoSB8rPVoWA8gFmCWezHuthXPfyMeT9uJU8ZRACApeQT6afY5uL5rmcjxOuK4CSCQG47xdddK/S5nRZf970g5n10MG/TCKzbyfIFAgA82lEU/xQn1rymnh/y0uenulV3jCzr7ZMiGEwa+hlzYf+eLmdo+jBT85iQ+iotHha1VfxaPnZf+CeMAAAPtxft6sn2IE627yIIDMXZHQEh3RAGHjODUI/a7xNMhuxVHI9btxy/bldEAIAHjqqO7vjvh0UQONZlCvUGTaPw3xWsjmJ/WAqgdTwJkLY6umFUla4Z3ebf+y1OyrDuwv8tjrnRPX7/XUEWBAAoXDf1LwjQpcK/7PEMAgCDs+yIqQwCb+85iwA3HYtvlyj8pSPHIgIAbOZEmU/WB0UQGOlaHnDs1IX/YEXHjqUABAC4xTqmSreKIJBPwBPdzA0m6XL26GANI3ZLAQgA0NAIaTpvX+bta3xtSpatOBa+xrExXfPfZykAAQAaPDGOi5HeYfJM/iEax76vZ4Y2dQxYCkAAgEJTU6P1E9y+mhUY3Gj/a+z7rQEd7yAA0LqTchtGRPWswI+0ePeAE3S/Auan2LebHO3fxlIAAgCD18YT4dWCIQx0s+i3OdBZCkAAYPAn6TYX13rKWBjoZtGftnyUbSmARnkXAEZADwsD0/g+v+Dlc1o8531mdzZilBa37j3vcCH1rgAEAAan7aOzh4zezuIkXgcC1tvvO1H4+3D3Rh0sP9i1CAAMxYconMs+YrUNxtFexfc5BJzGViBYziRaXfT7ZDZv+44RBACGKJ/4ttPt71TvctE6KD7nWYSCs2TJ4CajCFI7sZ309HPm6f53Rv0IALA4ER4XQaCvo9hXRQG4GgjOBlrsy4I/hNvi6sJvzR8BAIqi+DaCQA4B0x5/1q0iFJSqCAPfIxBcpO5PD4+LYv8kXV64NzTHUfxn/qkjAMD18glyP06WfQ8C180U3BSO6kBwXoSFur+aKiqjdHn9Rv2zP42AM5QRvcKPAABrCgIfIwhMBtwXW8Xnr+88OLglKJTfny/5dz+9UsjLos/Nqij8la5AAIDHn0irKIB/Jw9OuW9QSFcCA5uRnw/xj8JPF3gSIF0KAi/S4q6BY91ByxzHsflC8UcAgPWYpcXSQB0EXE1NUy6Kwr+frPMjAMDGg8A7QYANF/53Cj8CADR/Mn47b3/FyfhMl7AmZ3GM/RXHnNCJAAAtcTxvz+ZtN7lOgNUeV7txbDmuEACgxapipPY6maLl4WZx7NQzS5UuQQCA7shTtPmxq9vFrIBpW247XurR/nbyyF56znMAGNKsQBWjunxvfJffIc9q5Xv3P8dWwUcAgJ6P8nIbRQh4mfrxbnnuL1/Q9zGK/kx3IADAsOQT/4dowoCiDwIACAP/hoGdZJmg63KxP1X0QQCAh4aB+vn69TUD3nDXbhfpck2/Stb0QQCAJQtKbvl2sHERCCa6pxWqouB7EBQIALAWZ9E+xPeTaDsCwUYL/mm6vLMDEACgkWJUFqFJzBLsxHaki5Yyi8B1GlsFHwQAaHUgqGcIRhEE6lAwEgpuLfazK8XeGj4IANDponZS/NpWEQqeFF8P5QLDi3S5lPK9+FqxBwEAel8A65mCqyZFQPhPEQy69myCs6LQ/7f4vrL7QQAAflcXyJMb/vsktqN0uZTwnysBYR2B4eoIvS7sV/+bAg8CALDGgLCMMjzUZsmDcmBQ/vj586deAICB8TpgABAAAAABAAAQAAAAAQAAEAAAAAEAABAAAAABAAAQAAAAAQAAEAAAAAEAABAAAAABAAAQAAAAAQAAEAAAQAAAAAQAAEAAAAAEAABAAAAABAAAQAAAAAQAAEAAAAAEAABAAAAABAAAQAAAAAQAAEAAAAAEAABAAAAAAQAAEAAAAAEAABAAAAABAAAQAAAAAQAAEAAAAAEAABAAAAABAAAQAAAAAQAAEAAAAAEAABAAAAABAAAEAABAAAAABAAAQAAAAAQAAEAAAAAEAABAAAAABAAAoBH/L8AAfzykSxUIlCgAAAAASUVORK5CYII=" parent="1" vertex="1">
                    <mxGeometry x="60" y="280" width="130" height="130" as="geometry"/>
                </mxCell>
                <mxCell id="15" value="&amp;nbsp;ESP-NOW" style="text;html=1;strokeColor=none;fillColor=none;align=center;verticalAlign=middle;whiteSpace=wrap;rounded=0;fontSize=27;" parent="1" vertex="1">
                    <mxGeometry x="463.5" y="595" width="180" height="40" as="geometry"/>
                </mxCell>
                <mxCell id="16" value="" style="shape=flexArrow;endArrow=classic;html=1;entryX=0.93;entryY=0.792;entryDx=0;entryDy=0;entryPerimeter=0;" parent="1" source="9" target="33" edge="1">
                    <mxGeometry width="50" height="50" relative="1" as="geometry">
                        <mxPoint x="360" y="490" as="sourcePoint"/>
                        <mxPoint x="410" y="440" as="targetPoint"/>
                        <Array as="points"/>
                    </mxGeometry>
                </mxCell>
                <mxCell id="17" value="&lt;font style=&quot;font-size: 27px;&quot;&gt;Lora&lt;/font&gt;" style="text;html=1;strokeColor=none;fillColor=none;align=center;verticalAlign=middle;whiteSpace=wrap;rounded=0;fontColor=#FF0000;" parent="1" vertex="1">
                    <mxGeometry x="495" y="220" width="60" height="30" as="geometry"/>
                </mxCell>
                <mxCell id="20" value="&amp;nbsp;Wifi gateway" style="text;html=1;strokeColor=none;fillColor=none;align=center;verticalAlign=middle;whiteSpace=wrap;rounded=0;fontSize=27;fontColor=#FF6666;" parent="1" vertex="1">
                    <mxGeometry x="100" y="210" width="210" height="30" as="geometry"/>
                </mxCell>
                <mxCell id="22" value="" style="shape=flexArrow;endArrow=classic;html=1;exitX=0;exitY=0.5;exitDx=0;exitDy=0;entryX=1.005;entryY=0.356;entryDx=0;entryDy=0;entryPerimeter=0;" parent="1" source="5" edge="1" target="33">
                    <mxGeometry width="50" height="50" relative="1" as="geometry">
                        <mxPoint x="470" y="290" as="sourcePoint"/>
                        <mxPoint x="280" y="320" as="targetPoint"/>
                    </mxGeometry>
                </mxCell>
                <mxCell id="23" value="" style="shape=image;verticalLabelPosition=bottom;verticalAlign=top;imageAspect=0;aspect=fixed;image=data:image/png,iVBORw0KGgoAAAANSUhEUgAAAgAAAAIACAYAAAD0eNT6AAAACXBIWXMAAA/fAAAP3wHyuVZaAAAKvUlEQVR4nO3ZwW0bORiAUWqhQtxJvJ2kCx4tH9mFO4nTiTuZhYGctDkk2VnM2N97BdDET3n0iXPZtm0AAC1/OW8A6BEAABAkAAAgSAAAQJAAAIAgAQAAQQIAAIIEAAAECQAACBIAABAkAAAgSAAAQJAAAIAgAQAAQQIAAIIEAAAECQAACBIAABAkAAAgSAAAQJAAAIAgAQAAQQIAAIIEAAAECQAACBIAABAkAAAgSAAAQJAAAIAgAQAAQQIAAIIEAAAECQAACBIAABAkAAAgSAAAQJAAAIAgAQAAQQIAAIIEAAAECQAACBIAABAkAAAgSAAAQJAAAIAgAQAAQQIAAIIEAAAECQAACBIAABAkAAAgSAAAQJAAAIAgAQAAQQIAAIIEAAAECQAACBIAABAkAAAgSAAAQJAAAIAgAQAAQQIAAIIEAAAECQAACBIAABAkAAAgSAAAQJAAAIAgAQAAQQIAAIIEAAAECQAACBIAABAkAAAgSAAAQJAAAIAgAQAAQQIAAIIEAAAECQAACBIAABAkAAAgSAAAQJAAAIAgAQAAQQIAAIIEAAAECQAACBIAABAkAAAgSAAAQJAAAIAgAQAAQQIAAIIEAAAECQAACBIAABAkAAAgSAAAQNDVoXMma63HMcbjnluac972XG+ttet6Y4y3OefLXouttR7GGF/3Wu+Hlznn216LrbXe9/ew13rjY5zz65zzdec14Y8JAM7m/cv/aec97f0g33t/39+/YHdc7+F/2OP7F9duAfAjUL7suN74AOc8fswRTsErAAAIEgAAECQAACBIAABAkAAAgCABAABBAgAAggQAAAQJAAAIEgAAECQAACBIAABAkAAAgCABAABBAgAAggQAAAQJAAAIEgAAECQAACBIAABAkAAAgCABAABBAgAAggQAAAQJAAAIEgAAECQAACBIAABAkAAAgCABAABBAgAAgi7btjl3/mWt5YMBn8Sc8+IsuecGAACCBAAABAkAAAgSAAAQJAAAIEgAAECQAACAIAEAAEECAACCBAAABAkAAAgSAAAQJAAAIEgAAECQAACAIAEAAEECAACCBAAABAkAAAgSAAAQJAAAIEgAAECQAACAIAEAAEECAACCBAAABAkAAAgSAAAQJAAAIOiybZtzP5m11uMY4/HgXT2dbjDAn3o+eHKvc87Xg/fAnauBnNKjL2BgR2d4ngiAk/EKAACCBAAABAkAAAgSAAAQJAAAIEgAAECQAACAIAEAAEECAACCBAAABAkAAAgSAAAQJAAAIEgAAECQAACAIAEAAEECAACCrg6dz2rOeXG4/Fdrrc0Q+YzcAABAkBuAE5pz3sYYtyN35lcPfB5uw/gZNwAAECQAACBIAABAkAAAgCABAABBAgAAggQAAAQJAAAIEgAAECQAACBIAABAkAAAgCABAABBAgAAggQAAAQJAAAIEgAAEHR16PBr1lqbUZ3fnPNSnwH8CjcAABDkBuCE1lq3McZTfQ7APk5we/U857wdvAfuuAEAgCABAABBAgAAggQAAAQJAAAIEgAAECQAACBIAABAkAAAgCABAABBAgAAggQAAAQJAAAIEgAAECQAACBIAABAkAAAgCABAABBAgAAgq4O/ZTexhjfD97Yl5POBvh9Rz9P3g7++/yEADihOefLGOPlyJ2ttbazzgf4PXPORyPjnlcAABAkAAAgSAAAQJAAAIAgAQAAQQIAAIIEAAAECQAACBIAABAkAAAgSAAAQJAAAIAgAQAAQQIAAIIEAAAECQAACBIAABAkAAAg6OrQz2et9TDGeKjPAdjHWuvx4FG+zTnfDt4DdwTAOX0dYzzVhwDs5tvBo3weY9wO3gN3vAIAgCABAABBAgAAggQAAAQJAAAIEgAAECQAACBIAABAkAAAgCABAABBAgAAggQAAAQJAAAIEgAAECQAACBIAABAkAAAgCABAABBAgAAgq4O/ZRexhivB2/s20lnA/y+vw+e2dvBf5+fEAAnNOd8O/ofZq111vEAv2nOefQPCk7IKwAACBIAABAkAAAgSAAAQJAAAIAgAQAAQQIAAIIEAAAECQAACBIAABAkAAAgSAAAQJAAAIAgAQAAQQIAAIIEAAAECQAACBIAABB0dejns9b6Osb4Wp8DsI+11uvBo3yZc74cvAfuCIBzehhjfKkPAdjN0c+TowOEn/AKAACCBAAABAkAAAgSAAAQJAAAIEgAAECQAACAIAEAAEECAACCBAAABAkAAAgSAAAQJAAAIEgAAECQAACAIAEAAEECAACCBAAABAkAAAi6OvTzmXPexhi3Ize21tpOOh7gN805L2bGPTcAABDkBgB+kV9RwGfiBgAAggQAAAQJAAAIEgAAECQAACBIAABAkAAAgCABAABBAgAAggQAAAQJAAAIEgAAECQAACBIAABAkAAAgCABAABBAgAAgq4O/XzWWrcxxlN9DsA+1lrbwaN8nnPeDt4Dd9wAAECQGwA+rRP86gE4LTcAABAkAAAgSAAAQJAAAIAgAQAAQQIAAIIEAAAECQAACBIAABAkAAAgSAAAQJAAAIAgAQAAQQIAAIIEAAAECQAACBIAABB0dein9HqCTT2dYA/APp4PnuMZnmncuWzbZib8y1rLBwM+iTnnxVlyzysAAAgSAAAQJAAAIEgAAECQAACAIAEAAEECAACCBAAABAkAAAgSAAAQJAAAIEgAAECQAACAIAEAAEECAACCBAAABAkAAAgSAAAQJAAAIEgAAECQAACAIAEAAEECAACCBAAABAkAAAgSAAAQJAAAIEgAAECQAACAoMu2bc6d01hr3cYYT3vuZ8552XO9tdbe/zTf55yPey221npf69te6/3w95zzda/F1lrva33Za73xMc75ec5523lN+GNuAAAgSAAAQJAAAIAgAQAAQQIAAIIEAAAECQAACBIAABAkAAAgSAAAQJAAAIAgAQAAQQIAAIIEAAAECQAACBIAABAkAAAgSAAAQJAAAIAgAQAAQQIAAIIEAAAECQAACBIAABAkAAAgSAAAQJAAAIAgAQAAQQIAAIIEAAAECQAACLo6dE7m9QMcyPPO6739D+udfY8vH+Cs957hR/hsE3LZts15A0CMVwAAECQAACBIAABAkAAAgCABAABBAgAAggQAAAQJAAAIEgAAECQAACBIAABAkAAAgCABAABBAgAAggQAAAQJAAAIEgAAECQAACBIAABAkAAAgCABAABBAgAAggQAAAQJAAAIEgAAECQAACBIAABAkAAAgCABAABBAgAAggQAAAQJAAAIEgAAECQAACBIAABAkAAAgCABAABBAgAAggQAAAQJAAAIEgAAECQAACBIAABAkAAAgCABAABBAgAAggQAAAQJAAAIEgAAECQAACBIAABAkAAAgCABAABBAgAAggQAAAQJAAAIEgAAECQAACBIAABAkAAAgCABAABBAgAAggQAAAQJAAAIEgAAECQAACBIAABAkAAAgCABAABBAgAAggQAAAQJAAAIEgAAECQAACBIAABAkAAAgCABAABBAgAAggQAAAQJAAAIEgAAECQAACBIAABAkAAAgCABAABBAgAAggQAAAQJAAAIEgAAECQAACBIAABAkAAAgCABAABBAgAAggQAAAQJAAAIEgAAECQAACBIAABAkAAAgJoxxj+fJLQL3SHk7AAAAABJRU5ErkJggg==" parent="1" vertex="1">
                    <mxGeometry x="640" y="655" width="70" height="70" as="geometry"/>
                </mxCell>
                <mxCell id="25" value="" style="endArrow=classic;html=1;entryX=0.857;entryY=0.986;entryDx=0;entryDy=0;entryPerimeter=0;dashed=1;" parent="1" source="32" target="8" edge="1">
                    <mxGeometry width="50" height="50" relative="1" as="geometry">
                        <mxPoint x="593.25" y="570" as="sourcePoint"/>
                        <mxPoint x="708.1084337349398" y="532" as="targetPoint"/>
                    </mxGeometry>
                </mxCell>
                <mxCell id="26" value="&lt;font style=&quot;font-size: 27px;&quot;&gt;ESP32C3&lt;/font&gt;" style="text;html=1;strokeColor=none;fillColor=none;align=center;verticalAlign=middle;whiteSpace=wrap;rounded=0;fontColor=#FF0000;" parent="1" vertex="1">
                    <mxGeometry x="762.5" y="705" width="60" height="30" as="geometry"/>
                </mxCell>
                <mxCell id="28" value="1~3km&lt;br style=&quot;font-size: 27px;&quot;&gt;" style="text;html=1;strokeColor=none;fillColor=none;align=center;verticalAlign=middle;whiteSpace=wrap;rounded=0;fontSize=27;" parent="1" vertex="1">
                    <mxGeometry x="340" y="340" width="150" height="30" as="geometry"/>
                </mxCell>
                <mxCell id="29" value="&lt;font style=&quot;font-size: 27px;&quot;&gt;100m~300m&lt;/font&gt;" style="text;html=1;strokeColor=none;fillColor=none;align=center;verticalAlign=middle;whiteSpace=wrap;rounded=0;" parent="1" vertex="1">
                    <mxGeometry x="730" y="580" width="60" height="30" as="geometry"/>
                </mxCell>
                <mxCell id="35" value="" style="shape=image;verticalLabelPosition=bottom;verticalAlign=top;imageAspect=0;aspect=fixed;image=data:image/png,iVBORw0KGgoAAAANSUhEUgAAAgAAAAIACAYAAAD0eNT6AAAACXBIWXMAAA/fAAAP3wHyuVZaAAAKvUlEQVR4nO3ZwW0bORiAUWqhQtxJvJ2kCx4tH9mFO4nTiTuZhYGctDkk2VnM2N97BdDET3n0iXPZtm0AAC1/OW8A6BEAABAkAAAgSAAAQJAAAIAgAQAAQQIAAIIEAAAECQAACBIAABAkAAAgSAAAQJAAAIAgAQAAQQIAAIIEAAAECQAACBIAABAkAAAgSAAAQJAAAIAgAQAAQQIAAIIEAAAECQAACBIAABAkAAAgSAAAQJAAAIAgAQAAQQIAAIIEAAAECQAACBIAABAkAAAgSAAAQJAAAIAgAQAAQQIAAIIEAAAECQAACBIAABAkAAAgSAAAQJAAAIAgAQAAQQIAAIIEAAAECQAACBIAABAkAAAgSAAAQJAAAIAgAQAAQQIAAIIEAAAECQAACBIAABAkAAAgSAAAQJAAAIAgAQAAQQIAAIIEAAAECQAACBIAABAkAAAgSAAAQJAAAIAgAQAAQQIAAIIEAAAECQAACBIAABAkAAAgSAAAQJAAAIAgAQAAQQIAAIIEAAAECQAACBIAABAkAAAgSAAAQJAAAIAgAQAAQQIAAIIEAAAECQAACBIAABAkAAAgSAAAQJAAAIAgAQAAQQIAAIIEAAAECQAACBIAABAkAAAgSAAAQNDVoXMma63HMcbjnluac972XG+ttet6Y4y3OefLXouttR7GGF/3Wu+Hlznn216LrbXe9/ew13rjY5zz65zzdec14Y8JAM7m/cv/aec97f0g33t/39+/YHdc7+F/2OP7F9duAfAjUL7suN74AOc8fswRTsErAAAIEgAAECQAACBIAABAkAAAgCABAABBAgAAggQAAAQJAAAIEgAAECQAACBIAABAkAAAgCABAABBAgAAggQAAAQJAAAIEgAAECQAACBIAABAkAAAgCABAABBAgAAggQAAAQJAAAIEgAAECQAACBIAABAkAAAgCABAABBAgAAgi7btjl3/mWt5YMBn8Sc8+IsuecGAACCBAAABAkAAAgSAAAQJAAAIEgAAECQAACAIAEAAEECAACCBAAABAkAAAgSAAAQJAAAIEgAAECQAACAIAEAAEECAACCBAAABAkAAAgSAAAQJAAAIEgAAECQAACAIAEAAEECAACCBAAABAkAAAgSAAAQJAAAIOiybZtzP5m11uMY4/HgXT2dbjDAn3o+eHKvc87Xg/fAnauBnNKjL2BgR2d4ngiAk/EKAACCBAAABAkAAAgSAAAQJAAAIEgAAECQAACAIAEAAEECAACCBAAABAkAAAgSAAAQJAAAIEgAAECQAACAIAEAAEECAACCrg6dz2rOeXG4/Fdrrc0Q+YzcAABAkBuAE5pz3sYYtyN35lcPfB5uw/gZNwAAECQAACBIAABAkAAAgCABAABBAgAAggQAAAQJAAAIEgAAECQAACBIAABAkAAAgCABAABBAgAAggQAAAQJAAAIEgAAEHR16PBr1lqbUZ3fnPNSnwH8CjcAABDkBuCE1lq3McZTfQ7APk5we/U857wdvAfuuAEAgCABAABBAgAAggQAAAQJAAAIEgAAECQAACBIAABAkAAAgCABAABBAgAAggQAAAQJAAAIEgAAECQAACBIAABAkAAAgCABAABBAgAAgq4O/ZTexhjfD97Yl5POBvh9Rz9P3g7++/yEADihOefLGOPlyJ2ttbazzgf4PXPORyPjnlcAABAkAAAgSAAAQJAAAIAgAQAAQQIAAIIEAAAECQAACBIAABAkAAAgSAAAQJAAAIAgAQAAQQIAAIIEAAAECQAACBIAABAkAAAg6OrQz2et9TDGeKjPAdjHWuvx4FG+zTnfDt4DdwTAOX0dYzzVhwDs5tvBo3weY9wO3gN3vAIAgCABAABBAgAAggQAAAQJAAAIEgAAECQAACBIAABAkAAAgCABAABBAgAAggQAAAQJAAAIEgAAECQAACBIAABAkAAAgCABAABBAgAAgq4O/ZRexhivB2/s20lnA/y+vw+e2dvBf5+fEAAnNOd8O/ofZq111vEAv2nOefQPCk7IKwAACBIAABAkAAAgSAAAQJAAAIAgAQAAQQIAAIIEAAAECQAACBIAABAkAAAgSAAAQJAAAIAgAQAAQQIAAIIEAAAECQAACBIAABB0dejns9b6Osb4Wp8DsI+11uvBo3yZc74cvAfuCIBzehhjfKkPAdjN0c+TowOEn/AKAACCBAAABAkAAAgSAAAQJAAAIEgAAECQAACAIAEAAEECAACCBAAABAkAAAgSAAAQJAAAIEgAAECQAACAIAEAAEECAACCBAAABAkAAAi6OvTzmXPexhi3Ize21tpOOh7gN805L2bGPTcAABDkBgB+kV9RwGfiBgAAggQAAAQJAAAIEgAAECQAACBIAABAkAAAgCABAABBAgAAggQAAAQJAAAIEgAAECQAACBIAABAkAAAgCABAABBAgAAgq4O/XzWWrcxxlN9DsA+1lrbwaN8nnPeDt4Dd9wAAECQGwA+rRP86gE4LTcAABAkAAAgSAAAQJAAAIAgAQAAQQIAAIIEAAAECQAACBIAABAkAAAgSAAAQJAAAIAgAQAAQQIAAIIEAAAECQAACBIAABB0dein9HqCTT2dYA/APp4PnuMZnmncuWzbZib8y1rLBwM+iTnnxVlyzysAAAgSAAAQJAAAIEgAAECQAACAIAEAAEECAACCBAAABAkAAAgSAAAQJAAAIEgAAECQAACAIAEAAEECAACCBAAABAkAAAgSAAAQJAAAIEgAAECQAACAIAEAAEECAACCBAAABAkAAAgSAAAQJAAAIEgAAECQAACAoMu2bc6d01hr3cYYT3vuZ8552XO9tdbe/zTf55yPey221npf69te6/3w95zzda/F1lrva33Za73xMc75ec5523lN+GNuAAAgSAAAQJAAAIAgAQAAQQIAAIIEAAAECQAACBIAABAkAAAgSAAAQJAAAIAgAQAAQQIAAIIEAAAECQAACBIAABAkAAAgSAAAQJAAAIAgAQAAQQIAAIIEAAAECQAACBIAABAkAAAgSAAAQJAAAIAgAQAAQQIAAIIEAAAECQAACLo6dE7m9QMcyPPO6739D+udfY8vH+Cs957hR/hsE3LZts15A0CMVwAAECQAACBIAABAkAAAgCABAABBAgAAggQAAAQJAAAIEgAAECQAACBIAABAkAAAgCABAABBAgAAggQAAAQJAAAIEgAAECQAACBIAABAkAAAgCABAABBAgAAggQAAAQJAAAIEgAAECQAACBIAABAkAAAgCABAABBAgAAggQAAAQJAAAIEgAAECQAACBIAABAkAAAgCABAABBAgAAggQAAAQJAAAIEgAAECQAACBIAABAkAAAgCABAABBAgAAggQAAAQJAAAIEgAAECQAACBIAABAkAAAgCABAABBAgAAggQAAAQJAAAIEgAAECQAACBIAABAkAAAgCABAABBAgAAggQAAAQJAAAIEgAAECQAACBIAABAkAAAgCABAABBAgAAggQAAAQJAAAIEgAAECQAACBIAABAkAAAgCABAABBAgAAggQAAAQJAAAIEgAAECQAACBIAABAkAAAgCABAABBAgAAggQAAAQJAAAIEgAAECQAACBIAABAkAAAgCABAABBAgAAggQAAAQJAAAIEgAAECQAACBIAABAkAAAgJoxxj+fJLQL3SHk7AAAAABJRU5ErkJggg==" parent="1" vertex="1">
                    <mxGeometry x="190" y="315" width="70" height="70" as="geometry"/>
                </mxCell>
                <mxCell id="38" value="LTE&amp;nbsp;&amp;nbsp;gateway" style="text;html=1;strokeColor=none;fillColor=none;align=center;verticalAlign=middle;whiteSpace=wrap;rounded=0;fontSize=27;fontColor=#66B2FF;" parent="1" vertex="1">
                    <mxGeometry x="670" y="199.5" width="350" height="30" as="geometry"/>
                </mxCell>
                <mxCell id="39" value="" style="shape=image;verticalLabelPosition=bottom;verticalAlign=top;imageAspect=0;aspect=fixed;image=data:image/png,iVBORw0KGgoAAAANSUhEUgAAAgAAAAIACAYAAAD0eNT6AAAACXBIWXMAAA/fAAAP3wHyuVZaAAAKvUlEQVR4nO3ZwW0bORiAUWqhQtxJvJ2kCx4tH9mFO4nTiTuZhYGctDkk2VnM2N97BdDET3n0iXPZtm0AAC1/OW8A6BEAABAkAAAgSAAAQJAAAIAgAQAAQQIAAIIEAAAECQAACBIAABAkAAAgSAAAQJAAAIAgAQAAQQIAAIIEAAAECQAACBIAABAkAAAgSAAAQJAAAIAgAQAAQQIAAIIEAAAECQAACBIAABAkAAAgSAAAQJAAAIAgAQAAQQIAAIIEAAAECQAACBIAABAkAAAgSAAAQJAAAIAgAQAAQQIAAIIEAAAECQAACBIAABAkAAAgSAAAQJAAAIAgAQAAQQIAAIIEAAAECQAACBIAABAkAAAgSAAAQJAAAIAgAQAAQQIAAIIEAAAECQAACBIAABAkAAAgSAAAQJAAAIAgAQAAQQIAAIIEAAAECQAACBIAABAkAAAgSAAAQJAAAIAgAQAAQQIAAIIEAAAECQAACBIAABAkAAAgSAAAQJAAAIAgAQAAQQIAAIIEAAAECQAACBIAABAkAAAgSAAAQJAAAIAgAQAAQQIAAIIEAAAECQAACBIAABAkAAAgSAAAQJAAAIAgAQAAQQIAAIIEAAAECQAACBIAABAkAAAgSAAAQNDVoXMma63HMcbjnluac972XG+ttet6Y4y3OefLXouttR7GGF/3Wu+Hlznn216LrbXe9/ew13rjY5zz65zzdec14Y8JAM7m/cv/aec97f0g33t/39+/YHdc7+F/2OP7F9duAfAjUL7suN74AOc8fswRTsErAAAIEgAAECQAACBIAABAkAAAgCABAABBAgAAggQAAAQJAAAIEgAAECQAACBIAABAkAAAgCABAABBAgAAggQAAAQJAAAIEgAAECQAACBIAABAkAAAgCABAABBAgAAggQAAAQJAAAIEgAAECQAACBIAABAkAAAgCABAABBAgAAgi7btjl3/mWt5YMBn8Sc8+IsuecGAACCBAAABAkAAAgSAAAQJAAAIEgAAECQAACAIAEAAEECAACCBAAABAkAAAgSAAAQJAAAIEgAAECQAACAIAEAAEECAACCBAAABAkAAAgSAAAQJAAAIEgAAECQAACAIAEAAEECAACCBAAABAkAAAgSAAAQJAAAIOiybZtzP5m11uMY4/HgXT2dbjDAn3o+eHKvc87Xg/fAnauBnNKjL2BgR2d4ngiAk/EKAACCBAAABAkAAAgSAAAQJAAAIEgAAECQAACAIAEAAEECAACCBAAABAkAAAgSAAAQJAAAIEgAAECQAACAIAEAAEECAACCrg6dz2rOeXG4/Fdrrc0Q+YzcAABAkBuAE5pz3sYYtyN35lcPfB5uw/gZNwAAECQAACBIAABAkAAAgCABAABBAgAAggQAAAQJAAAIEgAAECQAACBIAABAkAAAgCABAABBAgAAggQAAAQJAAAIEgAAEHR16PBr1lqbUZ3fnPNSnwH8CjcAABDkBuCE1lq3McZTfQ7APk5we/U857wdvAfuuAEAgCABAABBAgAAggQAAAQJAAAIEgAAECQAACBIAABAkAAAgCABAABBAgAAggQAAAQJAAAIEgAAECQAACBIAABAkAAAgCABAABBAgAAgq4O/ZTexhjfD97Yl5POBvh9Rz9P3g7++/yEADihOefLGOPlyJ2ttbazzgf4PXPORyPjnlcAABAkAAAgSAAAQJAAAIAgAQAAQQIAAIIEAAAECQAACBIAABAkAAAgSAAAQJAAAIAgAQAAQQIAAIIEAAAECQAACBIAABAkAAAg6OrQz2et9TDGeKjPAdjHWuvx4FG+zTnfDt4DdwTAOX0dYzzVhwDs5tvBo3weY9wO3gN3vAIAgCABAABBAgAAggQAAAQJAAAIEgAAECQAACBIAABAkAAAgCABAABBAgAAggQAAAQJAAAIEgAAECQAACBIAABAkAAAgCABAABBAgAAgq4O/ZRexhivB2/s20lnA/y+vw+e2dvBf5+fEAAnNOd8O/ofZq111vEAv2nOefQPCk7IKwAACBIAABAkAAAgSAAAQJAAAIAgAQAAQQIAAIIEAAAECQAACBIAABAkAAAgSAAAQJAAAIAgAQAAQQIAAIIEAAAECQAACBIAABB0dejns9b6Osb4Wp8DsI+11uvBo3yZc74cvAfuCIBzehhjfKkPAdjN0c+TowOEn/AKAACCBAAABAkAAAgSAAAQJAAAIEgAAECQAACAIAEAAEECAACCBAAABAkAAAgSAAAQJAAAIEgAAECQAACAIAEAAEECAACCBAAABAkAAAi6OvTzmXPexhi3Ize21tpOOh7gN805L2bGPTcAABDkBgB+kV9RwGfiBgAAggQAAAQJAAAIEgAAECQAACBIAABAkAAAgCABAABBAgAAggQAAAQJAAAIEgAAECQAACBIAABAkAAAgCABAABBAgAAgq4O/XzWWrcxxlN9DsA+1lrbwaN8nnPeDt4Dd9wAAECQGwA+rRP86gE4LTcAABAkAAAgSAAAQJAAAIAgAQAAQQIAAIIEAAAECQAACBIAABAkAAAgSAAAQJAAAIAgAQAAQQIAAIIEAAAECQAACBIAABB0dein9HqCTT2dYA/APp4PnuMZnmncuWzbZib8y1rLBwM+iTnnxVlyzysAAAgSAAAQJAAAIEgAAECQAACAIAEAAEECAACCBAAABAkAAAgSAAAQJAAAIEgAAECQAACAIAEAAEECAACCBAAABAkAAAgSAAAQJAAAIEgAAECQAACAIAEAAEECAACCBAAABAkAAAgSAAAQJAAAIEgAAECQAACAoMu2bc6d01hr3cYYT3vuZ8552XO9tdbe/zTf55yPey221npf69te6/3w95zzda/F1lrva33Za73xMc75ec5523lN+GNuAAAgSAAAQJAAAIAgAQAAQQIAAIIEAAAECQAACBIAABAkAAAgSAAAQJAAAIAgAQAAQQIAAIIEAAAECQAACBIAABAkAAAgSAAAQJAAAIAgAQAAQQIAAIIEAAAECQAACBIAABAkAAAgSAAAQJAAAIAgAQAAQQIAAIIEAAAECQAACLo6dE7m9QMcyPPO6739D+udfY8vH+Cs957hR/hsE3LZts15A0CMVwAAECQAACBIAABAkAAAgCABAABBAgAAggQAAAQJAAAIEgAAECQAACBIAABAkAAAgCABAABBAgAAggQAAAQJAAAIEgAAECQAACBIAABAkAAAgCABAABBAgAAggQAAAQJAAAIEgAAECQAACBIAABAkAAAgCABAABBAgAAggQAAAQJAAAIEgAAECQAACBIAABAkAAAgCABAABBAgAAggQAAAQJAAAIEgAAECQAACBIAABAkAAAgCABAABBAgAAggQAAAQJAAAIEgAAECQAACBIAABAkAAAgCABAABBAgAAggQAAAQJAAAIEgAAECQAACBIAABAkAAAgCABAABBAgAAggQAAAQJAAAIEgAAECQAACBIAABAkAAAgCABAABBAgAAggQAAAQJAAAIEgAAECQAACBIAABAkAAAgCABAABBAgAAggQAAAQJAAAIEgAAECQAACBIAABAkAAAgCABAABBAgAAggQAAAQJAAAIEgAAECQAACBIAABAkAAAgCABAABBAgAAggQAAAQJAAAIEgAAECQAACBIAABAkAAAgJoxxj+fJLQL3SHk7AAAAABJRU5ErkJggg==" parent="1" vertex="1">
                    <mxGeometry x="827" y="325" width="100" height="100" as="geometry"/>
                </mxCell>
                <mxCell id="40" value="" style="shape=image;verticalLabelPosition=bottom;verticalAlign=top;imageAspect=0;aspect=fixed;image=data:image/png,iVBORw0KGgoAAAANSUhEUgAAAgAAAAIACAYAAAD0eNT6AAAAGXRFWHRTb2Z0d2FyZQBBZG9iZSBJbWFnZVJlYWR5ccllPAAAA3ZpVFh0WE1MOmNvbS5hZG9iZS54bXAAAAAAADw/eHBhY2tldCBiZWdpbj0i77u/IiBpZD0iVzVNME1wQ2VoaUh6cmVTek5UY3prYzlkIj8+IDx4OnhtcG1ldGEgeG1sbnM6eD0iYWRvYmU6bnM6bWV0YS8iIHg6eG1wdGs9IkFkb2JlIFhNUCBDb3JlIDUuNi1jMTExIDc5LjE1ODMyNSwgMjAxNS8wOS8xMC0wMToxMDoyMCAgICAgICAgIj4gPHJkZjpSREYgeG1sbnM6cmRmPSJodHRwOi8vd3d3LnczLm9yZy8xOTk5LzAyLzIyLXJkZi1zeW50YXgtbnMjIj4gPHJkZjpEZXNjcmlwdGlvbiByZGY6YWJvdXQ9IiIgeG1sbnM6eG1wTU09Imh0dHA6Ly9ucy5hZG9iZS5jb20veGFwLzEuMC9tbS8iIHhtbG5zOnN0UmVmPSJodHRwOi8vbnMuYWRvYmUuY29tL3hhcC8xLjAvc1R5cGUvUmVzb3VyY2VSZWYjIiB4bWxuczp4bXA9Imh0dHA6Ly9ucy5hZG9iZS5jb20veGFwLzEuMC8iIHhtcE1NOk9yaWdpbmFsRG9jdW1lbnRJRD0ieG1wLmRpZDowMjE0NTc3Zi04MmQ2LTA4NGQtYTlmMS1kMDc0M2FiYjA1OGQiIHhtcE1NOkRvY3VtZW50SUQ9InhtcC5kaWQ6OTQ4RDJGMzRCRjVFMTFFNTg0MEVEQkU2REM3QTkxQUQiIHhtcE1NOkluc3RhbmNlSUQ9InhtcC5paWQ6OTQ4RDJGMzNCRjVFMTFFNTg0MEVEQkU2REM3QTkxQUQiIHhtcDpDcmVhdG9yVG9vbD0iQWRvYmUgUGhvdG9zaG9wIENDIDIwMTUgKFdpbmRvd3MpIj4gPHhtcE1NOkRlcml2ZWRGcm9tIHN0UmVmOmluc3RhbmNlSUQ9InhtcC5paWQ6MDIxNDU3N2YtODJkNi0wODRkLWE5ZjEtZDA3NDNhYmIwNThkIiBzdFJlZjpkb2N1bWVudElEPSJ4bXAuZGlkOjAyMTQ1NzdmLTgyZDYtMDg0ZC1hOWYxLWQwNzQzYWJiMDU4ZCIvPiA8L3JkZjpEZXNjcmlwdGlvbj4gPC9yZGY6UkRGPiA8L3g6eG1wbWV0YT4gPD94cGFja2V0IGVuZD0iciI/PpNX8NsAAAe+SURBVHja7NzBbYNAFEXREE0BKSElpAS7JK/4O3v5y3AnUAIluAR3QNhm4SiRMB4x50goOyIelnyVkdLN8/wGALSlEwAAIAAAAAEAAAgAAEAAAAACAAAQAACAAAAABAAAIAAAAAEAAAgAAEAAAAACAAAQAACAAAAABAAAIAAAQAAAAAIAABAAAIAAAAAEAAAgAAAAAQAACAAAQAAAAAIAABAAAIAAAAAEAAAgAAAAAQAACAAAQAAAgAAAAAQAACAAAAABAAAIAABAAAAAAgAAEAAAgAAAAAQAACAAAAABAAAIAABAAAAAAgAAEAAAgAAAAAEAAAgAAEAAAAACAAAQAACAAAAABAAAIAAAAAEAAAgAAEAAAAACAAAQAACAAAAABAAAIAAAAAEAAALACgAgAAAAAQAACAAAQAAAAAIAABAAAIAAAAAEAAAgAAAAAQAACAAAQAAAAAIAABAAAIAAAAAEAAAIAAHAbj7MXWcEfsjMYflxWPGWY9/3R8uyB+8mAAABAAAIAABAAAAAAgAAEAAAgAAAAAQAACAAAAABAAAIAABAAAAAAgAAEAAAgAAAAAQAACAAAAABAAACAAAQAACAAAAABAAAIAAAAAEAAAgAAEAAAAACAAAQAACAAAAABAAAIAAAAAEAAAgAAEAAAAACAAAEAAAgAAAAAQAACAAAQAAAAAIAABAAAIAAAAAEAAAgAAAAAQAACAAAQAAAAAIAABAAAIAAAAAEAAAIAABAAAAAAgAAEAAAgAAAAAQAACAAAAABAAAIAABAAAAAAgAAEAAAgAAAAAQAACAAAAABAAAIAAAQAABAY4oJ2IvMvFihSreIuJoBBAA8y9kEVRqXSwBAZRwBAIAAAAAEAAAgAAAAAQAACAAAQAAAAAIAABAAAIAAAAAEAAAgAAAAAQAACAAAQAAAAAIAABAAAIAAAAABAAA0opgAHpqW69Tgcw9ePQgAaNk9IsbWHjozvXlogCMAABAAAIAAAAAEAAAgAAAAAQAACAAAQAAAAAIAABAAAIAAAAAEAAAgAAAAAQAACAAAQAAAAAIAABAAACAAAAABAAAIAABAAAAAAgAAEAAAgAAAAAQAACAAAAABAAAIAABAAAAAAgAAEAAAgAAAAAQAACAAAEAAAAACAAAQAACAAAAABAAAIAAAAAEAAAgAAEAAAAACAAAQAACAAAAABAAAIAAAAAEAAAgAAEAAAIAAAAAEAAAgAAAAAQAACAAAQAAAAAIAAKhQMQHwZJ+ZeXnV7zY/CADgdV/CZzNAXRwBAIAAAAAEAAAgAAAAAQAACAAAQAAAAAIAABAAAIAAAAAEAAAgAAAAAQAACAAAQAAAAAIAABAAAIAAAAABAAA0opgAeLJpuU47eZa714kAAPjjl2ZEjHt5mL7vvVF2wREAAAgAAEAAAAACAAAQAACAAAAABAAAIAAAAAEAAAgAAEAAAAACAAAQAACAAAAABAAAIAAAAAEAAAgAABAAAIAAAAAEAAAgAAAAAQAACAAAQAAAAAIAABAAAIAAAAAEAAAgAAAAAQAACAAAQAAAAAIAABAAACAAAAABAAAIAABAAAAAAgAAEAAAgAAAAAQAACAAAAABAAAIAABAAAAAAgAAEAAAgAAAAAQAACAAAEAAAAACAAAQAACAAAAABAAAIAAAAAEAAAgAAEAAAAACAAAQAACAAAAABAAAIAAAAAEAAPyimAC2k5mXlW95i4irZQEBAHU7r3y/cbkEAPBvjgAAQAAAAAIAABAAAIAAAAAEAAAgAAAAAQAACAAAQAAAAAIAABAAAIAAAAAEAAAgAAAAAQAACAAAQAAAgAAAABpRTACbOq58v7tJAQEAlYuI0QpADRwBAIAAAAAEAAAgAAAAAQAACAAAQAAAAAIAABAAAIAAAAC25F8Bw4Yyc1j5llNEnCwLCACo28EEQA0cAQCAAAAABAAAIAAAAAEAAAgAAEAAAAACAAAQAACAAAAABAAAIAAAAAEAAAgAAEAAAAACAAAQAACAAAAAAQAANKKYALYTEZ0VAH8BAAAEAAAgAAAAAQAACAAAQAAAAAIAABAAAIAAAAABAAAIAABAAAAAAgAAEAAAgAAAAAQAACAAAAABAAAIAABgM8UE8NBXZg5mAAQAtOVjuQ5mAPbIEQAACAAAQAAAAAIAABAAAIAAAAAEAAAgAAAAAQAACAAAQAAAAAIAABAAAIAAAAAEAAAgAAAAAQAACAAAEAAAQCO6eZ6tAAACAAAQAACAAAAABAAAIAAAAAEAAAgAAEAAAAACAAAQAACAAAAABAAAIAAAAAEAAAgAAEAAAIAAEAAAIAAAAAEAAAgAAEAAAAACAAAQAACAAAAABAAAIAAAAAEAAAgAAEAAAAACAAAQAACAAAAABAAAIAAAQAAAAAIAABAAAIAAAAAEAAAgAAAAAQAACAAAQAAAAAIAABAAAIAAAAAEAAAgAAAAAQAACAAAQAAAgAAAAAQAACAAAAABAAAIAABAAAAAAgAAEAAAgAAAAAQAACAAAAABAAAIAABAAAAAAgAAEAAAgAAAAAEAAAgAAEAAAAACAAAQAACAAAAABAAAIAAAAAEAAAgAAEAAAAACAAAQAACAAAAABAAAIAAAAAEAAALACgDQmG8BBgC0rD5xXt71agAAAABJRU5ErkJggg==" parent="1" vertex="1">
                    <mxGeometry x="870" y="270" width="80" height="80" as="geometry"/>
                </mxCell>
                <mxCell id="45" value="" style="shape=image;verticalLabelPosition=bottom;verticalAlign=top;imageAspect=0;aspect=fixed;image=data:image/png,iVBORw0KGgoAAAANSUhEUgAAAgAAAAIACAYAAAD0eNT6AAAAGXRFWHRTb2Z0d2FyZQBBZG9iZSBJbWFnZVJlYWR5ccllPAAAA3ZpVFh0WE1MOmNvbS5hZG9iZS54bXAAAAAAADw/eHBhY2tldCBiZWdpbj0i77u/IiBpZD0iVzVNME1wQ2VoaUh6cmVTek5UY3prYzlkIj8+IDx4OnhtcG1ldGEgeG1sbnM6eD0iYWRvYmU6bnM6bWV0YS8iIHg6eG1wdGs9IkFkb2JlIFhNUCBDb3JlIDUuNi1jMTExIDc5LjE1ODMyNSwgMjAxNS8wOS8xMC0wMToxMDoyMCAgICAgICAgIj4gPHJkZjpSREYgeG1sbnM6cmRmPSJodHRwOi8vd3d3LnczLm9yZy8xOTk5LzAyLzIyLXJkZi1zeW50YXgtbnMjIj4gPHJkZjpEZXNjcmlwdGlvbiByZGY6YWJvdXQ9IiIgeG1sbnM6eG1wTU09Imh0dHA6Ly9ucy5hZG9iZS5jb20veGFwLzEuMC9tbS8iIHhtbG5zOnN0UmVmPSJodHRwOi8vbnMuYWRvYmUuY29tL3hhcC8xLjAvc1R5cGUvUmVzb3VyY2VSZWYjIiB4bWxuczp4bXA9Imh0dHA6Ly9ucy5hZG9iZS5jb20veGFwLzEuMC8iIHhtcE1NOk9yaWdpbmFsRG9jdW1lbnRJRD0ieG1wLmRpZDo0NTVhNDY2Yy01YjliLTNhNDQtODI3My1mNWEzYzUzYjA4MDEiIHhtcE1NOkRvY3VtZW50SUQ9InhtcC5kaWQ6OTI5ODM1QUVCRjVFMTFFNTg4QkY4RTExN0Y4MUE0QTgiIHhtcE1NOkluc3RhbmNlSUQ9InhtcC5paWQ6OTI5ODM1QURCRjVFMTFFNTg4QkY4RTExN0Y4MUE0QTgiIHhtcDpDcmVhdG9yVG9vbD0iQWRvYmUgUGhvdG9zaG9wIENDIDIwMTUgKFdpbmRvd3MpIj4gPHhtcE1NOkRlcml2ZWRGcm9tIHN0UmVmOmluc3RhbmNlSUQ9InhtcC5paWQ6NDU1YTQ2NmMtNWI5Yi0zYTQ0LTgyNzMtZjVhM2M1M2IwODAxIiBzdFJlZjpkb2N1bWVudElEPSJ4bXAuZGlkOjQ1NWE0NjZjLTViOWItM2E0NC04MjczLWY1YTNjNTNiMDgwMSIvPiA8L3JkZjpEZXNjcmlwdGlvbj4gPC9yZGY6UkRGPiA8L3g6eG1wbWV0YT4gPD94cGFja2V0IGVuZD0iciI/PhKuNs4AACtrSURBVHja7N3bdRPJvgfgZq953yaCLSIYEwEiAkwEyBEAb7wBb37DjsByBJgI0ESAJgI0EYxPBJwuXJ4x4Issq7v+1f19a3l5zj6AWtWX+tW1H3z79q0BAMblgQAAAAIAACAAAAACAAAgAAAAAgAAIAAAAAIAACAAAAACAAAgAAAAAgAAIAAAAAIAACAAAAACAAAgAAAAAgAACAAAgAAAAAgAAIAAAAAIAACAAAAACAAAgAAAAAgAAIAAAAAIAACAAAAACAAAgAAAAAgAAIAAAAAIAAAgAAAAAgAAIAAAAAIAACAAAAACAAAgAAAAAgAAIAAAAAIAACAAAAACAAAgAAAAAgAAIAAAAAIAACAAAIAAAAAIAACAAAAACAAAgAAAAAgAAIAAAAAIAACAAAAACAAAgAAAAAgAAIAAAAAIAACAAAAACAAAgAAAAAKAUgAAAQAAEAAAAAEAABAAAAABAAAQAAAAAQAAEAAAAAEAABAAAAABAAAQAAAAAQAAEAAAAAEAABAAAEAAEAAAQAAAAAQAAEAAYP2CffCg1887ODjYaX/t5p+dn/7fi/Zn+ebNmzNnBqiNekoAEACurvT32p8X7c90jb+ybH9O2p+5MABc8UzZzc+SJ7khMf3p+ZGeG3+0P6ftM2QpAAgAFAgA7Y36rv318orW/roO25/3ggDQPk9m+Xmye4e/tsoNisOunyPqKQFAAPg3oR/f8Ua9Trpp99ub99QZg1FW/NP8PJnc8zmSGhOHAoAAQEcBIKf0D/do9V8n3bzvnDUYVeWfniWvtvhPnuYGxdZ7A9RTAsCoA0Cu/I87POQ0L2DfmYPBV/w7+Vmy18E/n+YFPN12CFBPdeM/iqCKG3baceWfzHLIAIatq8o/SUOTn3PIQABgC2n9Y18PhjzHABjm8+RDh5X/5RDwUWkLANxfF2P+t7UOgOFV/tNmu2P+N5m2n/dKqQsAbH7DTtpfs54/dtdQAAxS3+H+raEAAYB73ECFPveloodBNSZSqJ/0/LGp8v+g9AUA6mj9X+4FMBcAhqNUqN/TCyAAUE/r/58b1ymAwTQmSgX6VPmbCyAAUEnr/8ITZwIGoXSYf6kXQACgntZ/U7DFAGzX74U/Xy+AAMCarf+dJkb3u8QOwzAJcAwvnAYBgNu9UvkCAwsAE8uLBQAkZWB8ASB561QIAFyj0FpdYNjOghzHJO9GiABA8Nb/mdMBg7AMdCw2GRMAuKL1n2bdR0rHS2cF9ABs2V5e5owAQOBk/IdTAoMQ7V6eOSUCAP+2/qMs/bvs1JmBQVgEOx4TnQUALkmVf6Slf8s3b94YAoAByPfyKtAhpcmAthoXAMiidf8fOSUwKO/1AvCzB9++fVMKXRTsgwdr/bk8+e9LoENftS2GR84gDEv7rPnaxFpm/Kh91qzW+YPqKT0AQxUtCb93SmCQToIdj2EAAWD0ZsFa/3OnBAbpsIm1JNCeAIUZAuiqYNcYAsgTYT4GOuz9aAEgl1F6NfF1+yQsmvMJTp/aY7dygT6uyYtVO5Pm6tdmp2V3aeLdor0mz4Id+7sm1pa8j9eZcKye6sZviqCoZ4GO5SxK5Z8fsK9yC+G21REXoWDW/r30sE3f4WjdsUW4w3U5zdfk3prXZPo7p/l6XATqBYgUAF40Nh0rxhBA+VZEFEdByiVV/F/zQ+quSyMvgsOX3NKBrVT87c/n9j8/b3DPpj//Of39POG3qNwjMQ9UvOYBCACjFG3t/2HpQNT+pOGQD1sol/T337b/3pcctGDT6/Jdrvin9/ynpoGCaaSJvpMIwUgAoG+Ruv/nJccqcyW9SevqNrv5oesBwybX5XGz/e7yt/nfLdkLsGpi7Q5oTwABYHSmgY6l2PKgS5V/V5X0pP35qCeADSr/WUf//Kx0CGhibfZlGEAAGNXDJVL3/7LwBKXjDiv/yyHgsyuPNe/PD033y3NnJYcD8oqZVZAiNwwgAIxKpO7/Yi2BHIT6Sv+7JgayxjU5bc4nkvbhbf68UiJtDGQYQAAYjUhdXkXWzucu+b67QV96Fzm3OB745102D1TuU5eeADCGFkbq6orS/V9y8t+rAuXwfXWAq5Br7s1Z0/9e+ZP8ub0LNhlwVzgXAMYgUlfXp4Kt/1LbgJpwxHXejuxzk0jDAO5NAWDwpkGOY1Vw69xZU64XZMe7yLkilO425d6UV6wXoDkfAoyyXfETV6IAMOSHTKr0osx2LblvfumXgDxzNRKs9VnknshDgKfOgQDAuC7wIl1/hcZZf2lxuRQJ1vrcLbgi4FOUk1B4VYQAwKAfMhdW67yBa6Ct/8RDhl8q4ADHUKoXINIwgHtTABisKBd3qaV/0ybOEAhcFmFlzl7BmfBRhgEMz/XI64D7q/zSjT0JcjilZv7a7KPc9Xd5/slVc1EWl1qECyVWtBfgdYHPTcMAswDfPw2F7JR8N4kAwJBb/0W6/3MFNHMZ9BY20/X2e67o17n23l76++lXegAv888fKSB4KPdiViIApGGAfN4j2G1ivaxIAODeooz/l7qxVP7dVvrpofkiV/bbGGbZyf9W+nmVP2OZW4qnBeeQDF1apjpry3de4LPTMECEicpTAUAAGJooY9+lZvxG6v4fxMPlUq9K6jae9HQNp5+3OQwc5TAwhJ6BRROnly6Ng88LPRsiBAD7AfTEJMD+HtQhAkCJzX9y6zTS5L9l5dfTJL9O9mv786EpM7cknc/vx5BesjSA1y2vAh1LqcmAUYLxtEEA0PofzA0ebfLfH7UGyUsVf2r5R6h0L96vUHsQiHZN9N4Sz+8GWAa51q0WEgAGI0qiLdX9H2kDpLOCWyDf54H46lLFH9HlIDCr8B6NtBa+ZGjWCyAAsGWjnQBYeI/1qxxVVvGnZVFfmvOu/hpa199f89we8+ea3u4WbEvcpNTb8aL0hPyu2hAAhiJCd9ZZoZnbkbr/00P+sLJW/+emzs2TUgvuS2UvXnof7HhKlF2UHgBDAAJA/XKKj9ByK3VjR6oAjmqYsX5prL+WVv9NvQEf2+/yoZJegFVTZvZ9mPCc748I8wAEAAFgECZBjuPPAhVZtO7/efSLJU+iS63+2YDugVd5SKCGMBOpF2C3UJktgtwLQoAAUL1pkONYjPi7f6/8cwsvcuWfHnhfBtr6SddC+BCQr5FFoEMq0YMWZR6AACAAVO9/QR5sJR5qkV7sEXryX678U8t/MuB7YbeGEBDsWikxgTjKPhlDvhcEgJGIkGJL7f0fpQdgGXnr2jxPJFX+OyO5H0KHgLxMdDXWHoDcCxJhrowdAQUAAWALSrT+p4HOQdjWf64IP46k8q+pJ+AkyHHsFBoLXwT47noABIB6BVoH/dfI03vkjX9qXea3jRBwHPj45oGOpUSY/jPA9xYABICqRbmAS3R/R6nU5lGX/uXlcWOe6JT2vH8X8cCCTQYc7TyA9vqYNggAFbdyIjzMSjzIoty4nyJeGHmDnFduke9vFoz6kI8yDFCifKLMmdlxiwgAtYpw8a5GnNpD7vufx76P3R7/OA46HyDKtbPT93BioCWzlgIKANWKMA6+GvFNG3Xs/1jL5gepcnsb7aDy0NFixL0AEb77f90eAgCbK7Gpx5MRf/fbWv+p63/PZfmLV0GHAqIMIZV4OU6EXgA9AAJAtSI80ErcxBM9ANf64La41tuAxxSlB6BERfhXgO+tp0wAoLIAEGLzo2iz//Pb/SYuyesDc1tGs0gHlDeQGmtL2EuBBAA2fNhHuXCXPX/vqZbbleWyE7SFqxegjmtpp8BEyTOXowDAhjdskBZM3zdxlBZutPH/vUZ35lrXT7RegGakL8cptHw4cqNCAKCqAFCiCy9KAFgEux60/tf3ItjxRFkTrzscAaASEW7WEl14vwf43qtI4/+5BTNxS6xtGuld8IFeJFWiUbEc6fcWAKjeaqQ3a7Q3/71wKVZfZosAx1BieW2EIK3nQwCoToQNLP4a6c36Z5SLIE/cmrkd7izaXgnLkZ6HlUtRAEBqrakHYBGoPKZuhY1MIg0DNDHWxE9H+r0RAIjeagn0+uNIy5eeuQwH0QuwdDqKeaIIBADiV4QhAkCgSVt6AIYTnlYRDqJAyF65DAUA7s7M1RE/qC89rCdOycYirQSIcl0JAAgAHl6+cwUPLLOX7x+ipsIlCADcvdWy6Pkj9XoIAEMuwwgBwD2GAADXiLQF8O9Ox739TxGMPlROnXYBAGqjtTasCm90KwGivA8AAQC0XCjp/xQBAgBczXpdhCgQAKCIhSIAEAAAAAEAABAAAEAAAAAEAKiT3fcABAB6FmGjFJvvuKYAAYCe2ShF5bVtZ4oABABQeY3PKtCxjG6jq4ODA0NqAgBUI9ILePQA3N9fiqBoINpxHwkASO+1iDQH4E9X4b0tXFtFA0AEetIEAEm9ggfWYoTfWctlPGWoOxwBAEk9sDAP6Tdv3iy1Xu53D7VlqPzKtoatqhEAIOTD6UoHBweTQGWycFnUX3btNTUNFCpHGagRALibXh9aBR5O14kUAP5wGW7sU6BjmTgdxRhKEwCqs1IExURqtZw6HRsHykhlFyEAlKgI/xvge9tfRACoToTlSyVu3kWA7x1mKWBbia0awwCbmAc7ngh7AJQYYjMEIACgJex738OJS/HOPrmmQvQARLByOwgALto6RBjzjhYAThurAe5070Tq/s+TSiPMhv+/kd5LAoAAIABsYFrgM6OsBJhGuRDyUra5W2JtR1r/V1oU+EzLAAUAWFuUbsppsHI5cmmsHSCjhaUngcqmzxAdJfhYBSAAqAgraQlHuVlDvbglTwbUC7BGUAq4+c80yDXU9721E+R7Gz4TAOoS6KLdKfC9Vx7aV3rfmAtwWwv3MNIBtQE63T8RWsKLkd5DK7eFAKAXYHO7Y71p24f3XsBeAEMB13sdsLUX5RoqcU/9d6TfWwBgay2a0kqsiY+y+12497e3Fdw7D7WrW7ht2cwDHtezIMdR4s2SVgAIAFTeA7Az0u8dqfX2s323xq+t/6DHNY0SkEYaAP5yawgAtYqwhWWJB9giSPlPAs1kvtwLkMrn0O3xb+Uf6D0S/8hDSFEmwi17/u47Qb67HgABQA/APW/mXivBQBMBkxcRL4y2jF43ljclp21ZRA1DUbr/x9r6FwAEgKpFuXgnI+4F2At8fTxvxr0qIAWgkMMhuQUc5dopMafGHgACAPds5UW5eEvczFEmAk6irQa4dH2kgPh0pCEgfef9wGu8w3T/FwrTEV6odWYPAAFAL8D9lZgNvwh0Dl5EvThySHw9snsiPdSfRhz3j3jN5DkjY+wB0PoXAASALZgWat2GWQ2QX+gSNQTMm3GtDHgeufLPc2amQQ5nUeD7R9n8SAAQAKoXoiu80Gz4SL0As8gXyUhCQGr5Py7Uor2Ll4GOpcRrkaOM/1sCKABUb8zzACK90/1l9Aslh4Chzgmoodv/ovUbKSyWCEtTz04BgO1YBTmO3ucB5JZemHcitA/3WfSLJZfZ02ZYy5+WueVfwwP9VaRnR6EyexLoukEAqFegh16pVH8a6HS8reiaeRys7DY1zy3/8IEmt/4j9RSVOv8RegBWVgAIAEOxCHAMk0IT4SINA0xq6AXIISAtgUr7BKQVAjU+CNMxp8l++xU9yFPrfyfQ8ZwUCEHTIN9d618AGIzR9gK0D//TYBXY25ounLxL3uMm1oTKdVquj/K5r0mk1n+p7v8oAeDPBgFgIKJczKXG9iJVBCHfD3BLCEiVQZoXkHoEVsGDburuf15b922kff8L3zNRxv9rCrwCAFVczKV2xPsU7Hzs1XgRpRZ1+/OoOV8uGCkIpGNJXf01LPG7zrNgx1Oi+38nSg9AxdeRAMCvLbgmRjf4TonWb8BhgCeVX0/zS0Gg5IPyNLf4H+UljDWL1Cu0HHn3v/H/nvymCHrtBYjQ8twrdIOlCiLKEqvdIVxQudKd58mds9yK7fq7LXPr9LSGmf2VXhMnhT53zG8/FADo1B9BAkC6yd8V+NyjQAFgZ0gXVq6I0zl9l8NAask9yb8n9/znV/mBnK7fxcAq/e9y13ck80KfG6UHwARAAWCQPQAhWjqpkuj7QZ4+r/3cRaCHzCDl8zq/qEQu7es+uRQGrhoCObv04E3/xmpE47CRWv/zEhMo89DgJEgZ6AEQAAb3YF62N9lZkNZn6ok4LPC5JwJA79fdmQdqVUp1/0d5++FqiL1MUZkEOM5kW+Rmz2PWbm6ihaQo9+Wy4LFEWRkjrAoAg/VHkOPYLfh63JMA318IIaKjEh8arPv/k8tAANADMNzEn4YeSi8JtMyIaPfmquBSyhfOgwBAx/La3iitz1LDAKnyL70z4B+uRoJdEyV7xqJ0/y+9AEgA0NLoR8lhgPeFv/upy5BA10Sq9EpMyr14+c8kyDnQ/S8ADF6ki7zIy08uLVUr8qA3y5grrsnUO1dqaOioYMs3Uve/YN4zywDH2wOQpK6/1wV7AWYlHrZbbkGl1tPn9H0GsB1uFdoyTxtKpbc6PtpyxZmuyY8jav3vNHG6/88KbX+sB4BeWxoRxsAvTPJb0Er1AvT94DvtYJlV6kVJIeC4Lcuv7c/MVd5ZhTVLZdz+54fmfD+N2ZavydMCAb1k6z/SGxC1/gWA0Yg0DFCyCzC1uPpK/ekhu9/RQ/SfQHUpCExd5luv+I+bH8eru7h295v+VqmkSW/vChbty0Cn2fh/AQ++ffumFLoo2AcPbnqgpYfY10CH+6jUuHheg/y5h5bI4213MeZK/vMNfyS1Jt97tem9yvfnSr/zazf34hz3EEgflWr95/vuS5BTnbr/H970B9RTegAGIz+wIo13zQqWRSqHpx23uvY7Gl+8rQX6PSC0D9vPegTuVvGnMsvhatJ3KzbP5djv8Cuma/1p4SVvkVr/ArIAMDongY6l6MOgwxCQ/r3nXUzOu+MEqosg8LHg0svaKv51A9NeR9fkRQjY9jW5zJX/smA5b33+xD3p/hcARifSpJed0pPX8gPx0RbLJbUqHueJXV3YZAJV+jtpfsCxIPBDhZQmo368Y8V/obOJrDkEPG2211t3Wrryz14FOv2RJkWPjjkAXRXsDXMALj34NnngdSVtRfooSkuwOZ/pvclrWldND0vytnTu5vlYV2Ot+Jvz5Xz3DZ/pFbr7HR/rLB/rJsFt0QSaC5InVEYJoGudO/WUADDEAJAeKseBDvtppAlrOQi8yBXt5JZKPx33pw5b/D9XXNuaxJlaQGlvgsOxbIO6xYr/sod9lF/ubXjW3N4DtMzX5Emk9e0BnznP17ln1VMCwBADQHqA/B3osBftzfg0aKWxc02PQO/vD88b0XzY8j87+CDQUcV/Yb/vjZjy97kqmIbd0z5Y6//W2f8CgAAw2ACQb8iPTZzduML1Aoz0IZoqssEMDeQlZy+bbieehQ2vgc5Des58DHRIKeyutROpeqobtgIu7yRYAEgtNAHg5sqs6xZUqijT5jfpPJzUuMXwpVUSqeLf7eEj0wqCifc83OhlsOM5cUr0AIy6B6CnFuVdPfIgvfZcHTf9L6G6mCndyxyHLbQy1xkj78L7wjvrRT4v0+bmTav6loZJHq/7h9VTegCGLD3UIy3NSb0A+07LlUr01uxc6hW4CAPp/fWnpcea8zj4NFf606bs3vJpwqgAcP09rfWPHoCAPQDpIfo12Fd4OJZZ6Xc4T6kSPg52WBezzf/Mraplx2WQuvPTz5Pm9tUZJZjDcvU5+xLssO70fFFP6QEYrNTdnsd7p4EOK1V2h87OD54FPKaLCvniYd/kQHCWQ8FZ8+9GNreumPhpZvtubtH/nv+33QrO0YvGHJaf7QU7nrnGhQDAj06CBYAnAsAPFWOkd6ffZnrdgz8HhKFXdoavfr2Xoz3rCMBWwHF6AebN+YY2kVqW/GumCKpQfFvrwIEwgqUhGgGA+Ml44nT84IUiqMYzRXAu4DsnjpwVAYCr6XKP+RD9YZyd8Pa8bClkkD+rcU8LAYBe5IkxbhCtf7YQAhRBOFr/AgC3eK8Iwpkpguq8VATh6OEUALilF2DVWMYURt7ZbkdJVGeSh27G/jyJ8iyx9E8AoKJegKXT8J0JZfUydHMuQsWrZ1MA4A6pvXRyX4z9POS1/zNXZLWcuxj38ty7RQQA6krMfzgFJpJVbicP4Yzdp8Kfb+MfAYCKegHOor91ricmktXPMMD5y6NKWdj4RwBgM0cj+9ww8jpya//rt5eHcsbcmCi5vNjYvwDAhjfuaYFegPSwsFxH639IZorge0Xc92TAU61/AYD7ed3z5+1brnPeclQEgzH6YYA8Ca/Pnr2zAs8uBIDB3bjLHm+kubH/793/08a7EIZk19bA358l75r+ehRfm/kvALCdGzd1yc87/pg+g4YWI30zpHPuedP9Hh+H9vwXANhuCNjvMASkB8JTXf//rP3X/T88zmnzz4TApx2GgFT5a0gIAHQUAl53cMM+Vvn/UFHY+nd4JvYE+CUEbHO4L/2b+yp/AYBub940HPC4uf9Y3iq3+t2wP9L9P1y2db4UAtqfNBzwPD8L7iM9ix7r9q/Pg2/fvimFLgr2wYPOPyNPVnvZ3K17M3X9HblZryzPSfvrq5IYtId6u6689mf5WXKXvS/SM+Skj6V+6ikBQAC4/uZNXdbTfPM+uabS/7M535Vr5excW46v2l8flMSg7Qu/t4bg1KD4vbl6Jcwf+Xmy6DNIqacEAAGArh9+XxvL/4YuVVxPFUNd1FMCgABAl5V/6j35oiRG4ZGeMAEAkwDhgnXi4zFTBCAAwAVLxMbDSg8QAOCfGdDW/o/HJK+gAQEARs76cL0AIADAyFr/tv4dJ+ccAUARMHIzRTBKO3noBwQAGKlIXcFpW+ZH+Xfap30IO9ad5e+yn7/bYaBjM/TDqNkHoKuCtQ9AeAHX/v+yPj0f47Q53+Ex/fckeLGm4087xaUd49KmO8vaypx41FMCgADAtgNA2vb3VZDDOc0vZ7ntmHdyEEih4H85EEwLHfMiV/h/5f9errM9bPsdvjR323O+S6/zC7YQAEbnN0XAiM0CHcundf5QrmAXzU9vg7wUDHYuVa6/Nz8ub1w3KCx+atH/lf87tebP1q3ob3ASKACkDaAEAPQAoAdgRK3/NAv8Y5DDSa9mfTiisk+h5O9Ah/T456EK9ACMgUmAjFWkCWCnYyr43HsQ6TvbEwABAEbUAp0FOqSjEZ6Gk0DHMnNXIADAOETaBGY1xu7n9jtHWua4k4eEQACAgYv05r+TEZ8HwwAgAEA/2pbepIkzAz2Zj/h0RBr62MtDQyAAgNZ/5xZj3oQmD31E+v4ztwcCAAxXpLHeE6cjVC+AYQAEABii/A74SZDDibYUrpRIZbCbh4hAAICBidTCO73nbnqDkIdAIoWAl24TBAAYVus/TfCK1P3/yVkJWRaWAyIAwMCkB3uUWd6rvA6ec5H2BJjYEwABAIYlVPe/0/GvgFsDP3NWEABgAPLErmmgQzpyVn4RamtgewIgAMAwROrSXY557f8NvQCLJtaeAIYBEABgACLN7Nb6r6MXwJ4ACABQs4ODg7Tt7yTQIRn/v9480LFM7QmAAABa/1ur/K39v14eGon0ZsSZs4IAAPWy9W9dbA0MAgDcz8HBQWrBRZnNfWbt/1oildEkbx8NAgBUJtJ67rnTcbs8RBKprPQCIABAZa3/aFv/6v5fn62BQQCAjc0CHUta+790StbuBUjDAKsgh7OTh5JAAIBKROq61fq/O1sDgwAAd5PX/u+qzKoWKTTt2ROAIfpNEaD136k0qe24rUCclbqluQCHigEBAGKbBTqWNBlx6pRU76UAwNAYAmBQ8rvcvcmNbZvkoSUQACAoE7boij0BEAAgaOs/tfxnSoKOuLYQACAom7bQpZ08xAQCAATzUhHQMcMADMaDb9++KYUuCvbBA4XQo7xO+6uSoAcPvda5X+opPQCg9U8EM0WAAABxGJulL4YBEAAggvzO9omSoCe7tgZGAAAtMsbJkBMCABRu/ae1/7r/6ZtrDgEAAjyIbf1L3yb2BEAAgLJ0/1OKbaepmn0AuipY+wB0ztp/ArAnQA/UU3oA4Ge6YHENggDACJmJTWmGoKiWIYCuCtYQQKfyu9m/KAkCePTmzZuVYuiOekoPAGj9E9FMESAAQH+MvRKFYQCqZAigq4I1BNCZg4OD1OI6DnI4Z2/evHnorPR+DaS9H/4OdEhP2+tg4cx0Qz2lBwAuhFp/nQMJ/Uo9QJGW3+kFQA8AegBG1vK7sGp/3retwLmz1Om5T2Erzf+YBDs8PUF6AAQABICOK4FX7a8PgQ9REOim4n+VK/7I2z7vO+8CQE1+UwRUJnpXa2qZHreVVgopR+3PoZ3iBl/xX0hDUwIAegD0AOgB6KBCqHHt/5kgMPiK/zJ7AugB0AMAI2z9XyVVYG9TZdZWbILAzRX/pPl3jL/WNzymyYmHziZ6APQAsN0K4u+m/lf/6hG4uuJ/2wxjQ51Ve14fOat6AAQAAYDtVRKpZfVxQF8pVf7zFAbG2mU8sIr/ssftOV26awWA6AwBUIuhvXv9Ypz7VVsRpiDwfixBYMAV/4U0VCUAoAdADwBbqDCirv3ftkEHgRFU/BfsCaAHQAAQANhSxZEqjOMRfeVBBYH2/E1zxT8d0Tl83p6/U3evABCZIQBqMLY3/6XAM8tDA0e1jiePtOK/kIYBBAD0AOgB4B6VyKT99XXkxbDIPQILFX9VHlrpoQdADwBo/d9HqkinbcUaOgio+H8xa+wJgAAAG9tTBLGDQJ6j8ULF/4sXAgCRGQLoqmANAWyrRflZSVyraBDIFX9q8U+cimvZGngL1FN6ABhnC4rbewRWTY9vIFTx30kawnqtGNADoAeA9SuZtPY/Tf7bURpr6zQIqPg3Oye2BtYDIAAIANy9sjlWEmWDQA5ieyr+e7EngAAQkiEAotL9v7lUUR+3lffbTYNA5a/kjSZtYy0AoAdADwBrVD6pAou09j914U4rbgWnHoH0BsL5bevSB1DxL9qfk/ydI00gtSeAHgA9ALCGSEv/lnkWd2pFzysdB0/H+iEdd3v8V76KeCAV/w8rIvLkyEmga3ru1kYAgJtF2vzn6PL/kbvT55VuerOTj/nlRRDI//ugKv5LTvL3jeCFAEA0hgC6KlhDABtpK6bd9teXQId0Y9dt5bvfnV0KBkOq+C/OTWr9hxpKsifAZtRT3fiPIkDr/1qnt43bpgqo/Xna/ufTXCnVZKfCyj9Npnuayvy2DZByZRvpRUoztzeRGAIgmkjj/yfr/sFcGS3sh9+ZebPZK5LTUEeU5aRpGOCdU0kUhgC6KlhDAHcWbO3/WVvZPLzHd5nmB75WX5mK/+I8pB6OvwN9n6e1vNUxEvVUNwwBEMmzYBXPxvLQwH5zvoRw7tRuVP5pzHz/PuPmeQgnUvnb3wIBAK5oqVXZ/X9LBbQSBPqv+H/yKdD383ZLwjAE0FXBGgK4awBIS9E+BDmctPb/cUffc9KczxGYOev/SK30i42KVh2Ve1oNMAnyfff7enHTUKinumESIFFE6ho96eofzhXcflshvc9BILUIx7rV7kXFf9jDLnlp9cCrIN87DXUJAOgB0ANAwLX/va3XHume+31W/KO/xvQAcB1zAND6/6ml2OeDOVWA7c+75nyOwPvm3815hlrxv8+V37s+98ZvPyvtBxBpTwBzASjOEAARzAIdS5EJY7kyfNe2VA8H2COwatZ8GVHH0tDObpAySef30K1PSYYAuipYQwBraSu81BL6GKWFep+1/1sul4uhgbeVn+IwE94C7gnwOPdMcAv1VDcMAVBapLX/kd7ZnoLRENaMv80bPBWXex8inWN7AlCUIQBKt8hmgQ7pKEirP1UMk4Gc5vQ9jtvvlnoy3gfoDThp4oy/p2v/tScBpRgC6KpgDQGsU+GlB2CUrX/Thj2PClf8Y1gJsCodBNry/jtQOT9vy+LU0+Bm6ik9AAxPpDf/nfT9gSNdAnjRI5A2fep1KeAlp02cnqcXTaxhCfQAoAeg88ovVQSjfFf7SCv+69gToGkeFl4doQdgpEwCROu/aRZ9VP4p9OSWbwo+b1X+3+3ksvjals27HI46lWferwKVwcxlgADAmAzuxT+3VPzHueJ/peIPEQSOAn13qwEowhBAVwVrCOCmCnHa/voc5HBS1+ujLrpgvfjn3ucljY2/76J3ZsxDUDVST+kBYDiibf271cr/pxa/yn/zHoFZ7hE4zhX21uTKNtLku5dOOQIAQ2/9pwd7pO7/T1v8bir+bnQVBD4F+o7eDYAAwOBFev3tahtrsNOQRvvzWcVfXRBI5z7K7PtJ3hYbBAAGK1T3/5Yq/vQzrew8pIovvYxmXnkQ2LjcA24N/MzjgT6ZBNhVwZoEeFWFOWkGMPEqVzpvK6z0Lyr+H9bdD2Cy4qI5nyy42PBcfg70XewJcAX1lAAgANQfANISuA9BDmfZPmgfj7nivyagpRBQ6wZFGwWB9nunUDoJ8h3CvD1RABg+WwHTp0gznddeB57fWZCOfbfCMl97p73cG5LW4KehgRp3KkzBLA3L3DUInDRxXruchsgEAPQA6AEYVOu/uu1Xc8X/tqnzzXz33mJ3AFsWrxUE7AmgB0AAQADoNgCk5XGzIIeT1v4/H2jFv2q2/La9AQSBW8uk/Y4pnEbp4UnH+s5TQwDomiEA+hJ+618V/9VyD8LF0MAsB4Gayigda1ox8PaGMkq9JVFeTZ2GAQQA9ADoARhE638W6OF61lYAD39q3e6p+Dc6p4Mps3wd/B3oGJ9usqpBDwACgAAQLQB8DNQDkMbEX4+hW1sQuFsZBhummrfHte/pIQAIAAJAzZV/uJZVcz5bvOaJbUfb2MFQEPghCJzk3yF7qgQA9ZQAIADUGAAirf3//mBtRrTGXRCo+tqwJ4AA0CmTAOlatHed11b5V1HxX8gV1rzSTZOiXRtpa2ABAD0AegCqbP1HW/uv4u//GqgxCERiTwA9AHoA0PofiTS2fzSUGeD5eywEgY2lybOHigEBgNrMFMHa5rnFP8jWniCwsZcCAF0xBNBVwY58CCC/2/yjK2HcFf8N18durtyExNs9bq+P5ZgLQD2lB4C6eLe5iv+mHoFUoe23QeB9U/eriPuQhtKWigE9AHoAamjdRVv7r+KPf81MBIFrjX5PAPWUACAA1PMwTw/xY1fBvw/w5p5v5hMERu95tM2fBID6GQKgCy8VgYp/E7ln5PLQQJpLsqNkvg8DnCoG9ADoAYjegvs68tOv4t/e9VT7Oxu26eFYryf1lB4AtP5V/OPrEbj8KuKxB4FZY0kgegD0AARusaXW/2RkX3vV/qQu61MVvx6BDi3b6+uxHgAEAAEg4sN52v76PLaK3wtbBIEejXJrYPVUNwwBsE1j2fpXxV/YxdBAcz48MGvqfQPhXaXA89oVgB4APQDRWmRfB94aU/HHvgbHEARW7fX3SA8AAoAAEO3hO9S1/2kXtiMVvyAQxOj2BFBPdcMQANsyxO7/RTOAV/KOTQ5q8wEHgbTNtj0B0AOgByBEiys9YIe09l/FP7wegRRQpwP6WqPaE0A9pQeAuPZU/FTQIzBthvMq4nTPzZ1dBABKq33zHxX/OIJAOr+LgQSBFwIA92UIoKuCHckQQH6v+5dKD3/eeDPfaA0gCIxmTwD1lB4AtP5V/HTVI5Cu49qGsmbN+V4IIABQRE0PTRU/NwWBSVPXq4hfCADchyGArgp2BEMAFa39V/Fzl+u6piDwdAxzV9RTegCI51ngYzvLFf+Rip879gik62W/DQLvKwgCqRdg4ayhB0APQJ+tpLTl799BK36v5GUsPQJn7XX+UA8AAoAA0OdDMb2J7YOKnxEFgahvINwf+jbV6qluGAJgU5G2/k0Pv9cqfrp08QbCNggcNudzX6JMgH3W2BMAPQB6AHpqCUVb+//IOD/ugeHeA+qpbvxHEVB56/9U5U+B3oD0hshloEPac1YQAOjDLNCxfHI6KOQk0LG8dDoQAOjUwcFBamlEmQB1NvTJT4QW6dqb5GEJEADoTKS1/96JTjF5UmCka/CFs4IAQFet/9TynwU6pCNnhcIiDQPMnA4EALoSaaLRKk/EgpK9AKkHIMry0508RAcCAFsXaaLRidNBEIYBEAAYrrwdaqRJRnNnhSAiDUXt5aE6EAAYZOt/Ye0/UeShqEjX48xZQQBgqy2LQMei+x+9ANczDIAAwHYcHBxM21+TIIcTbekVNMGuyd08ZAcCAINqUZx66Q/R5CGpSCHAzoAIANy79Z8mFEXq/rf1L1FFujYtB0QAYCsPkiizild53TVEFGlPgIk9ARAAuK9Q3f9OB1EF3Br4mbPCTX5TBNzij/wTwdzpILi0GuAvxUANHnz79k0pAIAAAAAIAACAAAAACAAAgAAAAAgAAIAAAAAIAACAAAAACAAAgAAAAAgAAIAAAAAIAACAAAAACAAAIAAIAAAgAAAAAgAAIAAAAAIAACAAAAACAAAgAAAAAgAAIAAAAAIAACAAAAACAAAgAAAAAgAAIAAAAAIAACAAAIAAAAAIAACAAAAACAAAgAAAAAgAAIAAAAAIAACAAAAACAAAgAAAAAgAAIAAAAAIAACAAAAACAAAgAAAAAIAACAAAAACAAAgAAAAAgAAIAAAAAIAACAAAAACAAAgAAAAAgAAIAAAAAIAACAAAAACAAAgAAAAAgAACAAAgAAAAAgAAIAAAAAIAACAAAAACAAAgAAAAAgAAIAAAAAIAACAAAAACAAAgAAAAAgAAIAAAAAIAAAgACgFABAAAAABAAAQAACA+v2/AAMAdP8BTyMDoBoAAAAASUVORK5CYII=" parent="1" vertex="1">
                    <mxGeometry x="876.5" y="50" width="179.5" height="179.5" as="geometry"/>
                </mxCell>
                <mxCell id="46" value="" style="shape=image;verticalLabelPosition=bottom;verticalAlign=top;imageAspect=0;aspect=fixed;image=data:image/png,iVBORw0KGgoAAAANSUhEUgAAAgAAAAIACAYAAAD0eNT6AAAAGXRFWHRTb2Z0d2FyZQBBZG9iZSBJbWFnZVJlYWR5ccllPAAAA3ZpVFh0WE1MOmNvbS5hZG9iZS54bXAAAAAAADw/eHBhY2tldCBiZWdpbj0i77u/IiBpZD0iVzVNME1wQ2VoaUh6cmVTek5UY3prYzlkIj8+IDx4OnhtcG1ldGEgeG1sbnM6eD0iYWRvYmU6bnM6bWV0YS8iIHg6eG1wdGs9IkFkb2JlIFhNUCBDb3JlIDUuNi1jMTExIDc5LjE1ODMyNSwgMjAxNS8wOS8xMC0wMToxMDoyMCAgICAgICAgIj4gPHJkZjpSREYgeG1sbnM6cmRmPSJodHRwOi8vd3d3LnczLm9yZy8xOTk5LzAyLzIyLXJkZi1zeW50YXgtbnMjIj4gPHJkZjpEZXNjcmlwdGlvbiByZGY6YWJvdXQ9IiIgeG1sbnM6eG1wTU09Imh0dHA6Ly9ucy5hZG9iZS5jb20veGFwLzEuMC9tbS8iIHhtbG5zOnN0UmVmPSJodHRwOi8vbnMuYWRvYmUuY29tL3hhcC8xLjAvc1R5cGUvUmVzb3VyY2VSZWYjIiB4bWxuczp4bXA9Imh0dHA6Ly9ucy5hZG9iZS5jb20veGFwLzEuMC8iIHhtcE1NOk9yaWdpbmFsRG9jdW1lbnRJRD0ieG1wLmRpZDoyYzMwYWMyOS00MWQ2LWE0NDQtYTI0Mi05NGQ4ODE5ODA3MjUiIHhtcE1NOkRvY3VtZW50SUQ9InhtcC5kaWQ6OURFNjVCNkVCRjVFMTFFNUI1MkRDNEE0RjZBOENCQUQiIHhtcE1NOkluc3RhbmNlSUQ9InhtcC5paWQ6OURFNjVCNkRCRjVFMTFFNUI1MkRDNEE0RjZBOENCQUQiIHhtcDpDcmVhdG9yVG9vbD0iQWRvYmUgUGhvdG9zaG9wIENDIDIwMTUgKFdpbmRvd3MpIj4gPHhtcE1NOkRlcml2ZWRGcm9tIHN0UmVmOmluc3RhbmNlSUQ9InhtcC5paWQ6MmMzMGFjMjktNDFkNi1hNDQ0LWEyNDItOTRkODgxOTgwNzI1IiBzdFJlZjpkb2N1bWVudElEPSJ4bXAuZGlkOjJjMzBhYzI5LTQxZDYtYTQ0NC1hMjQyLTk0ZDg4MTk4MDcyNSIvPiA8L3JkZjpEZXNjcmlwdGlvbj4gPC9yZGY6UkRGPiA8L3g6eG1wbWV0YT4gPD94cGFja2V0IGVuZD0iciI/PnwHuY0AABYFSURBVHja7N3bdRNJAoDh9h7exxsBIgJMBIgIMBEgIrD9pjfjN/FkiMAiAjwRIEeAJoIRGWgi8FaNS7MwBnxT9aXq+87po5mzs7Jdbqv+rm6pdy4vLxsAoC47AgAABAAAIAAAAAEAAAgAAEAAAAACAAAQAACAAAAABAAAIAAAAAEAAAgAAEAAAAACAAAQAACAAAAABAAACAAAQAAAAAIAABAAAIAAAAAEAAAgAAAAAQAACAAAQAAAAAIAABAAAIAAAAAEAAAgAAAAAQAACAAAEAAAgAAAAAQAACAAAAABAAAIAABAAAAAAgAAEAAAgAAAAAQAACAAAAABAAAIAABAAAAAAgAAEAAAIAAAAAEAAAgAAEAAAAACAAAQAACAAAAABAAAIAAAAAEAAAgAAEAAAAACAAAQAACAAAAABAAAIAAAQAAYBQAQAFS/U+zsPPg5ZrPZOP3j2IjCvazDtoz/MJ1OF4ajH0qaMwUAWwmAMOHvhYfXacLfM4qwdTEGfg/bPATBynAIAAFApwEQJv5JeDgw6UOr4orAiZUBASAAaD0A0hL/qYkfOg+BoxACS0MhAO7qP36d3FWY/OPE/9nkD52LIf4l/E2+NRRYASDbCkB4kdkND58aF/ZBH83TasDaUFgBEABsLQDS5O+oH/otngp4IQIEwG04BcCNTP4wGPFv9JNhQACwLWcmfxiMcbpOBwQADzr6PwwP+0YCBuUw/O36u+WXXAPA9Z0iXQMQXkBG4eFL2HaNCgxOvA7giesBtss1ANTi2OQPgxX/dg8NA1YAuNMKQDr6/9NogFUArABQlwNDAEWsAkwMAwKAu/CiAWV4bQgQANxK+px/5/6hDHvplB4IAG40NgTgbxoBQH2eGwIoylNDgADgNiz/Q1l8kicCAC8WIOpBAACIegQAACAAAAABAAAIAABAAAAAAgAAEAAAgAAAAAQAACAAAAABAAAIAABAAAAAAgAAEAAAgAAAAAQAAAgAAEAAAAACAAAoyCNDQOHWYVt29LXHW36+Vdr6bC9su1t+zkUhvz8QAJBZnPA/hu18Op12NmHOZrPLLT/lx/DzvO3zwIef+fO2J87wM7/o8OcZhYf9sB2EbeRPCwEA/RQn+6MwYZwbCrYUH3Gfeh+3EAOT8HjabH+FAzrhGgBKESf9ZyZ/MsbAPDw8abo7pQQCAP5lHl6cX4VtbSjIHAFxH4unJBZGAwEA3VqGF+U3hoGWI+CVlQAEAHRn80IMXUSA8EQAQEc+dHmVP9VHQFwBmBsJBAC0770hoGMnhgABAO06d9EfPVgFWDWuBUAAQKv+MAT0xMIQIADAiy5iFAQAQAVWhgABAAAIAABAAAAAAgAAEAAAgAAAAAQAACAAAAABAAAIAABAAAAAAgAAEAAAIAAAAAEAAAgAAEAAAAACAAAQAACAAAAABAAAIAAAAAEAAAgAAEAAAAACAAAQAACAAAAArtu5vLw0Cnzn3bt3Q9gp5mH72vPv8XjLz7cI20XPf+bXYRtt+TlPev4zPw7bpO9/MNPpdMer28OVNGc+8utkoCYV/szjtNXm2O4O2+cUAAAIAABAAAAAAgAAEAAAgAAAAAQAACAAAAABAAAIAABAAAAAAgAAEAAAgAAAAAQAACAAAAABAAAIAAAQAABAJR4ZAgbqKGxLw0AP7IXt1DAgAKAdy+l0ujAMdG02mxkEBskpAAAQAACAAAAABAAAIAAAAAEAAAgAAEAAAAACAAAQAACAAAAABAAAIAAAAAEAAAgAAEAAAAACAAAQAAAgAAAAAQAACAAAQAAAAAIAABAAAIAAAAAEAAAgAAAAAQAACAAAQAAAAAIAABAAAIAAAAAEAAAgAABAAAAAAgAAEAAAgAAAAAbtkSFgoD7PZjOjUIHpdLpjFMAKAAAgAAAAAQAACAAAQAAAAAIAAAQAACAAAAABAAAIAABAAAAAAgAAEAAAgAAAAAQAACAAAAABAAAIAABAAAAA9/TIEDBQ87B97fn3eLzl51uE7aLnP/PrsI3sniAAIJeP0+l00edvcDabbTsALsLP/LbnP/NzAQDD4BQAAAgAAEAAAAACAAAQAACAAAAABAAAIAAAAAEAAAgAAEAAAAACAAAQAACAAAAABAAAIAAAAAEAAAgAABAAAIAAAAAEAAAgAAAAAQAACAAAQAAAAAIAABAAAIAAAAAEAEC/jQwBAgDas2cIEAAgAKjPc0NAT7w0BAgAaM/+bDbbNQx0KeyD8ejfahQCAFp2aAjo2LEhQABA+w6sAtDh0X888p8YCQQAtC9O/p8MAx1M/nHfOzMSCADozji8GHshpm2njXP/DNwjQ0ABJiEC4uPRdDpdGw5aOPLfNxpYAYCeREDYPocX6LGhINPkH/etLyZ/rABA/+ylCFiEx49hO7ciwBaO+OOEf9BY8qcwO5eXl0aB77x7966knWKVti6MC/pZ7hJh235nxqKjn2XUFPQpfyGGd7y6PVxJc6YAoPQAAK4HVVwZ+yNsyxiVIQ6WhkUAgACAesMghsBF/GenzwQAAgCo0zJFwUWIgXPDIQAQAECdYgT83lR+ca0AQAAANYsrA1W+00YAIAAArszjykAtpwkEAAIA4HursH2IQVDyqoAAQAAA/Fic/ONqwEkIgZUAEAAIAKA+89JCQAAgAAAqDAEBgAAAqDAEBAACAOB+4jUC8WLB90O8WLCkOdPtgAFoU7xZ1HHYvsxmM7dWtgKAFQCgUvEdA0dDOS1gBQAAtmM/rQYcGgorAFgBAOq0CNubPq8GWAEAgO0bN64NEAAAVCleJPgpRMBZ2HYNhwAAoC6TsH0OETAyFAIAgLrsNU4JZOMiQK5xESB0apW2Zdj++ubfo/V0Ol3+7P8YJso4YW6WzUdp+y1NpJt/H6r4VsH3XX8TPgkQAQBsa7JfhO2POOGHCW6R+wuGSBinIHiaHvcGNF7xVsNvBIAAQADA0GxulXsRJ/4+vN0tXWgXo+Bleuz7KkGMpFddfYywAEAAAHc5yo+T/sdfLd/3RTqNEM+5v+5xDMRxfNFFBAgABABwmyP9D0OY9G+IgRgCk+b/1xZUHQECAAEA/GxSipP+vLQfLMTAJMXAuGeh9aLNyBIACADgW5uj/UXpP2haFThIqwLVRYAAQAAAUTzSPxnKney2HAKj5uq2vn0IgRgBT9o4HSAAEABQt3ik/6bGib/HIdDKNQECAAEAdYqTzFENS/33CIFxCoFxyRFQ0pz5yG4LcKM4oZz04ZPo+ipF0SJdLHjadPOugXh9wuewPfMbuZl7AQD8WrzA75nJ/9YhMA8PT9K4dWEv3knQb+JmTgFwjVMA8M9RfzzPf24o7ifdxOeso9WAuGLzdttPWtKcaQUA4LpFOuo3+T9sNeC8w9WAY3cRtAKAFQDo/MjRasDssLm6NqBNW/+MACsAAOWJk8Urk3+21YB4DcWzNM5tiaceztINjxAAANds3j5myT9vBMRxfpLGuy3xnQGnRl8AAPxs8l8ailYi4O9l+ebqUxTbMklvT+QbrgHgGtcAUJF5mJDeGIZupLfrtTUxx/B49tBPb3QNAIDJn4evBsTxb+vzFf6+HsCoCwDA5G/y70cEHIWHtn4X4/RuBAQAYPKnBxEwbzECjtMNjASAIQBM/vQkAk5a+FJOBQgAwORPzyLgbdPOuwPG3hUgAIA6LE3+g4mANy1FwGntHxAkAIDiJ//m6n3nDMdRk//DguLkX/UFgQIAKNnmjn5rQzGoVYDNhwXl/r1VfUGgAABK9sYn/A0+AnI7FgAAZTnx2f6Dj4AYb0eZv0z8mOCxAAAow8Jd/YqJgPhJgblDrspVAAEAlObv8/6GoSjx97nK+PzjGlcBBABQmqOH3vCF3q0CtBF11a0CCACgJOfpE+UoLwIWTd4bB8VVgD0BADA88SjxyDAU7aTJ+9bAAwEAMMDJwdJ/8asAuU8FTGr6XAABAJRgma4Wp/wIiO8IWOSMAAEAMByW/v2+t6Wa0wACABi6RbpAjHpWAeIHBM0zPf1uLXcKFADA0HnPf51OMj73awEA0G9zF/5VuwqwyhgB4xouBhQAgKNAhirnhZ/7AoAaWVJlCM4d/Ve/ChDfFjjP9PTFnwYQAPzoj2ouAhiAD4aAJt8q0F7pnwwoABABDNHSlf+k16pVk+9ugWMBgAgAR//Utz8UfRpg5/Ly0q7D9zvFzs53/57eE3tmZOiJdYjT/xoG/vU69Wd4GGV46iffXmtS0pxpBQArAQzNuSHgBz5met5xqQMmABABDI3lf35knul5XwoARIAIoHur9DGw8O/Xp1V4yLFvWAEAEUAPWP7nV3KcBtgt9e2AAgARQO0v8AjEKlcBBAAigKFYW/7nhtelVZPnNMBTAQAigPKO7ijLwgqAAEAEUJYLQ8At/J7hOUez2WxXAIAIoJwjO8p7Pcq1nxR3IaAAQAQwBCt3/qPjWBQAIAJw9E/P5Thd9FgAgAigfX8YAu4gxzsBrACACKCQF3TsLwIARAA9358WRoE77C+rDE/rXQAgAmjZyhBwD1uPxtI+ElgAIAIQANhvKlwFEACIAPrO+X/u42uG5xwJABABtOcvQ0BPVgAEAIgABv5Cjv2megIAEYAXcrid3wQAiACg33wWgABABDBwa0PAPV5j7DcCABHAwPcT7wIAAYAIAEAAIAIAEACIAAAEACIAAAGACABAACACAAQAiAD6qbRbsIIAABHA7ewaAu4RjvYbAYAIACqUY+VoJQBABNCekSGgJ74KABABCADsNwIARAAZ/WYI6EkArAQAiADa410A3MdjASAAEAE4ksN+gwBABOCFnApsfeUovO4sBACIAFo0m83GRoE77C8xGrf9OQBrKwAgAijgaA77yx0tBQCIANr31BDQcQCsBACIAKwA0G/PMzzn19IGSQAgAhhEAPhsd+5gnOE5FwIARADlvKhTmIwXjLoGAEQAHXlpCOgoFFfhdcW7AEAEYAWAykJxWeJACQBEAEMxms1mLgbkp9J1Ijn2kQsBACKAbu0bAjrYPxYCAEQA3XptCPiFHMv/6/Aa4hQAiAA65jQAP5Q+/jfHCsCi1DETAIgArAJQglzL/xelDpgAQAQwNBNDwA8cZHrecwEAIoB+2J3NZiKAf6QP/xlleOpleL1YCQAQAfSH0wC0sT8sSh40AYAIYIjGLgYkHf3HI/9Jpqf/KABABNA/B4aAjJP/qtS3/wkAEAGDf+FPR3/Ue/S/27j4TwCACKjSsSGo2mHYct0m+kPpg7dzeXlpF+L7nWJnp+Yjikl4OLMXDMqTkq/U5pdH/39mCoB49f+zH/0PJc2ZVgDASoBVABz9V3b0LwBABJRgkt4HTj1H/6OM4bduKjj/LwBABFgFYIhOMz73efj7XwsAEAEiYBjGPh2wmqP/cZP3ttAntYyliwC5vlNUfBHgT15w4sTiwsD+i0dtT2o5eqv0bzGe8//S5PnY383R/6tf/QcuAgQrAfTPrlAr3mHGyT/6UNNgWgHACoCVgNK8CtF2bhiK+/vbS0f/uSzCfvPipv/ICgBYCaC/ztJSMeVM/vH3+SnzlzmpbVwFAIiA0jgVUJ541f8o89H/QgAAImD49sNR46FhKOLof9Lku+FPtUf/kWsAuL5TuAbgLi9MjjT77Vnpd3Qr/G8snvf/3OT7xL/N0f+L2/7HrgEArAQMw2fXAwx28t+cysn9+zuqdYwFAIiAku2KgMGKF/3tZf4a85pXiAQAiIDSxUnk1DAM6ug/HvmPM3+Zdc1H/wIAREAtJmlSof+Tf7x4c9LClzqp/VMjXQTI9Z3CRYAPefGKL1wmmv56H170jwxD9X8/y7AfPLvP/9FFgICVgGE6dNMg8exvVACACKjTmQioevI/8dbQK04BcH2ncApgiC9q3G8ieGsYqvo7uffS/4ZTAICVgOE7dmFg55P/YcuR7O/RCgBWAKwE8I8Yake1XxHewd9F/JuYtPgl4+/4/UOfpKQ5UwAgAEQATRPPCb8QAa38LWzu7Ddu8cve6eN+awkApwCgBU4H9F78sKA/02fPk2/y33y2f5uT/ypsr4y+AAARwM/EI9Mv7iKYbfKfpMm/7ch6ZWXnx5wC4PpO4RRAGy+ETgf023mMNRPHVvb3GFbxo5gnHXz5Nym8t8Y1AAgARED5VmkCWRiKe+/n8Wg/nu8fdfDl441+tr7iJgAQAIiAesQrx0+sBtz5qD+eSjnu6FvY2kV/JQeAawCgI64JGIw4kcULBPcNxa0m/3F4+NLh5B/f0eGiPysAWAGwEsB2jyybq/eT+yjZ6/vxqLk6199lKK3C9iznao1TAAgAREDd5s3VaYGVfbfz5f6NOOm/yB1nAgABgAggOmmubjG8rnB/3Uz8B83VWyiLn/wFAAIAEUC1KwJpqX/Sk4m/1clfACAAEAH8TPz8gA8lvnUwXdz3uunm/fy9mPwFAAIAEcBN4krAx+bqveirAe+H8Wh/Px3tj3r27bU++QsABAAigLtYphg4H0IMpHP7cdJ/2XR7Rf9NgfWqi3djCAAEACKA+8bAImy/9+k0QVreH6dJf28AY9jZnRsFAAIAEcA2xAi4SJPaso0VgrSsv5e25027d+bbxnh1enMfAYAAQASQc5KLIfA1PW6iYHmbiS8t4W+O4kdpe5wexwMelyyf7S8AQAAMIQLii/qukbiVONmdGq9ibP2ufgJAACAAKDuYzpr+n9Pm51ZNRxf71RAAbgYEFClNGvGOcHOjMUiL5upz/d13wQoAVgDg3qsBk8YpgSGJN1x638dvzCkABAAMLwJGzdUpgbHR6K14tP+mz0f9AgABAMMNgc2d66wG9Eu8l8Lbvn+TAgABAFYDqOSoXwAgAKC8ENhPIWA1oH3rdNT/fkjftABAAEA5EbC5r/2x0WjNvLm60G89tG9cACAAoLwQGKUImBiNbBZp4h/sW/sEAAIAyg2BcQqBsdHY6sR/0qcbIAkAAYAAACFg4hcAIADgWgjEjxI+aJwauIvzsH0oaeIXAAgAqDcERikCYgx418B16zTxn7RxW2MBIAAQANBFDMQQeN04PRDFC/o+xMl/iFf1CwAQAHDfVYH9FAM13XVw1fx/mX9V0+9cACAAgNpiIB7pL8L2seY79AkABABwUwyMw/Y8RcEQrxlYpwn/orla3l/5zQoABABwtyDYS0HwND2OevhtrtJRfpzwFzUf5QsABACQKwjiisBe2h5/889trBSs00QfJ/yv6Sh/WcMFfAJAACAAoO+rBbtplWCzUvBbc7frCjaT++af49aU+L58ASAAAAABAAAIAABAAACAABAAACAAAAABAAAIAABAAAAAAgAAEAAAgAAAAAQAACAAAAABAAAIAABAAAAAAgAAEAAAgAAAAAQAACAAAEAAAAACAAAQAACAAAAABAAAIAAAAAEAAAgAAEAAAAACAAAQAACAAAAABAAAIAAAAAEAAAgAAEAAAIAAAAAEAAAgAAAAAQAACAAAQAAAAAIAABAAAIAAAAAEAAAgAAAAAQAAbMH/BBgAQX4wJ6Lm2HYAAAAASUVORK5CYII=" parent="1" vertex="1">
                    <mxGeometry x="758" y="270" width="92" height="92" as="geometry"/>
                </mxCell>
                <mxCell id="47" value="" style="shape=image;verticalLabelPosition=bottom;verticalAlign=top;imageAspect=0;aspect=fixed;image=data:image/png,iVBORw0KGgoAAAANSUhEUgAAAgAAAAIACAYAAAD0eNT6AAAACXBIWXMAAA/fAAAP3wHyuVZaAAAKvUlEQVR4nO3ZwW0bORiAUWqhQtxJvJ2kCx4tH9mFO4nTiTuZhYGctDkk2VnM2N97BdDET3n0iXPZtm0AAC1/OW8A6BEAABAkAAAgSAAAQJAAAIAgAQAAQQIAAIIEAAAECQAACBIAABAkAAAgSAAAQJAAAIAgAQAAQQIAAIIEAAAECQAACBIAABAkAAAgSAAAQJAAAIAgAQAAQQIAAIIEAAAECQAACBIAABAkAAAgSAAAQJAAAIAgAQAAQQIAAIIEAAAECQAACBIAABAkAAAgSAAAQJAAAIAgAQAAQQIAAIIEAAAECQAACBIAABAkAAAgSAAAQJAAAIAgAQAAQQIAAIIEAAAECQAACBIAABAkAAAgSAAAQJAAAIAgAQAAQQIAAIIEAAAECQAACBIAABAkAAAgSAAAQJAAAIAgAQAAQQIAAIIEAAAECQAACBIAABAkAAAgSAAAQJAAAIAgAQAAQQIAAIIEAAAECQAACBIAABAkAAAgSAAAQJAAAIAgAQAAQQIAAIIEAAAECQAACBIAABAkAAAgSAAAQJAAAIAgAQAAQQIAAIIEAAAECQAACBIAABAkAAAgSAAAQJAAAIAgAQAAQQIAAIIEAAAECQAACBIAABAkAAAgSAAAQNDVoXMma63HMcbjnluac972XG+ttet6Y4y3OefLXouttR7GGF/3Wu+Hlznn216LrbXe9/ew13rjY5zz65zzdec14Y8JAM7m/cv/aec97f0g33t/39+/YHdc7+F/2OP7F9duAfAjUL7suN74AOc8fswRTsErAAAIEgAAECQAACBIAABAkAAAgCABAABBAgAAggQAAAQJAAAIEgAAECQAACBIAABAkAAAgCABAABBAgAAggQAAAQJAAAIEgAAECQAACBIAABAkAAAgCABAABBAgAAggQAAAQJAAAIEgAAECQAACBIAABAkAAAgCABAABBAgAAgi7btjl3/mWt5YMBn8Sc8+IsuecGAACCBAAABAkAAAgSAAAQJAAAIEgAAECQAACAIAEAAEECAACCBAAABAkAAAgSAAAQJAAAIEgAAECQAACAIAEAAEECAACCBAAABAkAAAgSAAAQJAAAIEgAAECQAACAIAEAAEECAACCBAAABAkAAAgSAAAQJAAAIOiybZtzP5m11uMY4/HgXT2dbjDAn3o+eHKvc87Xg/fAnauBnNKjL2BgR2d4ngiAk/EKAACCBAAABAkAAAgSAAAQJAAAIEgAAECQAACAIAEAAEECAACCBAAABAkAAAgSAAAQJAAAIEgAAECQAACAIAEAAEECAACCrg6dz2rOeXG4/Fdrrc0Q+YzcAABAkBuAE5pz3sYYtyN35lcPfB5uw/gZNwAAECQAACBIAABAkAAAgCABAABBAgAAggQAAAQJAAAIEgAAECQAACBIAABAkAAAgCABAABBAgAAggQAAAQJAAAIEgAAEHR16PBr1lqbUZ3fnPNSnwH8CjcAABDkBuCE1lq3McZTfQ7APk5we/U857wdvAfuuAEAgCABAABBAgAAggQAAAQJAAAIEgAAECQAACBIAABAkAAAgCABAABBAgAAggQAAAQJAAAIEgAAECQAACBIAABAkAAAgCABAABBAgAAgq4O/ZTexhjfD97Yl5POBvh9Rz9P3g7++/yEADihOefLGOPlyJ2ttbazzgf4PXPORyPjnlcAABAkAAAgSAAAQJAAAIAgAQAAQQIAAIIEAAAECQAACBIAABAkAAAgSAAAQJAAAIAgAQAAQQIAAIIEAAAECQAACBIAABAkAAAg6OrQz2et9TDGeKjPAdjHWuvx4FG+zTnfDt4DdwTAOX0dYzzVhwDs5tvBo3weY9wO3gN3vAIAgCABAABBAgAAggQAAAQJAAAIEgAAECQAACBIAABAkAAAgCABAABBAgAAggQAAAQJAAAIEgAAECQAACBIAABAkAAAgCABAABBAgAAgq4O/ZRexhivB2/s20lnA/y+vw+e2dvBf5+fEAAnNOd8O/ofZq111vEAv2nOefQPCk7IKwAACBIAABAkAAAgSAAAQJAAAIAgAQAAQQIAAIIEAAAECQAACBIAABAkAAAgSAAAQJAAAIAgAQAAQQIAAIIEAAAECQAACBIAABB0dejns9b6Osb4Wp8DsI+11uvBo3yZc74cvAfuCIBzehhjfKkPAdjN0c+TowOEn/AKAACCBAAABAkAAAgSAAAQJAAAIEgAAECQAACAIAEAAEECAACCBAAABAkAAAgSAAAQJAAAIEgAAECQAACAIAEAAEECAACCBAAABAkAAAi6OvTzmXPexhi3Ize21tpOOh7gN805L2bGPTcAABDkBgB+kV9RwGfiBgAAggQAAAQJAAAIEgAAECQAACBIAABAkAAAgCABAABBAgAAggQAAAQJAAAIEgAAECQAACBIAABAkAAAgCABAABBAgAAgq4O/XzWWrcxxlN9DsA+1lrbwaN8nnPeDt4Dd9wAAECQGwA+rRP86gE4LTcAABAkAAAgSAAAQJAAAIAgAQAAQQIAAIIEAAAECQAACBIAABAkAAAgSAAAQJAAAIAgAQAAQQIAAIIEAAAECQAACBIAABB0dein9HqCTT2dYA/APp4PnuMZnmncuWzbZib8y1rLBwM+iTnnxVlyzysAAAgSAAAQJAAAIEgAAECQAACAIAEAAEECAACCBAAABAkAAAgSAAAQJAAAIEgAAECQAACAIAEAAEECAACCBAAABAkAAAgSAAAQJAAAIEgAAECQAACAIAEAAEECAACCBAAABAkAAAgSAAAQJAAAIEgAAECQAACAoMu2bc6d01hr3cYYT3vuZ8552XO9tdbe/zTf55yPey221npf69te6/3w95zzda/F1lrva33Za73xMc75ec5523lN+GNuAAAgSAAAQJAAAIAgAQAAQQIAAIIEAAAECQAACBIAABAkAAAgSAAAQJAAAIAgAQAAQQIAAIIEAAAECQAACBIAABAkAAAgSAAAQJAAAIAgAQAAQQIAAIIEAAAECQAACBIAABAkAAAgSAAAQJAAAIAgAQAAQQIAAIIEAAAECQAACLo6dE7m9QMcyPPO6739D+udfY8vH+Cs957hR/hsE3LZts15A0CMVwAAECQAACBIAABAkAAAgCABAABBAgAAggQAAAQJAAAIEgAAECQAACBIAABAkAAAgCABAABBAgAAggQAAAQJAAAIEgAAECQAACBIAABAkAAAgCABAABBAgAAggQAAAQJAAAIEgAAECQAACBIAABAkAAAgCABAABBAgAAggQAAAQJAAAIEgAAECQAACBIAABAkAAAgCABAABBAgAAggQAAAQJAAAIEgAAECQAACBIAABAkAAAgCABAABBAgAAggQAAAQJAAAIEgAAECQAACBIAABAkAAAgCABAABBAgAAggQAAAQJAAAIEgAAECQAACBIAABAkAAAgCABAABBAgAAggQAAAQJAAAIEgAAECQAACBIAABAkAAAgCABAABBAgAAggQAAAQJAAAIEgAAECQAACBIAABAkAAAgCABAABBAgAAggQAAAQJAAAIEgAAECQAACBIAABAkAAAgCABAABBAgAAggQAAAQJAAAIEgAAECQAACBIAABAkAAAgCABAABBAgAAggQAAAQJAAAIEgAAECQAACBIAABAkAAAgJoxxj+fJLQL3SHk7AAAAABJRU5ErkJggg==" parent="1" vertex="1">
                    <mxGeometry x="1025" y="500" width="70" height="70" as="geometry"/>
                </mxCell>
                <mxCell id="48" value="" style="shape=image;verticalLabelPosition=bottom;verticalAlign=top;imageAspect=0;aspect=fixed;image=data:image/png,iVBORw0KGgoAAAANSUhEUgAAAgAAAAIACAYAAAD0eNT6AAAAGXRFWHRTb2Z0d2FyZQBBZG9iZSBJbWFnZVJlYWR5ccllPAAAA3ZpVFh0WE1MOmNvbS5hZG9iZS54bXAAAAAAADw/eHBhY2tldCBiZWdpbj0i77u/IiBpZD0iVzVNME1wQ2VoaUh6cmVTek5UY3prYzlkIj8+IDx4OnhtcG1ldGEgeG1sbnM6eD0iYWRvYmU6bnM6bWV0YS8iIHg6eG1wdGs9IkFkb2JlIFhNUCBDb3JlIDUuNi1jMTExIDc5LjE1ODMyNSwgMjAxNS8wOS8xMC0wMToxMDoyMCAgICAgICAgIj4gPHJkZjpSREYgeG1sbnM6cmRmPSJodHRwOi8vd3d3LnczLm9yZy8xOTk5LzAyLzIyLXJkZi1zeW50YXgtbnMjIj4gPHJkZjpEZXNjcmlwdGlvbiByZGY6YWJvdXQ9IiIgeG1sbnM6eG1wTU09Imh0dHA6Ly9ucy5hZG9iZS5jb20veGFwLzEuMC9tbS8iIHhtbG5zOnN0UmVmPSJodHRwOi8vbnMuYWRvYmUuY29tL3hhcC8xLjAvc1R5cGUvUmVzb3VyY2VSZWYjIiB4bWxuczp4bXA9Imh0dHA6Ly9ucy5hZG9iZS5jb20veGFwLzEuMC8iIHhtcE1NOk9yaWdpbmFsRG9jdW1lbnRJRD0ieG1wLmRpZDowMjE0NTc3Zi04MmQ2LTA4NGQtYTlmMS1kMDc0M2FiYjA1OGQiIHhtcE1NOkRvY3VtZW50SUQ9InhtcC5kaWQ6OTQ4RDJGMzRCRjVFMTFFNTg0MEVEQkU2REM3QTkxQUQiIHhtcE1NOkluc3RhbmNlSUQ9InhtcC5paWQ6OTQ4RDJGMzNCRjVFMTFFNTg0MEVEQkU2REM3QTkxQUQiIHhtcDpDcmVhdG9yVG9vbD0iQWRvYmUgUGhvdG9zaG9wIENDIDIwMTUgKFdpbmRvd3MpIj4gPHhtcE1NOkRlcml2ZWRGcm9tIHN0UmVmOmluc3RhbmNlSUQ9InhtcC5paWQ6MDIxNDU3N2YtODJkNi0wODRkLWE5ZjEtZDA3NDNhYmIwNThkIiBzdFJlZjpkb2N1bWVudElEPSJ4bXAuZGlkOjAyMTQ1NzdmLTgyZDYtMDg0ZC1hOWYxLWQwNzQzYWJiMDU4ZCIvPiA8L3JkZjpEZXNjcmlwdGlvbj4gPC9yZGY6UkRGPiA8L3g6eG1wbWV0YT4gPD94cGFja2V0IGVuZD0iciI/PpNX8NsAAAe+SURBVHja7NzBbYNAFEXREE0BKSElpAS7JK/4O3v5y3AnUAIluAR3QNhm4SiRMB4x50goOyIelnyVkdLN8/wGALSlEwAAIAAAAAEAAAgAAEAAAAACAAAQAACAAAAABAAAIAAAAAEAAAgAAEAAAAACAAAQAACAAAAABAAAIAAAQAAAAAIAABAAAIAAAAAEAAAgAAAAAQAACAAAQAAAAAIAABAAAIAAAAAEAAAgAAAAAQAACAAAQAAAgAAAAAQAACAAAAABAAAIAABAAAAAAgAAEAAAgAAAAAQAACAAAAABAAAIAABAAAAAAgAAEAAAgAAAAAEAAAgAAEAAAAACAAAQAACAAAAABAAAIAAAAAEAAAgAAEAAAAACAAAQAACAAAAABAAAIAAAAAEAAALACgAgAAAAAQAACAAAQAAAAAIAABAAAIAAAAAEAAAgAAAAAQAACAAAQAAAAAIAABAAAIAAAAAEAAAIAAHAbj7MXWcEfsjMYflxWPGWY9/3R8uyB+8mAAABAAAIAABAAAAAAgAAEAAAgAAAAAQAACAAAAABAAAIAABAAAAAAgAAEAAAgAAAAAQAACAAAAABAAACAAAQAACAAAAABAAAIAAAAAEAAAgAAEAAAAACAAAQAACAAAAABAAAIAAAAAEAAAgAAEAAAAACAAAEAAAgAAAAAQAACAAAQAAAAAIAABAAAIAAAAAEAAAgAAAAAQAACAAAQAAAAAIAABAAAIAAAAAEAAAIAABAAAAAAgAAEAAAgAAAAAQAACAAAAABAAAIAABAAAAAAgAAEAAAgAAAAAQAACAAAAABAAAIAAAQAABAY4oJ2IvMvFihSreIuJoBBAA8y9kEVRqXSwBAZRwBAIAAAAAEAAAgAAAAAQAACAAAQAAAAAIAABAAAIAAAAAEAAAgAAAAAQAACAAAQAAAAAIAABAAAIAAAAABAAA0opgAHpqW69Tgcw9ePQgAaNk9IsbWHjozvXlogCMAABAAAIAAAAAEAAAgAAAAAQAACAAAQAAAAAIAABAAAIAAAAAEAAAgAAAAAQAACAAAQAAAAAIAABAAACAAAAABAAAIAABAAAAAAgAAEAAAgAAAAAQAACAAAAABAAAIAABAAAAAAgAAEAAAgAAAAAQAACAAAEAAAAACAAAQAACAAAAABAAAIAAAAAEAAAgAAEAAAAACAAAQAACAAAAABAAAIAAAAAEAAAgAAEAAAIAAAAAEAAAgAAAAAQAACAAAQAAAAAIAAKhQMQHwZJ+ZeXnV7zY/CADgdV/CZzNAXRwBAIAAAAAEAAAgAAAAAQAACAAAQAAAAAIAABAAAIAAAAAEAAAgAAAAAQAACAAAQAAAAAIAABAAAIAAAAABAAA0opgAeLJpuU47eZa714kAAPjjl2ZEjHt5mL7vvVF2wREAAAgAAEAAAAACAAAQAACAAAAABAAAIAAAAAEAAAgAAEAAAAACAAAQAACAAAAABAAAIAAAAAEAAAgAABAAAIAAAAAEAAAgAAAAAQAACAAAQAAAAAIAABAAAIAAAAAEAAAgAAAAAQAACAAAQAAAAAIAABAAACAAAAABAAAIAABAAAAAAgAAEAAAgAAAAAQAACAAAAABAAAIAABAAAAAAgAAEAAAgAAAAAQAACAAAEAAAAACAAAQAACAAAAABAAAIAAAAAEAAAgAAEAAAAACAAAQAACAAAAABAAAIAAAAAEAAPyimAC2k5mXlW95i4irZQEBAHU7r3y/cbkEAPBvjgAAQAAAAAIAABAAAIAAAAAEAAAgAAAAAQAACAAAQAAAAAIAABAAAIAAAAAEAAAgAAAAAQAACAAAQAAAgAAAABpRTACbOq58v7tJAQEAlYuI0QpADRwBAIAAAAAEAAAgAAAAAQAACAAAQAAAAAIAABAAAIAAAAC25F8Bw4Yyc1j5llNEnCwLCACo28EEQA0cAQCAAAAABAAAIAAAAAEAAAgAAEAAAAACAAAQAACAAAAABAAAIAAAAAEAAAgAAEAAAAACAAAQAACAAAAAAQAANKKYALYTEZ0VAH8BAAAEAAAgAAAAAQAACAAAQAAAAAIAABAAAIAAAAABAAAIAABAAAAAAgAAEAAAgAAAAAQAACAAAAABAAAIAABgM8UE8NBXZg5mAAQAtOVjuQ5mAPbIEQAACAAAQAAAAAIAABAAAIAAAAAEAAAgAAAAAQAACAAAQAAAAAIAABAAAIAAAAAEAAAgAAAAAQAACAAAEAAAQCO6eZ6tAAACAAAQAACAAAAABAAAIAAAAAEAAAgAAEAAAAACAAAQAACAAAAABAAAIAAAAAEAAAgAAEAAAIAAEAAAIAAAAAEAAAgAAEAAAAACAAAQAACAAAAABAAAIAAAAAEAAAgAAEAAAAACAAAQAACAAAAABAAAIAAAQAAAAAIAABAAAIAAAAAEAAAgAAAAAQAACAAAQAAAAAIAABAAAIAAAAAEAAAgAAAAAQAACAAAQAAAgAAAAAQAACAAAAABAAAIAABAAAAAAgAAEAAAgAAAAAQAACAAAAABAAAIAABAAAAAAgAAEAAAgAAAAAEAAAgAAEAAAAACAAAQAACAAAAABAAAIAAAAAEAAAgAAEAAAAACAAAQAACAAAAABAAAIAAAAAEAAALACgDQmG8BBgC0rD5xXt71agAAAABJRU5ErkJggg==" parent="1" vertex="1">
                    <mxGeometry x="962.5" y="500" width="80" height="80" as="geometry"/>
                </mxCell>
                <mxCell id="50" value="" style="shape=flexArrow;endArrow=classic;html=1;" parent="1" source="48" target="41" edge="1">
                    <mxGeometry width="50" height="50" relative="1" as="geometry">
                        <mxPoint x="1057" y="430" as="sourcePoint"/>
                        <mxPoint x="827" y="465" as="targetPoint"/>
                    </mxGeometry>
                </mxCell>
                <mxCell id="52" value="" style="shape=image;verticalLabelPosition=bottom;verticalAlign=top;imageAspect=0;aspect=fixed;image=data:image/png,iVBORw0KGgoAAAANSUhEUgAAAgAAAAIACAYAAAD0eNT6AAAAGXRFWHRTb2Z0d2FyZQBBZG9iZSBJbWFnZVJlYWR5ccllPAAAA3ZpVFh0WE1MOmNvbS5hZG9iZS54bXAAAAAAADw/eHBhY2tldCBiZWdpbj0i77u/IiBpZD0iVzVNME1wQ2VoaUh6cmVTek5UY3prYzlkIj8+IDx4OnhtcG1ldGEgeG1sbnM6eD0iYWRvYmU6bnM6bWV0YS8iIHg6eG1wdGs9IkFkb2JlIFhNUCBDb3JlIDUuNi1jMTExIDc5LjE1ODMyNSwgMjAxNS8wOS8xMC0wMToxMDoyMCAgICAgICAgIj4gPHJkZjpSREYgeG1sbnM6cmRmPSJodHRwOi8vd3d3LnczLm9yZy8xOTk5LzAyLzIyLXJkZi1zeW50YXgtbnMjIj4gPHJkZjpEZXNjcmlwdGlvbiByZGY6YWJvdXQ9IiIgeG1sbnM6eG1wTU09Imh0dHA6Ly9ucy5hZG9iZS5jb20veGFwLzEuMC9tbS8iIHhtbG5zOnN0UmVmPSJodHRwOi8vbnMuYWRvYmUuY29tL3hhcC8xLjAvc1R5cGUvUmVzb3VyY2VSZWYjIiB4bWxuczp4bXA9Imh0dHA6Ly9ucy5hZG9iZS5jb20veGFwLzEuMC8iIHhtcE1NOk9yaWdpbmFsRG9jdW1lbnRJRD0ieG1wLmRpZDowNTFmMTVjNi0zOTlhLTNhNDktOGRhYS1hNzNkMzJiZWM1NWUiIHhtcE1NOkRvY3VtZW50SUQ9InhtcC5kaWQ6OTI1QUI2OTdCRjVFMTFFNTk2NzlFOUZFRDBBQjVFMjUiIHhtcE1NOkluc3RhbmNlSUQ9InhtcC5paWQ6OTI1QUI2OTZCRjVFMTFFNTk2NzlFOUZFRDBBQjVFMjUiIHhtcDpDcmVhdG9yVG9vbD0iQWRvYmUgUGhvdG9zaG9wIENDIDIwMTUgKFdpbmRvd3MpIj4gPHhtcE1NOkRlcml2ZWRGcm9tIHN0UmVmOmluc3RhbmNlSUQ9InhtcC5paWQ6MDUxZjE1YzYtMzk5YS0zYTQ5LThkYWEtYTczZDMyYmVjNTVlIiBzdFJlZjpkb2N1bWVudElEPSJ4bXAuZGlkOjA1MWYxNWM2LTM5OWEtM2E0OS04ZGFhLWE3M2QzMmJlYzU1ZSIvPiA8L3JkZjpEZXNjcmlwdGlvbj4gPC9yZGY6UkRGPiA8L3g6eG1wbWV0YT4gPD94cGFja2V0IGVuZD0iciI/PrENsV0AABzzSURBVHja7N3fVRvJtgfgxmveDycCyxEYR2ARgXEEFhHYvPEGvPFmHAFyBIYILEdgJgJrIjjcCHy7TGkOxwM2f1rSrqrvW0uLmXPvmtXqVtf+1e7q7o3v3793AEBbNgQAABAAAAABAAAQAAAAAQAAEAAAAAEAABAAAAABAAAQAAAAAQAAEAAAAAEAABAAAAABAAAQAAAAAQAAEAAAQAAAAAQAAEAAAAAEAABAAAAABAAAQAAAAAQAAEAAAAAEAABAAAAABAAAQAAAAAQAAEAAAAAEAABAAAAAAQAAEAAAAAEAABAAAAABAAAQAAAAAQAAEAAAAAEAABAAAAABAAAQAAAAAQAAEAAAAAEAABAAAAABAAAEAABAAAAABAAAQAAAAAQAAEAAAAAEAABAAAAABAAAQAAAAAQAAEAAAAAEAABAAAAABAAAQAAAAAQAABAA7AUAEAAAAAEAABAAAAABAAAQAAAAAQAAEAAAAAEAABAAAAABAAAQAAAAAQAAEAAAAAEAABAAAAABAAAEAAEAAAQAAEAAAAAEAABAAAAABAAAQAAAAAQAAEAAAAAEAABAAAAABAAAQAAAAAQAAEAAAAAEAABAAAAABAAAEAAAAAEAABAAAAABAAAQAAAAAQAAEAAAAAEAABAAAAABAAAQAAAAAeA+X25jwxGG4I6Pj7f6P5s3/J+u/+/z/PnZfH9/f24vsixV10gBAFhBcR/n/+nlDcV9KNdDwpf+c9l/LoQEBAABAFheod/MRT0V+uf9Z5T/PZJZDgh/pX/uQ8HMkUMAEACA+8/sx3lGv5ULfoku8udLDgU6BQgAAgBwreCPcsF/lf9uVvpV57lTcJ4DwaWjLwAIAAIAtDjL38lFf6vR3XCWuwNnugMCgAAgAEDtRf9NLvwje+R/pEsFH/vPVGdAABAABACooeindv4kF/4te+TOnYHzPghM7QoBQAAQAKC0wj/ORX9ibzxY6gSkEPDBJQIBQAAQACD6bD+19w86Lf6hzXIQOLMrBAABQACASIX/Xf9529W7gj+K1Ak4cnlAABAABABYZ+Ef5dn+xN5YSxD40Fk0KAAIAAIAKPxNuswdgRO7QgAQAAQAWFbhX7T6D+yNkB0BlwYEAAFAAIDBi/9h5xp/CdLzBPa8i0AAEAAEAHhs4R/3f047q/pLc5aDwNyuEAAEAAEA7lP4U8F/313d1ke50mWBQ7tBABAABAC4S/FfXOfX7q9D6gLsuiwgAAgAAgDcVvjTo3pTu98je+t0kjsCbhsUAAQAAQD+Lv6HndX9ugEIAAKAAEAzhX+UZ/1je6OtbkAfAvbsBgFAABAAaLP47+Ti71p/my5yN+DCrhAAhvbE4YWwxT+t8P+k+DctrfX43P8WJnYFOgA6ANRf+Ee58Fvox3UuCegACAACABUX/7FZP7+QLgVsu0tAABiCSwAQp/hP+j+fFX9+IXWFvuXbQUEAgAqKf1rod2pPcAcpIFoXwKO5BADrLfybufB7nC8PsevtgstlDYAAAMsq/qnlr53LY0z7ELBrNwgA9+USAKyn+I8UfwYyyZeQQAdAB4DgxX+rs9gPnQAdAAFAAEDxh4G4TVAAuDOXAEDxpx6LJwf6jaEDAIp/ES7z7PWmGe2isP1sbLfpBOgAPNwfDi8svfiPFP+/i9K8//yZ//lH0X9skcr79/rn5bV/brkTkN4lYU0AOgCwpuLf6q1+81zkv+QiP1vTvt/KnYKX+Z9bC2EWBuoACACg+C/dWS74s6ivr83vWkifVw0dFyFAABAAYMXF5nNX/3XqVPTP09/SrjfnSwfpCYxvGggDe/3xOXFWCgACACy/uKQHs0wq/Xppdv+hxKL/mzAwyWFgVOlx89hgAUAAgCUXk3fd1QKsmlzm2f5RX0TmlR+/RVdgp8JjuB318owAIAAIANRQPD5V9JVSsf/Yf05au6UsdwUOuro6OekYPnN7oAAgAFDLID3K/7pY9f27AfDvGdCQq9Mru9d/nmf7U7+xH4s5U1fnbSXHNt2V8cLoIQAIAJRU5Mf952n+56Fv6Vrcl/4lF7/5fcJBRSv+0z740H/3Q7+8qjsC7gwQAAQAQg6041zsn+e/65x1XXT/vZ99dtv170oW/R11Dbb6HxgETrvy7/CwKFAAEAAIMaCma+cvu/gLr1IA+HG/ez94nuXtn+SCUKpZLgZzv8Z7B9V03EeFfgWLAgUAAYC1Fv3S78E+69bfpXhMAdhdBBke9DterA84KPQreGeAACAAsLLBMhX9t117j8aNGFx2DfyD/ba3cjegxN91uuyz5ygKAAIAyxoc3+bi7214Zv01/9bf545AaV77TQgAAgBDDoaL2f7Y3gjhIg/0c7tiqb/79Hv/VFjY9XwAAUAAYJABcNJdXRMd2RthaPOu9hwo8bbQ9Gjn146eACAA8NCZT8mromuUZnR7bvda2zlR2u2h2+t4dbMAIAAIAOUOcmmWk659ju2NcMXfbV7rPz8mXTm3ic77zwuXAtoIAE8cXh4xsG3mGc5XxT+cizyQK/5rlrsvr3Mgi27UlXtLIzoAOgArnNWkWb9V/TGLv3u7450zJb0rQnhsoAMgAHDfQSzNEGp4DKrijxBwu/TY621HzCUAWAxe6bY+7X7FnwfKs+pUWKMfo3E+36mYDgB3KfxptpLa/RN7Q/GnmU5AeiPmMx0AHQDaHqi+Kv6KP811Akb9+f/O0dIB0AFos/hPOgv9FH9a7gQ0/4RAHQBaHJhS4T9V/EO7VPyr6AREfvre4m2H6ADoADRQ+F3vL6v4u1WrjvNu0sV9WFDTXQAdAFoq/p8V/yLsKv5VdQKm/Z8TXQB0AHQA1ln8t+yN8I76gnFoN1R5HqZzcKwLoAOgA4Diz89min/Voj4yWBdAAEDxZ82zMK9rrVieYUc9xm8cIQEAxZ81zQ6t+G8iBMz6P0cBN22UFysiAKD4s0In3tPeVAg47K6e8RDNW0dHAEDxZ3XmQWeELNduwG3a6sePsUMjAFCuU8W/rEKg9d9kF+AiaPCzFqASbgNsb/afHvJjNW85pn0h2LUbmj5nvwYM7P9uJZS6DZBaBpKJ4l+UNMDu2Q3Ni/gbmDgsAgDlFP80g3hvTxTlSOufvPhzGmyzXAYQACik+KdFf586L/YpSXoX+4ndwCIMdrEeEJQWA44cFgGA+NKiPydrWVz353oXYN7/+RBss9wSWLg/7ILqZ//pmv9OA181zY4W901/ueX/5+m1IDQO/F1m7vnnBie56Ebp5KVxxRqVgrkLoO7in4rd166+1n+aDc1yoZ8/tFjm/TPKYeB5/hthX20LANzymz3s/xwE2qQXtb+VsuYaqQNQt9OKiv9Z/znPs+P5EP/B/N9ZhInFAJsWS77Js5uR2T+6AL+UzhWvpdYB0AEINlNIrf/SV/2ngSVd9zxbx2r4a2FgssIB1+yfkroAF/3v9YUOgAAgAMQZIFKx+lbw7H/afz5GKYR5f+7kQXeZXQEP/eGuv8f/BNqkZ0N15QSA1XIXQJ3eF1r8p3kw2Y00C07dh/6TivOz7mp1/rIGO8/7506/xy7WcwF2HBUBgBizg3FX3lO6UrHfzoU/9EziWhBIq5+HvCwxrXkWxeAi3RL40uEQAIgz+y/Fj0fd9oWvuOve+SE9zwaciZn9c5/fX1ofE2Xx3dgREQBY/+w/zfxLectfKvgvSn7aXb40kC4JvOiu3UnwACdm/xTcBdj0iuAyuQ2wLgeFbOdeTY+5zbOx7RzA7rv+4tLsnwdKt8aeBuoCzBwSHQDWN/sfBd/MVOy2a33GfVof0F1dFrhPQf/ghT888Pd2mUNABM8dEQEAs//bpFnyi9rvcc+XBQ5zEPjdd00DuBf+8BgfA3UAEAAw+7+x+G+3dJ07fde0uLH/x9fd7bcNmv3zWFEC9WZ+cBYCAGb//yj+TRa6/nuf5dsGf36dq9k/Q/y+Il0GEAAEAFY8+x8Hnv03Xfx/GqgPu6u7Bab5f9qzXxjIeZDtsA5AAGDFor6TW/H/ZwiYL24bzAsGYQgzHQAewrsAyp79p5n/t4CbdpmL3NwpBisZC9I4MFr3ed+f8/+ubd96FwBRTYJu17biD811ATbzi4oQAFiBNwG3aS8/GAdYnS9BtsNlAAGAZcu33IyCbdZZrQ/5AR0AAUAAwOz/Zum6v3fZwxrkS24RFty6BCAAsALR3sG9a8U/rFWES29eDSwAsEwB2/+z9MAbRwaaDwAIALQ2+3dIYO3+CrAN1gAIACzZq0DbMnXLH+gAZNYACAAsS77PNlLK9i57iCFEEPcsAAGA5Rmb/QM/C3QuugwgALAkkVbZmv2DLgACAI11AGZm/yAAIACwOlHaax8dCuAGI7tAAGBgx8fHUWb/l15nCyFFeBiXACAAUPGJ5aE/ENOfdgECQJ2eB9mOc4cCQABgdaJc/585FAACAKszilD8vfQHQACgvQDwxWEAEABYkePj41GQTZk5GgDl+8MuCF/403O13/Wft0E2ae6oAL/wth+30t8Tlwtj2/j+/Xu9X25jo5bCH+blGv0JveG0gbDjxmH/5yDI5qTi/6H0IFBzjXQJIGDhzyfxt3wiR3qz1swRgtD+FWhbNvMY9q0f0945NAIAvy7+k/7P14CF/3qiB+KK+Ca+NJa978e3FAR2HKI4rAGIUfjTSfu+i/Wq35t4yhjwUKP+86kf72b9310vE9MBaL3wp3b/+zzrH9sjwACz7ejSWPctX+pEAGiy+I9z4XdtDBjKVkHbetCPg19zBxQBoKlZ/+fOW7MAgeWrboAA0ELx38qF36wfGHp8GRe8+YtugEmRAFDlyTnJxV+7C1iGzcK3f9ENmDiUAkAthT+1/E/7fzyt4AQFYhfQGkLMaR4zEQCKLv6jPOuXaIFle1rRd5nkSwImTQJAkcX/Rzur0/IHVmNU2fdJY+c3dwkIAKUV/0ku/tIrsMqCWZs0hn72BEEBoKTiX+v1q+eOMIQulrV+r08WBwoA0Yv/acXFv+YBBkofe8YNfM1TLxUSACIXfwkVEM6X5707BAQAxR/gv1paKDcRAgQAxR/gytPGvq8QIAAo/is2ctTBuRkoBLx36AWAdRT/dw3O/AUAcG5G8s7dAQLAqot/+sFJnoAAsH6nQoAAsKrinx5I4doTEGVM8qS8qxBgPwgASz/RWi7+F34FEM68/+z2n7P+c9nwfvgsBNzPxvfv3+v9chsbQxb/dJ9terzvqKHfRxpMZv3nPA0u+/v7l04ZCD9RGfd/XvWf9Le1gpgmKdtDjlU118g/nC539qmR4j/PM4kv/Ul05rBDWfrzdpaD++KNpNcDQe0PDFp0aV/7JegADJWoD/s/BxX/Dq7P8udOC6i6O7AIBDV3B476sexQB0AAGOKE+VzZrrlczPI7rX1oNQykbsBODgM1vm1vO3dDBAAB4MEnyLeunrZZKvrn/UkxNfwBN4SBN7lDUIN5/3nx2AmONQDt+lRB8U8//lTwP2jvAzfJRTKNE9O8buAgB4KSx7/0PawH0AF4UCJOT/or+WE/6YT+0H9OtPiBB3YF0jj4tvAg8PoxC5pdAmgsAOQE/LXQH73CDwgC/zsmPnvoeOgSQHtOC/2hT/vPnsIPDCWPJ4d9EEjjS+qKlrZgcLNzKUAH4I5pd9KV97S/i1z4Z37SwJI7AuM8Ro4K2/QHXQpwCaCRAFDoqv/B7ncFuMdYmRYKvitos+fdA+4KqLlGehfA/zooqPinH/O24g+sWiqi/WcvjUFdOe8fGBUWWHQAVtUByC+R+FrIV0ttrF3X+oEg3YB0y/S4kE1+dp9boi0CbEMpt/xp+QOhugGpE9AHgbQuYFLIWG9BoA7A3wk2JdcSHve76yl+QOBuQAoAJSyivvNjgq0BMPtft8v8g1X8gcjdgDRG7RawqQeOlgCwSKyR34p12Q30UguAFYWAF13sxYHj3PkVABoXOQkuiv+FwwQUFALSmBX9DoHmuwBNB4A+AaYnWo0Uf4ClhIDIlwOa7wK03gF4G3jb9hR/oPAQcBY8BDTdBWg2AOTkFzX9We0P1BIC0lh2FLgLMBIA2vMm6HZNFX+gshBw2F29rEwXQABY++w/Jb5JwE276E+U3Q6gPunRwREva+7kpxkKAI2IWPzToj9PpwJq7QKkMW63i3dnwGZXxhMMBYCBRGz/797n+dQABYaA1AGIuB7gTYvHo7kAEPTWv7OHvKcaoMAQcNJdvdAskq38QjgBoHKvgm3Poi0G0Iq9Lt6lgOa6AC0GgJ1oJ4LX+gKNdQHmXbxLARMBoGK5/R9ptefMLX9AoyEgXQqIdFfAZq4RAkClorX/9wwDQMOijYEvBYB6RUp3U4/6BRrvAsz6PzM1QgBYqoDt/yOnP0CosXDU0t0ALXUAIrV2pu75B9AFEABWYyzxAugCFDRZFAAeKz/7P0pbZ2b2D/CPLkCUNVHjVvZ7Kx2ASNd0PjjdAeKOjfl18QJAJaK0dOYe+QtwozQ2RnkomgBQkXGgHzgAP8lPRI0yRjaxDsAlgNX66DQHuNW5miEADCbQtZy5B/8A/LILEOUywGZePC4AmP0PQvsfoJyxsvouQAsB4GmQ7Th3XgMUM1YKADoAg7jM97kC8GtRxsrnAoAAMATX/gHuIN8NEGHM3Kx9X7cQACIcxC9Oa4CiugBjAaBggd7qNHM+A9zZn3aBAFDD7D9xCQCgsDGz9kcC1x4ARgG24TJf0wLgDjwzRQCoJQD4IQOUOXaOat7BT/zGlm5uFwDcW4TOqQBQsAgPAfrLeQxQZAegai4BABDR/9kFAkDpZnYBQJGqfhqgAABARPMA21D10wAFAAAEgAYJAAAgAAAAAgAAIAAAAAIAACzL2C4QAEo3sgsAivRFAEAAAEAAkN7u5V9+ZgD39tIuEABKt2UXACAAtGfTLgC4t3GAbZgJAOWKcPB0AADu4fj4eGQvCAC1/JjH9gLAnUUJAHMBoFwXQbZDFwDg7kJMmvb39wWAUvUH7zLIpjx3PgPcWYQ7AC5q38ktXAKYSbMARYnQNb2sfSe3EAAiHMSRRS0Av5fXTEW4e+pL7fu6hQDwZ5Dt0AUAKGesnAsA5ZsF2Y5XzmuAYsZKAaACUQ7izvHxsYcCAdwiXyoNcdfU/v7+rPb9XX0AyLdxRFnMseMUBwg/Rl60sLNbeRBQlCT3xvkNcKu3aoYAMLQoqznH7gYA+Ke8+j/K+PhnC/tcB6DdhAsQSaQOaRMdgI3v37/X++U2Nq6ny/90Me4tTesRngV6SiHAumf/aeb/LcjmzPvx+dniX2qukS29DChKoksh5J1THuBvE7VCAFim80DbYjEgwNXsP02KIl0aPW9l3+sArEd6NLAuAMBVRzTSM1Ka6QA0swYgJ82vXZxX81oLALQ++x/1f74GCgBn/Zj8+vr/YA1APT4G2hZrAYDWHQSb/Z+3tPNbCwBn0X78ngsANDr7H3exFv9FrBECwFDyY4GjPeLx1FAANOh9tOLf2iXZJw3+6D4G256xBYFAY7P/wy7OeqyF89aOQ4sBYBpwm1wKAFop/qnwHwTbrMt+9j9t7Vg0FwByiyfadZ60COaToQGovPinsS7iZc+zFo/Hk0Z/hx8DbtNWf3K87wDqlca4rYDb9aHFg9HUcwB+SqLpudOjgJv9en9//6wDqGv2Pwk6+5/1Y+72bf9HzwGoU9TEd5qvkQHUUvzHXdw7nj62elxaDgDT7uppfNGka2Sf87UygNKLf5rQRF3jNG9x8V/zASAvBozaBRACgBqK/4+xrIv1tL/rjlo+Pk8a/32eBO0CJFtCAKD4L03EO8IEgBV3AaaBN1EIAEou/pHXM31o/WVsT/xUf7SAIv8IhACgpOI/KqD4pzH/pPVj1XwACL4W4OcQ4O4AIHLxT2NUpNeu3zrx8yp2AWAh8loAIQAoofjvdLGv+S+klf8njpgAcL0LUMJq0HRiffXyICBY8T/srm71K+FS5Z4jdqXZJwHe8iOO+nTAm6TVq7vaWMAaC//iPSbjQjb5l0/9u4knAbZjt6Bt3cndgLHDBqyh+Kcx6FtBxd/sXwfgtz/qT7m4liRdz7KoBVjVrP+0xHGyHyPvHQB0ANrrApRWSN/lbsCOwwcssfhP8qy/tLFm3jX+1D8dgPv9yE8L/dqz3A2Y+XkDAxX+cRf3Vb53sf3QMbHqGikA3PqDL/FSgCAADF34D7qyrvP/7EGt/xYCwB9+4rfazT/6Up/Al7Z93J/AggBw38KfJj9vCy/8ybzT+tcBeMRJ8KmS3ZFOhPTEw6nFgsAN492o/zPpP2+6cm6H/p0X/Xh38Zj/gEsAjQaAfFKk6161PXgnPUPgPP0VBqD5oj/ORX9c2ddLnc/Dx/5HBICGA0A+SUp4tvVDXeQwMHOZAKov+Jt5LHuVC36t49q9H/jTYgCwBuBuXndXL7io8Y18W/lz0A8Oi0CQPn91VwsJLx/bQgPWUuy38piVCv3Ta+d67eZ5zEYHYLCTKZ1Enxv/vaQg4JIBxLXZSJG/TRqftoectLgEIAAsQkBaC/DeGAMQUno/ynTI/6AnAfJDfoXk1J4ACOdo6OJfOx2Ah3UCSn9IEEBN0u3NS3mZmw4AP0s/NAvjANbvbFnFv3YCwAPke+e3hQCAtbroynqNuwAgBAAwQPHf9jAzAUAIAFD8EQCEAADFHwFACABQ/PkfbgMcUH7Odnpa4JafFsCgputY7e9JgALAfYPAaXf1Wk0ACi3+tQcAlwCWIP9QT+wJgEfbdZ+/DkAxHYBrnYDUBUjvDtj0UwO4l3Sd//W6X1PuEoAA8JgQkNYDpEcHj5zPAHdykWf+a19Y7RIAD5Z/wC/6z5m9AfBb027gV/qiAxChG+B1wgA3Sy3/vWhv9HMJQAAYMgSkSwLpLgG3CgJcSbP9dL1/Hm3DBAABYBlB4LD/c+C8Bxp31Bf+w6gbJwAIALoBAMOadVcL/eaRN1IAEABW0Q1427ldEKhfyGv9AoAAsM4QMOquLglMjA9ApdID0o5Kepa/ACAArDIIjHMQGBsrgErMugLa/QKAACAIAAxX+I/W/TQ/AUAAEAQAFH4BQAAQBAAGNu0/H2so/AKAABAxCIy6qzsGJp27BoD1Swv6PnRXr+yd1/blBAABIGIQSMV/p/+80RUA1iC93+S8lNv5BAABoNYwMLoWBjxUCFiW9Mjej6n41zjbFwAEgFrCwCudAWCgmf6Xloq+ACAA1BAGNnMIeJn/6g4Ad5nlz1LR7wt+868xFwAEgJoCwVYOA8/zP4/sGWjWPBf8P1PRr2n1vgAgAPj13i0YjHMQSJ+n+e+mjgFUM6O/zMX+r8W/K/YCgADAfToHQAEUdwGg+QAAAAgAAIAAAAACAAAgAAAAAgAAIAAAAAIAACAAAAACAAAgAAAAAgAAIAAAAAIAACAAAAACAAAgAAAAAgAAIAAAAAIAAAgAAIAAAAAIAACAAAAACAAAgAAAAAgAAIAAAAAIAACAAAAACAAAgAAAAAgAAIAAAAAIAACAAAAACAAAIAAIAAAgAAAAAgAAIAAAAAIAACAAAAACAAAgAAAAAgAAIAAAAAIAACAAAAACAAAgAAAAAgAAIAAAAAIAACAAAIAAAAAIAACAAAAACAAAgAAAAAgAAIAAAAAIAACAAAAACAAAgAAAAAgAAIAAAAAIAACAAAAACAAAgAAAAAIAACAAAAACAAAgAAAAAgAAIAAAAAIAACAAAAACAAAgAAAAAgAAIAAAAAIAACAAAAACAAAgAAAAAgAACAAAgAAAAAgAAIAAAAAIAACAAAAACAAAgAAAAAgAAIAAAAAIAACAAAAACAAAgAAAAAgAAIAAAAAIAAAgAAAAAgAAIAAAAAIAACAAAAACAAAgAAAAAgAAIAAAAAIAALAi/y/AADo/H/LEoZEiAAAAAElFTkSuQmCC" parent="1" vertex="1">
                    <mxGeometry x="112" y="-510" width="646" height="646" as="geometry"/>
                </mxCell>
                <mxCell id="53" value="" style="ellipse;shape=doubleEllipse;whiteSpace=wrap;html=1;fillColor=#1ba1e2;fontColor=#ffffff;strokeColor=#006EAF;" parent="1" vertex="1">
                    <mxGeometry x="115" y="800" width="145" height="80" as="geometry"/>
                </mxCell>
                <mxCell id="54" value="" style="shape=image;verticalLabelPosition=bottom;verticalAlign=top;imageAspect=0;aspect=fixed;image=data:image/png,iVBORw0KGgoAAAANSUhEUgAAAgAAAAIACAYAAAD0eNT6AAAACXBIWXMAAA/fAAAP3wHyuVZaAAAKvUlEQVR4nO3ZwW0bORiAUWqhQtxJvJ2kCx4tH9mFO4nTiTuZhYGctDkk2VnM2N97BdDET3n0iXPZtm0AAC1/OW8A6BEAABAkAAAgSAAAQJAAAIAgAQAAQQIAAIIEAAAECQAACBIAABAkAAAgSAAAQJAAAIAgAQAAQQIAAIIEAAAECQAACBIAABAkAAAgSAAAQJAAAIAgAQAAQQIAAIIEAAAECQAACBIAABAkAAAgSAAAQJAAAIAgAQAAQQIAAIIEAAAECQAACBIAABAkAAAgSAAAQJAAAIAgAQAAQQIAAIIEAAAECQAACBIAABAkAAAgSAAAQJAAAIAgAQAAQQIAAIIEAAAECQAACBIAABAkAAAgSAAAQJAAAIAgAQAAQQIAAIIEAAAECQAACBIAABAkAAAgSAAAQJAAAIAgAQAAQQIAAIIEAAAECQAACBIAABAkAAAgSAAAQJAAAIAgAQAAQQIAAIIEAAAECQAACBIAABAkAAAgSAAAQJAAAIAgAQAAQQIAAIIEAAAECQAACBIAABAkAAAgSAAAQJAAAIAgAQAAQQIAAIIEAAAECQAACBIAABAkAAAgSAAAQJAAAIAgAQAAQQIAAIIEAAAECQAACBIAABAkAAAgSAAAQNDVoXMma63HMcbjnluac972XG+ttet6Y4y3OefLXouttR7GGF/3Wu+Hlznn216LrbXe9/ew13rjY5zz65zzdec14Y8JAM7m/cv/aec97f0g33t/39+/YHdc7+F/2OP7F9duAfAjUL7suN74AOc8fswRTsErAAAIEgAAECQAACBIAABAkAAAgCABAABBAgAAggQAAAQJAAAIEgAAECQAACBIAABAkAAAgCABAABBAgAAggQAAAQJAAAIEgAAECQAACBIAABAkAAAgCABAABBAgAAggQAAAQJAAAIEgAAECQAACBIAABAkAAAgCABAABBAgAAgi7btjl3/mWt5YMBn8Sc8+IsuecGAACCBAAABAkAAAgSAAAQJAAAIEgAAECQAACAIAEAAEECAACCBAAABAkAAAgSAAAQJAAAIEgAAECQAACAIAEAAEECAACCBAAABAkAAAgSAAAQJAAAIEgAAECQAACAIAEAAEECAACCBAAABAkAAAgSAAAQJAAAIOiybZtzP5m11uMY4/HgXT2dbjDAn3o+eHKvc87Xg/fAnauBnNKjL2BgR2d4ngiAk/EKAACCBAAABAkAAAgSAAAQJAAAIEgAAECQAACAIAEAAEECAACCBAAABAkAAAgSAAAQJAAAIEgAAECQAACAIAEAAEECAACCrg6dz2rOeXG4/Fdrrc0Q+YzcAABAkBuAE5pz3sYYtyN35lcPfB5uw/gZNwAAECQAACBIAABAkAAAgCABAABBAgAAggQAAAQJAAAIEgAAECQAACBIAABAkAAAgCABAABBAgAAggQAAAQJAAAIEgAAEHR16PBr1lqbUZ3fnPNSnwH8CjcAABDkBuCE1lq3McZTfQ7APk5we/U857wdvAfuuAEAgCABAABBAgAAggQAAAQJAAAIEgAAECQAACBIAABAkAAAgCABAABBAgAAggQAAAQJAAAIEgAAECQAACBIAABAkAAAgCABAABBAgAAgq4O/ZTexhjfD97Yl5POBvh9Rz9P3g7++/yEADihOefLGOPlyJ2ttbazzgf4PXPORyPjnlcAABAkAAAgSAAAQJAAAIAgAQAAQQIAAIIEAAAECQAACBIAABAkAAAgSAAAQJAAAIAgAQAAQQIAAIIEAAAECQAACBIAABAkAAAg6OrQz2et9TDGeKjPAdjHWuvx4FG+zTnfDt4DdwTAOX0dYzzVhwDs5tvBo3weY9wO3gN3vAIAgCABAABBAgAAggQAAAQJAAAIEgAAECQAACBIAABAkAAAgCABAABBAgAAggQAAAQJAAAIEgAAECQAACBIAABAkAAAgCABAABBAgAAgq4O/ZRexhivB2/s20lnA/y+vw+e2dvBf5+fEAAnNOd8O/ofZq111vEAv2nOefQPCk7IKwAACBIAABAkAAAgSAAAQJAAAIAgAQAAQQIAAIIEAAAECQAACBIAABAkAAAgSAAAQJAAAIAgAQAAQQIAAIIEAAAECQAACBIAABB0dejns9b6Osb4Wp8DsI+11uvBo3yZc74cvAfuCIBzehhjfKkPAdjN0c+TowOEn/AKAACCBAAABAkAAAgSAAAQJAAAIEgAAECQAACAIAEAAEECAACCBAAABAkAAAgSAAAQJAAAIEgAAECQAACAIAEAAEECAACCBAAABAkAAAi6OvTzmXPexhi3Ize21tpOOh7gN805L2bGPTcAABDkBgB+kV9RwGfiBgAAggQAAAQJAAAIEgAAECQAACBIAABAkAAAgCABAABBAgAAggQAAAQJAAAIEgAAECQAACBIAABAkAAAgCABAABBAgAAgq4O/XzWWrcxxlN9DsA+1lrbwaN8nnPeDt4Dd9wAAECQGwA+rRP86gE4LTcAABAkAAAgSAAAQJAAAIAgAQAAQQIAAIIEAAAECQAACBIAABAkAAAgSAAAQJAAAIAgAQAAQQIAAIIEAAAECQAACBIAABB0dein9HqCTT2dYA/APp4PnuMZnmncuWzbZib8y1rLBwM+iTnnxVlyzysAAAgSAAAQJAAAIEgAAECQAACAIAEAAEECAACCBAAABAkAAAgSAAAQJAAAIEgAAECQAACAIAEAAEECAACCBAAABAkAAAgSAAAQJAAAIEgAAECQAACAIAEAAEECAACCBAAABAkAAAgSAAAQJAAAIEgAAECQAACAoMu2bc6d01hr3cYYT3vuZ8552XO9tdbe/zTf55yPey221npf69te6/3w95zzda/F1lrva33Za73xMc75ec5523lN+GNuAAAgSAAAQJAAAIAgAQAAQQIAAIIEAAAECQAACBIAABAkAAAgSAAAQJAAAIAgAQAAQQIAAIIEAAAECQAACBIAABAkAAAgSAAAQJAAAIAgAQAAQQIAAIIEAAAECQAACBIAABAkAAAgSAAAQJAAAIAgAQAAQQIAAIIEAAAECQAACLo6dE7m9QMcyPPO6739D+udfY8vH+Cs957hR/hsE3LZts15A0CMVwAAECQAACBIAABAkAAAgCABAABBAgAAggQAAAQJAAAIEgAAECQAACBIAABAkAAAgCABAABBAgAAggQAAAQJAAAIEgAAECQAACBIAABAkAAAgCABAABBAgAAggQAAAQJAAAIEgAAECQAACBIAABAkAAAgCABAABBAgAAggQAAAQJAAAIEgAAECQAACBIAABAkAAAgCABAABBAgAAggQAAAQJAAAIEgAAECQAACBIAABAkAAAgCABAABBAgAAggQAAAQJAAAIEgAAECQAACBIAABAkAAAgCABAABBAgAAggQAAAQJAAAIEgAAECQAACBIAABAkAAAgCABAABBAgAAggQAAAQJAAAIEgAAECQAACBIAABAkAAAgCABAABBAgAAggQAAAQJAAAIEgAAECQAACBIAABAkAAAgCABAABBAgAAggQAAAQJAAAIEgAAECQAACBIAABAkAAAgCABAABBAgAAggQAAAQJAAAIEgAAECQAACBIAABAkAAAgCABAABBAgAAggQAAAQJAAAIEgAAECQAACBIAABAkAAAgJoxxj+fJLQL3SHk7AAAAABJRU5ErkJggg==" parent="1" vertex="1">
                    <mxGeometry x="180" y="805" width="70" height="70" as="geometry"/>
                </mxCell>
                <mxCell id="55" value="" style="shape=image;verticalLabelPosition=bottom;verticalAlign=top;imageAspect=0;aspect=fixed;image=data:image/png,iVBORw0KGgoAAAANSUhEUgAAAgAAAAIACAYAAAD0eNT6AAAAGXRFWHRTb2Z0d2FyZQBBZG9iZSBJbWFnZVJlYWR5ccllPAAAA3ZpVFh0WE1MOmNvbS5hZG9iZS54bXAAAAAAADw/eHBhY2tldCBiZWdpbj0i77u/IiBpZD0iVzVNME1wQ2VoaUh6cmVTek5UY3prYzlkIj8+IDx4OnhtcG1ldGEgeG1sbnM6eD0iYWRvYmU6bnM6bWV0YS8iIHg6eG1wdGs9IkFkb2JlIFhNUCBDb3JlIDUuNi1jMTExIDc5LjE1ODMyNSwgMjAxNS8wOS8xMC0wMToxMDoyMCAgICAgICAgIj4gPHJkZjpSREYgeG1sbnM6cmRmPSJodHRwOi8vd3d3LnczLm9yZy8xOTk5LzAyLzIyLXJkZi1zeW50YXgtbnMjIj4gPHJkZjpEZXNjcmlwdGlvbiByZGY6YWJvdXQ9IiIgeG1sbnM6eG1wTU09Imh0dHA6Ly9ucy5hZG9iZS5jb20veGFwLzEuMC9tbS8iIHhtbG5zOnN0UmVmPSJodHRwOi8vbnMuYWRvYmUuY29tL3hhcC8xLjAvc1R5cGUvUmVzb3VyY2VSZWYjIiB4bWxuczp4bXA9Imh0dHA6Ly9ucy5hZG9iZS5jb20veGFwLzEuMC8iIHhtcE1NOk9yaWdpbmFsRG9jdW1lbnRJRD0ieG1wLmRpZDowMjE0NTc3Zi04MmQ2LTA4NGQtYTlmMS1kMDc0M2FiYjA1OGQiIHhtcE1NOkRvY3VtZW50SUQ9InhtcC5kaWQ6OTQ4RDJGMzRCRjVFMTFFNTg0MEVEQkU2REM3QTkxQUQiIHhtcE1NOkluc3RhbmNlSUQ9InhtcC5paWQ6OTQ4RDJGMzNCRjVFMTFFNTg0MEVEQkU2REM3QTkxQUQiIHhtcDpDcmVhdG9yVG9vbD0iQWRvYmUgUGhvdG9zaG9wIENDIDIwMTUgKFdpbmRvd3MpIj4gPHhtcE1NOkRlcml2ZWRGcm9tIHN0UmVmOmluc3RhbmNlSUQ9InhtcC5paWQ6MDIxNDU3N2YtODJkNi0wODRkLWE5ZjEtZDA3NDNhYmIwNThkIiBzdFJlZjpkb2N1bWVudElEPSJ4bXAuZGlkOjAyMTQ1NzdmLTgyZDYtMDg0ZC1hOWYxLWQwNzQzYWJiMDU4ZCIvPiA8L3JkZjpEZXNjcmlwdGlvbj4gPC9yZGY6UkRGPiA8L3g6eG1wbWV0YT4gPD94cGFja2V0IGVuZD0iciI/PpNX8NsAAAe+SURBVHja7NzBbYNAFEXREE0BKSElpAS7JK/4O3v5y3AnUAIluAR3QNhm4SiRMB4x50goOyIelnyVkdLN8/wGALSlEwAAIAAAAAEAAAgAAEAAAAACAAAQAACAAAAABAAAIAAAAAEAAAgAAEAAAAACAAAQAACAAAAABAAAIAAAQAAAAAIAABAAAIAAAAAEAAAgAAAAAQAACAAAQAAAAAIAABAAAIAAAAAEAAAgAAAAAQAACAAAQAAAgAAAAAQAACAAAAABAAAIAABAAAAAAgAAEAAAgAAAAAQAACAAAAABAAAIAABAAAAAAgAAEAAAgAAAAAEAAAgAAEAAAAACAAAQAACAAAAABAAAIAAAAAEAAAgAAEAAAAACAAAQAACAAAAABAAAIAAAAAEAAALACgAgAAAAAQAACAAAQAAAAAIAABAAAIAAAAAEAAAgAAAAAQAACAAAQAAAAAIAABAAAIAAAAAEAAAIAAHAbj7MXWcEfsjMYflxWPGWY9/3R8uyB+8mAAABAAAIAABAAAAAAgAAEAAAgAAAAAQAACAAAAABAAAIAABAAAAAAgAAEAAAgAAAAAQAACAAAAABAAACAAAQAACAAAAABAAAIAAAAAEAAAgAAEAAAAACAAAQAACAAAAABAAAIAAAAAEAAAgAAEAAAAACAAAEAAAgAAAAAQAACAAAQAAAAAIAABAAAIAAAAAEAAAgAAAAAQAACAAAQAAAAAIAABAAAIAAAAAEAAAIAABAAAAAAgAAEAAAgAAAAAQAACAAAAABAAAIAABAAAAAAgAAEAAAgAAAAAQAACAAAAABAAAIAAAQAABAY4oJ2IvMvFihSreIuJoBBAA8y9kEVRqXSwBAZRwBAIAAAAAEAAAgAAAAAQAACAAAQAAAAAIAABAAAIAAAAAEAAAgAAAAAQAACAAAQAAAAAIAABAAAIAAAAABAAA0opgAHpqW69Tgcw9ePQgAaNk9IsbWHjozvXlogCMAABAAAIAAAAAEAAAgAAAAAQAACAAAQAAAAAIAABAAAIAAAAAEAAAgAAAAAQAACAAAQAAAAAIAABAAACAAAAABAAAIAABAAAAAAgAAEAAAgAAAAAQAACAAAAABAAAIAABAAAAAAgAAEAAAgAAAAAQAACAAAEAAAAACAAAQAACAAAAABAAAIAAAAAEAAAgAAEAAAAACAAAQAACAAAAABAAAIAAAAAEAAAgAAEAAAIAAAAAEAAAgAAAAAQAACAAAQAAAAAIAAKhQMQHwZJ+ZeXnV7zY/CADgdV/CZzNAXRwBAIAAAAAEAAAgAAAAAQAACAAAQAAAAAIAABAAAIAAAAAEAAAgAAAAAQAACAAAQAAAAAIAABAAAIAAAAABAAA0opgAeLJpuU47eZa714kAAPjjl2ZEjHt5mL7vvVF2wREAAAgAAEAAAAACAAAQAACAAAAABAAAIAAAAAEAAAgAAEAAAAACAAAQAACAAAAABAAAIAAAAAEAAAgAABAAAIAAAAAEAAAgAAAAAQAACAAAQAAAAAIAABAAAIAAAAAEAAAgAAAAAQAACAAAQAAAAAIAABAAACAAAAABAAAIAABAAAAAAgAAEAAAgAAAAAQAACAAAAABAAAIAABAAAAAAgAAEAAAgAAAAAQAACAAAEAAAAACAAAQAACAAAAABAAAIAAAAAEAAAgAAEAAAAACAAAQAACAAAAABAAAIAAAAAEAAPyimAC2k5mXlW95i4irZQEBAHU7r3y/cbkEAPBvjgAAQAAAAAIAABAAAIAAAAAEAAAgAAAAAQAACAAAQAAAAAIAABAAAIAAAAAEAAAgAAAAAQAACAAAQAAAgAAAABpRTACbOq58v7tJAQEAlYuI0QpADRwBAIAAAAAEAAAgAAAAAQAACAAAQAAAAAIAABAAAIAAAAC25F8Bw4Yyc1j5llNEnCwLCACo28EEQA0cAQCAAAAABAAAIAAAAAEAAAgAAEAAAAACAAAQAACAAAAABAAAIAAAAAEAAAgAAEAAAAACAAAQAACAAAAAAQAANKKYALYTEZ0VAH8BAAAEAAAgAAAAAQAACAAAQAAAAAIAABAAAIAAAAABAAAIAABAAAAAAgAAEAAAgAAAAAQAACAAAAABAAAIAABgM8UE8NBXZg5mAAQAtOVjuQ5mAPbIEQAACAAAQAAAAAIAABAAAIAAAAAEAAAgAAAAAQAACAAAQAAAAAIAABAAAIAAAAAEAAAgAAAAAQAACAAAEAAAQCO6eZ6tAAACAAAQAACAAAAABAAAIAAAAAEAAAgAAEAAAAACAAAQAACAAAAABAAAIAAAAAEAAAgAAEAAAIAAEAAAIAAAAAEAAAgAAEAAAAACAAAQAACAAAAABAAAIAAAAAEAAAgAAEAAAAACAAAQAACAAAAABAAAIAAAQAAAAAIAABAAAIAAAAAEAAAgAAAAAQAACAAAQAAAAAIAABAAAIAAAAAEAAAgAAAAAQAACAAAQAAAgAAAAAQAACAAAAABAAAIAABAAAAAAgAAEAAAgAAAAAQAACAAAAABAAAIAABAAAAAAgAAEAAAgAAAAAEAAAgAAEAAAAACAAAQAACAAAAABAAAIAAAAAEAAAgAAEAAAAACAAAQAACAAAAABAAAIAAAAAEAAALACgDQmG8BBgC0rD5xXt71agAAAABJRU5ErkJggg==" parent="1" vertex="1">
                    <mxGeometry x="130" y="805" width="60" height="60" as="geometry"/>
                </mxCell>
                <mxCell id="56" value="" style="ellipse;shape=doubleEllipse;whiteSpace=wrap;html=1;fillColor=#6a00ff;fontColor=#ffffff;strokeColor=#3700CC;" parent="1" vertex="1">
                    <mxGeometry x="115" y="580" width="145" height="80" as="geometry"/>
                </mxCell>
                <mxCell id="57" value="" style="shape=image;verticalLabelPosition=bottom;verticalAlign=top;imageAspect=0;aspect=fixed;image=data:image/png,iVBORw0KGgoAAAANSUhEUgAAAgAAAAIACAYAAAD0eNT6AAAACXBIWXMAAA/fAAAP3wHyuVZaAAAKvUlEQVR4nO3ZwW0bORiAUWqhQtxJvJ2kCx4tH9mFO4nTiTuZhYGctDkk2VnM2N97BdDET3n0iXPZtm0AAC1/OW8A6BEAABAkAAAgSAAAQJAAAIAgAQAAQQIAAIIEAAAECQAACBIAABAkAAAgSAAAQJAAAIAgAQAAQQIAAIIEAAAECQAACBIAABAkAAAgSAAAQJAAAIAgAQAAQQIAAIIEAAAECQAACBIAABAkAAAgSAAAQJAAAIAgAQAAQQIAAIIEAAAECQAACBIAABAkAAAgSAAAQJAAAIAgAQAAQQIAAIIEAAAECQAACBIAABAkAAAgSAAAQJAAAIAgAQAAQQIAAIIEAAAECQAACBIAABAkAAAgSAAAQJAAAIAgAQAAQQIAAIIEAAAECQAACBIAABAkAAAgSAAAQJAAAIAgAQAAQQIAAIIEAAAECQAACBIAABAkAAAgSAAAQJAAAIAgAQAAQQIAAIIEAAAECQAACBIAABAkAAAgSAAAQJAAAIAgAQAAQQIAAIIEAAAECQAACBIAABAkAAAgSAAAQJAAAIAgAQAAQQIAAIIEAAAECQAACBIAABAkAAAgSAAAQJAAAIAgAQAAQQIAAIIEAAAECQAACBIAABAkAAAgSAAAQNDVoXMma63HMcbjnluac972XG+ttet6Y4y3OefLXouttR7GGF/3Wu+Hlznn216LrbXe9/ew13rjY5zz65zzdec14Y8JAM7m/cv/aec97f0g33t/39+/YHdc7+F/2OP7F9duAfAjUL7suN74AOc8fswRTsErAAAIEgAAECQAACBIAABAkAAAgCABAABBAgAAggQAAAQJAAAIEgAAECQAACBIAABAkAAAgCABAABBAgAAggQAAAQJAAAIEgAAECQAACBIAABAkAAAgCABAABBAgAAggQAAAQJAAAIEgAAECQAACBIAABAkAAAgCABAABBAgAAgi7btjl3/mWt5YMBn8Sc8+IsuecGAACCBAAABAkAAAgSAAAQJAAAIEgAAECQAACAIAEAAEECAACCBAAABAkAAAgSAAAQJAAAIEgAAECQAACAIAEAAEECAACCBAAABAkAAAgSAAAQJAAAIEgAAECQAACAIAEAAEECAACCBAAABAkAAAgSAAAQJAAAIOiybZtzP5m11uMY4/HgXT2dbjDAn3o+eHKvc87Xg/fAnauBnNKjL2BgR2d4ngiAk/EKAACCBAAABAkAAAgSAAAQJAAAIEgAAECQAACAIAEAAEECAACCBAAABAkAAAgSAAAQJAAAIEgAAECQAACAIAEAAEECAACCrg6dz2rOeXG4/Fdrrc0Q+YzcAABAkBuAE5pz3sYYtyN35lcPfB5uw/gZNwAAECQAACBIAABAkAAAgCABAABBAgAAggQAAAQJAAAIEgAAECQAACBIAABAkAAAgCABAABBAgAAggQAAAQJAAAIEgAAEHR16PBr1lqbUZ3fnPNSnwH8CjcAABDkBuCE1lq3McZTfQ7APk5we/U857wdvAfuuAEAgCABAABBAgAAggQAAAQJAAAIEgAAECQAACBIAABAkAAAgCABAABBAgAAggQAAAQJAAAIEgAAECQAACBIAABAkAAAgCABAABBAgAAgq4O/ZTexhjfD97Yl5POBvh9Rz9P3g7++/yEADihOefLGOPlyJ2ttbazzgf4PXPORyPjnlcAABAkAAAgSAAAQJAAAIAgAQAAQQIAAIIEAAAECQAACBIAABAkAAAgSAAAQJAAAIAgAQAAQQIAAIIEAAAECQAACBIAABAkAAAg6OrQz2et9TDGeKjPAdjHWuvx4FG+zTnfDt4DdwTAOX0dYzzVhwDs5tvBo3weY9wO3gN3vAIAgCABAABBAgAAggQAAAQJAAAIEgAAECQAACBIAABAkAAAgCABAABBAgAAggQAAAQJAAAIEgAAECQAACBIAABAkAAAgCABAABBAgAAgq4O/ZRexhivB2/s20lnA/y+vw+e2dvBf5+fEAAnNOd8O/ofZq111vEAv2nOefQPCk7IKwAACBIAABAkAAAgSAAAQJAAAIAgAQAAQQIAAIIEAAAECQAACBIAABAkAAAgSAAAQJAAAIAgAQAAQQIAAIIEAAAECQAACBIAABB0dejns9b6Osb4Wp8DsI+11uvBo3yZc74cvAfuCIBzehhjfKkPAdjN0c+TowOEn/AKAACCBAAABAkAAAgSAAAQJAAAIEgAAECQAACAIAEAAEECAACCBAAABAkAAAgSAAAQJAAAIEgAAECQAACAIAEAAEECAACCBAAABAkAAAi6OvTzmXPexhi3Ize21tpOOh7gN805L2bGPTcAABDkBgB+kV9RwGfiBgAAggQAAAQJAAAIEgAAECQAACBIAABAkAAAgCABAABBAgAAggQAAAQJAAAIEgAAECQAACBIAABAkAAAgCABAABBAgAAgq4O/XzWWrcxxlN9DsA+1lrbwaN8nnPeDt4Dd9wAAECQGwA+rRP86gE4LTcAABAkAAAgSAAAQJAAAIAgAQAAQQIAAIIEAAAECQAACBIAABAkAAAgSAAAQJAAAIAgAQAAQQIAAIIEAAAECQAACBIAABB0dein9HqCTT2dYA/APp4PnuMZnmncuWzbZib8y1rLBwM+iTnnxVlyzysAAAgSAAAQJAAAIEgAAECQAACAIAEAAEECAACCBAAABAkAAAgSAAAQJAAAIEgAAECQAACAIAEAAEECAACCBAAABAkAAAgSAAAQJAAAIEgAAECQAACAIAEAAEECAACCBAAABAkAAAgSAAAQJAAAIEgAAECQAACAoMu2bc6d01hr3cYYT3vuZ8552XO9tdbe/zTf55yPey221npf69te6/3w95zzda/F1lrva33Za73xMc75ec5523lN+GNuAAAgSAAAQJAAAIAgAQAAQQIAAIIEAAAECQAACBIAABAkAAAgSAAAQJAAAIAgAQAAQQIAAIIEAAAECQAACBIAABAkAAAgSAAAQJAAAIAgAQAAQQIAAIIEAAAECQAACBIAABAkAAAgSAAAQJAAAIAgAQAAQQIAAIIEAAAECQAACLo6dE7m9QMcyPPO6739D+udfY8vH+Cs957hR/hsE3LZts15A0CMVwAAECQAACBIAABAkAAAgCABAABBAgAAggQAAAQJAAAIEgAAECQAACBIAABAkAAAgCABAABBAgAAggQAAAQJAAAIEgAAECQAACBIAABAkAAAgCABAABBAgAAggQAAAQJAAAIEgAAECQAACBIAABAkAAAgCABAABBAgAAggQAAAQJAAAIEgAAECQAACBIAABAkAAAgCABAABBAgAAggQAAAQJAAAIEgAAECQAACBIAABAkAAAgCABAABBAgAAggQAAAQJAAAIEgAAECQAACBIAABAkAAAgCABAABBAgAAggQAAAQJAAAIEgAAECQAACBIAABAkAAAgCABAABBAgAAggQAAAQJAAAIEgAAECQAACBIAABAkAAAgCABAABBAgAAggQAAAQJAAAIEgAAECQAACBIAABAkAAAgCABAABBAgAAggQAAAQJAAAIEgAAECQAACBIAABAkAAAgCABAABBAgAAggQAAAQJAAAIEgAAECQAACBIAABAkAAAgCABAABBAgAAggQAAAQJAAAIEgAAECQAACBIAABAkAAAgJoxxj+fJLQL3SHk7AAAAABJRU5ErkJggg==" parent="1" vertex="1">
                    <mxGeometry x="180" y="585" width="70" height="70" as="geometry"/>
                </mxCell>
                <mxCell id="58" value="" style="shape=image;verticalLabelPosition=bottom;verticalAlign=top;imageAspect=0;aspect=fixed;image=data:image/png,iVBORw0KGgoAAAANSUhEUgAAAgAAAAIACAYAAAD0eNT6AAAAGXRFWHRTb2Z0d2FyZQBBZG9iZSBJbWFnZVJlYWR5ccllPAAAA3ZpVFh0WE1MOmNvbS5hZG9iZS54bXAAAAAAADw/eHBhY2tldCBiZWdpbj0i77u/IiBpZD0iVzVNME1wQ2VoaUh6cmVTek5UY3prYzlkIj8+IDx4OnhtcG1ldGEgeG1sbnM6eD0iYWRvYmU6bnM6bWV0YS8iIHg6eG1wdGs9IkFkb2JlIFhNUCBDb3JlIDUuNi1jMTExIDc5LjE1ODMyNSwgMjAxNS8wOS8xMC0wMToxMDoyMCAgICAgICAgIj4gPHJkZjpSREYgeG1sbnM6cmRmPSJodHRwOi8vd3d3LnczLm9yZy8xOTk5LzAyLzIyLXJkZi1zeW50YXgtbnMjIj4gPHJkZjpEZXNjcmlwdGlvbiByZGY6YWJvdXQ9IiIgeG1sbnM6eG1wTU09Imh0dHA6Ly9ucy5hZG9iZS5jb20veGFwLzEuMC9tbS8iIHhtbG5zOnN0UmVmPSJodHRwOi8vbnMuYWRvYmUuY29tL3hhcC8xLjAvc1R5cGUvUmVzb3VyY2VSZWYjIiB4bWxuczp4bXA9Imh0dHA6Ly9ucy5hZG9iZS5jb20veGFwLzEuMC8iIHhtcE1NOk9yaWdpbmFsRG9jdW1lbnRJRD0ieG1wLmRpZDowMjE0NTc3Zi04MmQ2LTA4NGQtYTlmMS1kMDc0M2FiYjA1OGQiIHhtcE1NOkRvY3VtZW50SUQ9InhtcC5kaWQ6OTQ4RDJGMzRCRjVFMTFFNTg0MEVEQkU2REM3QTkxQUQiIHhtcE1NOkluc3RhbmNlSUQ9InhtcC5paWQ6OTQ4RDJGMzNCRjVFMTFFNTg0MEVEQkU2REM3QTkxQUQiIHhtcDpDcmVhdG9yVG9vbD0iQWRvYmUgUGhvdG9zaG9wIENDIDIwMTUgKFdpbmRvd3MpIj4gPHhtcE1NOkRlcml2ZWRGcm9tIHN0UmVmOmluc3RhbmNlSUQ9InhtcC5paWQ6MDIxNDU3N2YtODJkNi0wODRkLWE5ZjEtZDA3NDNhYmIwNThkIiBzdFJlZjpkb2N1bWVudElEPSJ4bXAuZGlkOjAyMTQ1NzdmLTgyZDYtMDg0ZC1hOWYxLWQwNzQzYWJiMDU4ZCIvPiA8L3JkZjpEZXNjcmlwdGlvbj4gPC9yZGY6UkRGPiA8L3g6eG1wbWV0YT4gPD94cGFja2V0IGVuZD0iciI/PpNX8NsAAAe+SURBVHja7NzBbYNAFEXREE0BKSElpAS7JK/4O3v5y3AnUAIluAR3QNhm4SiRMB4x50goOyIelnyVkdLN8/wGALSlEwAAIAAAAAEAAAgAAEAAAAACAAAQAACAAAAABAAAIAAAAAEAAAgAAEAAAAACAAAQAACAAAAABAAAIAAAQAAAAAIAABAAAIAAAAAEAAAgAAAAAQAACAAAQAAAAAIAABAAAIAAAAAEAAAgAAAAAQAACAAAQAAAgAAAAAQAACAAAAABAAAIAABAAAAAAgAAEAAAgAAAAAQAACAAAAABAAAIAABAAAAAAgAAEAAAgAAAAAEAAAgAAEAAAAACAAAQAACAAAAABAAAIAAAAAEAAAgAAEAAAAACAAAQAACAAAAABAAAIAAAAAEAAALACgAgAAAAAQAACAAAQAAAAAIAABAAAIAAAAAEAAAgAAAAAQAACAAAQAAAAAIAABAAAIAAAAAEAAAIAAHAbj7MXWcEfsjMYflxWPGWY9/3R8uyB+8mAAABAAAIAABAAAAAAgAAEAAAgAAAAAQAACAAAAABAAAIAABAAAAAAgAAEAAAgAAAAAQAACAAAAABAAACAAAQAACAAAAABAAAIAAAAAEAAAgAAEAAAAACAAAQAACAAAAABAAAIAAAAAEAAAgAAEAAAAACAAAEAAAgAAAAAQAACAAAQAAAAAIAABAAAIAAAAAEAAAgAAAAAQAACAAAQAAAAAIAABAAAIAAAAAEAAAIAABAAAAAAgAAEAAAgAAAAAQAACAAAAABAAAIAABAAAAAAgAAEAAAgAAAAAQAACAAAAABAAAIAAAQAABAY4oJ2IvMvFihSreIuJoBBAA8y9kEVRqXSwBAZRwBAIAAAAAEAAAgAAAAAQAACAAAQAAAAAIAABAAAIAAAAAEAAAgAAAAAQAACAAAQAAAAAIAABAAAIAAAAABAAA0opgAHpqW69Tgcw9ePQgAaNk9IsbWHjozvXlogCMAABAAAIAAAAAEAAAgAAAAAQAACAAAQAAAAAIAABAAAIAAAAAEAAAgAAAAAQAACAAAQAAAAAIAABAAACAAAAABAAAIAABAAAAAAgAAEAAAgAAAAAQAACAAAAABAAAIAABAAAAAAgAAEAAAgAAAAAQAACAAAEAAAAACAAAQAACAAAAABAAAIAAAAAEAAAgAAEAAAAACAAAQAACAAAAABAAAIAAAAAEAAAgAAEAAAIAAAAAEAAAgAAAAAQAACAAAQAAAAAIAAKhQMQHwZJ+ZeXnV7zY/CADgdV/CZzNAXRwBAIAAAAAEAAAgAAAAAQAACAAAQAAAAAIAABAAAIAAAAAEAAAgAAAAAQAACAAAQAAAAAIAABAAAIAAAAABAAA0opgAeLJpuU47eZa714kAAPjjl2ZEjHt5mL7vvVF2wREAAAgAAEAAAAACAAAQAACAAAAABAAAIAAAAAEAAAgAAEAAAAACAAAQAACAAAAABAAAIAAAAAEAAAgAABAAAIAAAAAEAAAgAAAAAQAACAAAQAAAAAIAABAAAIAAAAAEAAAgAAAAAQAACAAAQAAAAAIAABAAACAAAAABAAAIAABAAAAAAgAAEAAAgAAAAAQAACAAAAABAAAIAABAAAAAAgAAEAAAgAAAAAQAACAAAEAAAAACAAAQAACAAAAABAAAIAAAAAEAAAgAAEAAAAACAAAQAACAAAAABAAAIAAAAAEAAPyimAC2k5mXlW95i4irZQEBAHU7r3y/cbkEAPBvjgAAQAAAAAIAABAAAIAAAAAEAAAgAAAAAQAACAAAQAAAAAIAABAAAIAAAAAEAAAgAAAAAQAACAAAQAAAgAAAABpRTACbOq58v7tJAQEAlYuI0QpADRwBAIAAAAAEAAAgAAAAAQAACAAAQAAAAAIAABAAAIAAAAC25F8Bw4Yyc1j5llNEnCwLCACo28EEQA0cAQCAAAAABAAAIAAAAAEAAAgAAEAAAAACAAAQAACAAAAABAAAIAAAAAEAAAgAAEAAAAACAAAQAACAAAAAAQAANKKYALYTEZ0VAH8BAAAEAAAgAAAAAQAACAAAQAAAAAIAABAAAIAAAAABAAAIAABAAAAAAgAAEAAAgAAAAAQAACAAAAABAAAIAABgM8UE8NBXZg5mAAQAtOVjuQ5mAPbIEQAACAAAQAAAAAIAABAAAIAAAAAEAAAgAAAAAQAACAAAQAAAAAIAABAAAIAAAAAEAAAgAAAAAQAACAAAEAAAQCO6eZ6tAAACAAAQAACAAAAABAAAIAAAAAEAAAgAAEAAAAACAAAQAACAAAAABAAAIAAAAAEAAAgAAEAAAIAAEAAAIAAAAAEAAAgAAEAAAAACAAAQAACAAAAABAAAIAAAAAEAAAgAAEAAAAACAAAQAACAAAAABAAAIAAAQAAAAAIAABAAAIAAAAAEAAAgAAAAAQAACAAAQAAAAAIAABAAAIAAAAAEAAAgAAAAAQAACAAAQAAAgAAAAAQAACAAAAABAAAIAABAAAAAAgAAEAAAgAAAAAQAACAAAAABAAAIAABAAAAAAgAAEAAAgAAAAAEAAAgAAEAAAAACAAAQAACAAAAABAAAIAAAAAEAAAgAAEAAAAACAAAQAACAAAAABAAAIAAAAAEAAALACgDQmG8BBgC0rD5xXt71agAAAABJRU5ErkJggg==" parent="1" vertex="1">
                    <mxGeometry x="130" y="585" width="50" height="50" as="geometry"/>
                </mxCell>
                <mxCell id="59" value="" style="shape=flexArrow;endArrow=classic;html=1;exitX=0.5;exitY=0;exitDx=0;exitDy=0;" parent="1" source="57" edge="1">
                    <mxGeometry width="50" height="50" relative="1" as="geometry">
                        <mxPoint x="477" y="469.24050632911394" as="sourcePoint"/>
                        <mxPoint x="220" y="450" as="targetPoint"/>
                        <Array as="points"/>
                    </mxGeometry>
                </mxCell>
                <mxCell id="60" value="" style="shape=flexArrow;endArrow=classic;html=1;exitX=0.5;exitY=0;exitDx=0;exitDy=0;" parent="1" edge="1">
                    <mxGeometry width="50" height="50" relative="1" as="geometry">
                        <mxPoint x="202.5" y="795" as="sourcePoint"/>
                        <mxPoint x="207.5" y="660" as="targetPoint"/>
                        <Array as="points"/>
                    </mxGeometry>
                </mxCell>
                <mxCell id="61" value="&lt;font style=&quot;font-size: 27px;&quot;&gt;Lora&amp;nbsp;&lt;br&gt;repeater&lt;/font&gt;" style="text;html=1;strokeColor=none;fillColor=none;align=center;verticalAlign=middle;whiteSpace=wrap;rounded=0;" parent="1" vertex="1">
                    <mxGeometry x="280" y="585" width="60" height="30" as="geometry"/>
                </mxCell>
                <mxCell id="66" value="&lt;font style=&quot;font-size: 27px;&quot;&gt;ESP&amp;nbsp;&lt;br&gt;repeater&lt;/font&gt;" style="text;html=1;strokeColor=none;fillColor=none;align=center;verticalAlign=middle;whiteSpace=wrap;rounded=0;" vertex="1" parent="1">
                    <mxGeometry x="620" y="510" width="60" height="30" as="geometry"/>
                </mxCell>
                <mxCell id="71" value="" style="shape=image;verticalLabelPosition=bottom;verticalAlign=top;imageAspect=0;aspect=fixed;image=data:image/png,iVBORw0KGgoAAAANSUhEUgAAAgAAAAIACAYAAAD0eNT6AAAAGXRFWHRTb2Z0d2FyZQBBZG9iZSBJbWFnZVJlYWR5ccllPAAAA3ZpVFh0WE1MOmNvbS5hZG9iZS54bXAAAAAAADw/eHBhY2tldCBiZWdpbj0i77u/IiBpZD0iVzVNME1wQ2VoaUh6cmVTek5UY3prYzlkIj8+IDx4OnhtcG1ldGEgeG1sbnM6eD0iYWRvYmU6bnM6bWV0YS8iIHg6eG1wdGs9IkFkb2JlIFhNUCBDb3JlIDUuNi1jMTExIDc5LjE1ODMyNSwgMjAxNS8wOS8xMC0wMToxMDoyMCAgICAgICAgIj4gPHJkZjpSREYgeG1sbnM6cmRmPSJodHRwOi8vd3d3LnczLm9yZy8xOTk5LzAyLzIyLXJkZi1zeW50YXgtbnMjIj4gPHJkZjpEZXNjcmlwdGlvbiByZGY6YWJvdXQ9IiIgeG1sbnM6eG1wTU09Imh0dHA6Ly9ucy5hZG9iZS5jb20veGFwLzEuMC9tbS8iIHhtbG5zOnN0UmVmPSJodHRwOi8vbnMuYWRvYmUuY29tL3hhcC8xLjAvc1R5cGUvUmVzb3VyY2VSZWYjIiB4bWxuczp4bXA9Imh0dHA6Ly9ucy5hZG9iZS5jb20veGFwLzEuMC8iIHhtcE1NOk9yaWdpbmFsRG9jdW1lbnRJRD0ieG1wLmRpZDowMjE0NTc3Zi04MmQ2LTA4NGQtYTlmMS1kMDc0M2FiYjA1OGQiIHhtcE1NOkRvY3VtZW50SUQ9InhtcC5kaWQ6OTQ4RDJGMzRCRjVFMTFFNTg0MEVEQkU2REM3QTkxQUQiIHhtcE1NOkluc3RhbmNlSUQ9InhtcC5paWQ6OTQ4RDJGMzNCRjVFMTFFNTg0MEVEQkU2REM3QTkxQUQiIHhtcDpDcmVhdG9yVG9vbD0iQWRvYmUgUGhvdG9zaG9wIENDIDIwMTUgKFdpbmRvd3MpIj4gPHhtcE1NOkRlcml2ZWRGcm9tIHN0UmVmOmluc3RhbmNlSUQ9InhtcC5paWQ6MDIxNDU3N2YtODJkNi0wODRkLWE5ZjEtZDA3NDNhYmIwNThkIiBzdFJlZjpkb2N1bWVudElEPSJ4bXAuZGlkOjAyMTQ1NzdmLTgyZDYtMDg0ZC1hOWYxLWQwNzQzYWJiMDU4ZCIvPiA8L3JkZjpEZXNjcmlwdGlvbj4gPC9yZGY6UkRGPiA8L3g6eG1wbWV0YT4gPD94cGFja2V0IGVuZD0iciI/PpNX8NsAAAe+SURBVHja7NzBbYNAFEXREE0BKSElpAS7JK/4O3v5y3AnUAIluAR3QNhm4SiRMB4x50goOyIelnyVkdLN8/wGALSlEwAAIAAAAAEAAAgAAEAAAAACAAAQAACAAAAABAAAIAAAAAEAAAgAAEAAAAACAAAQAACAAAAABAAAIAAAQAAAAAIAABAAAIAAAAAEAAAgAAAAAQAACAAAQAAAAAIAABAAAIAAAAAEAAAgAAAAAQAACAAAQAAAgAAAAAQAACAAAAABAAAIAABAAAAAAgAAEAAAgAAAAAQAACAAAAABAAAIAABAAAAAAgAAEAAAgAAAAAEAAAgAAEAAAAACAAAQAACAAAAABAAAIAAAAAEAAAgAAEAAAAACAAAQAACAAAAABAAAIAAAAAEAAALACgAgAAAAAQAACAAAQAAAAAIAABAAAIAAAAAEAAAgAAAAAQAACAAAQAAAAAIAABAAAIAAAAAEAAAIAAHAbj7MXWcEfsjMYflxWPGWY9/3R8uyB+8mAAABAAAIAABAAAAAAgAAEAAAgAAAAAQAACAAAAABAAAIAABAAAAAAgAAEAAAgAAAAAQAACAAAAABAAACAAAQAACAAAAABAAAIAAAAAEAAAgAAEAAAAACAAAQAACAAAAABAAAIAAAAAEAAAgAAEAAAAACAAAEAAAgAAAAAQAACAAAQAAAAAIAABAAAIAAAAAEAAAgAAAAAQAACAAAQAAAAAIAABAAAIAAAAAEAAAIAABAAAAAAgAAEAAAgAAAAAQAACAAAAABAAAIAABAAAAAAgAAEAAAgAAAAAQAACAAAAABAAAIAAAQAABAY4oJ2IvMvFihSreIuJoBBAA8y9kEVRqXSwBAZRwBAIAAAAAEAAAgAAAAAQAACAAAQAAAAAIAABAAAIAAAAAEAAAgAAAAAQAACAAAQAAAAAIAABAAAIAAAAABAAA0opgAHpqW69Tgcw9ePQgAaNk9IsbWHjozvXlogCMAABAAAIAAAAAEAAAgAAAAAQAACAAAQAAAAAIAABAAAIAAAAAEAAAgAAAAAQAACAAAQAAAAAIAABAAACAAAAABAAAIAABAAAAAAgAAEAAAgAAAAAQAACAAAAABAAAIAABAAAAAAgAAEAAAgAAAAAQAACAAAEAAAAACAAAQAACAAAAABAAAIAAAAAEAAAgAAEAAAAACAAAQAACAAAAABAAAIAAAAAEAAAgAAEAAAIAAAAAEAAAgAAAAAQAACAAAQAAAAAIAAKhQMQHwZJ+ZeXnV7zY/CADgdV/CZzNAXRwBAIAAAAAEAAAgAAAAAQAACAAAQAAAAAIAABAAAIAAAAAEAAAgAAAAAQAACAAAQAAAAAIAABAAAIAAAAABAAA0opgAeLJpuU47eZa714kAAPjjl2ZEjHt5mL7vvVF2wREAAAgAAEAAAAACAAAQAACAAAAABAAAIAAAAAEAAAgAAEAAAAACAAAQAACAAAAABAAAIAAAAAEAAAgAABAAAIAAAAAEAAAgAAAAAQAACAAAQAAAAAIAABAAAIAAAAAEAAAgAAAAAQAACAAAQAAAAAIAABAAACAAAAABAAAIAABAAAAAAgAAEAAAgAAAAAQAACAAAAABAAAIAABAAAAAAgAAEAAAgAAAAAQAACAAAEAAAAACAAAQAACAAAAABAAAIAAAAAEAAAgAAEAAAAACAAAQAACAAAAABAAAIAAAAAEAAPyimAC2k5mXlW95i4irZQEBAHU7r3y/cbkEAPBvjgAAQAAAAAIAABAAAIAAAAAEAAAgAAAAAQAACAAAQAAAAAIAABAAAIAAAAAEAAAgAAAAAQAACAAAQAAAgAAAABpRTACbOq58v7tJAQEAlYuI0QpADRwBAIAAAAAEAAAgAAAAAQAACAAAQAAAAAIAABAAAIAAAAC25F8Bw4Yyc1j5llNEnCwLCACo28EEQA0cAQCAAAAABAAAIAAAAAEAAAgAAEAAAAACAAAQAACAAAAABAAAIAAAAAEAAAgAAEAAAAACAAAQAACAAAAAAQAANKKYALYTEZ0VAH8BAAAEAAAgAAAAAQAACAAAQAAAAAIAABAAAIAAAAABAAAIAABAAAAAAgAAEAAAgAAAAAQAACAAAAABAAAIAABgM8UE8NBXZg5mAAQAtOVjuQ5mAPbIEQAACAAAQAAAAAIAABAAAIAAAAAEAAAgAAAAAQAACAAAQAAAAAIAABAAAIAAAAAEAAAgAAAAAQAACAAAEAAAQCO6eZ6tAAACAAAQAACAAAAABAAAIAAAAAEAAAgAAEAAAAACAAAQAACAAAAABAAAIAAAAAEAAAgAAEAAAIAAEAAAIAAAAAEAAAgAAEAAAAACAAAQAACAAAAABAAAIAAAAAEAAAgAAEAAAAACAAAQAACAAAAABAAAIAAAQAAAAAIAABAAAIAAAAAEAAAgAAAAAQAACAAAQAAAAAIAABAAAIAAAAAEAAAgAAAAAQAACAAAQAAAgAAAAAQAACAAAAABAAAIAABAAAAAAgAAEAAAgAAAAAQAACAAAAABAAAIAABAAAAAAgAAEAAAgAAAAAEAAAgAAEAAAAACAAAQAACAAAAABAAAIAAAAAEAAAgAAEAAAAACAAAQAACAAAAABAAAIAAAAAEAAALACgDQmG8BBgC0rD5xXt71agAAAABJRU5ErkJggg==" vertex="1" parent="1">
                    <mxGeometry x="230" y="280" width="60" height="60" as="geometry"/>
                </mxCell>
                <mxCell id="73" value="" style="shape=image;verticalLabelPosition=bottom;verticalAlign=top;imageAspect=0;aspect=fixed;image=data:image/png,iVBORw0KGgoAAAANSUhEUgAAAgAAAAIACAYAAAD0eNT6AAAAGXRFWHRTb2Z0d2FyZQBBZG9iZSBJbWFnZVJlYWR5ccllPAAAA3ZpVFh0WE1MOmNvbS5hZG9iZS54bXAAAAAAADw/eHBhY2tldCBiZWdpbj0i77u/IiBpZD0iVzVNME1wQ2VoaUh6cmVTek5UY3prYzlkIj8+IDx4OnhtcG1ldGEgeG1sbnM6eD0iYWRvYmU6bnM6bWV0YS8iIHg6eG1wdGs9IkFkb2JlIFhNUCBDb3JlIDUuNi1jMTExIDc5LjE1ODMyNSwgMjAxNS8wOS8xMC0wMToxMDoyMCAgICAgICAgIj4gPHJkZjpSREYgeG1sbnM6cmRmPSJodHRwOi8vd3d3LnczLm9yZy8xOTk5LzAyLzIyLXJkZi1zeW50YXgtbnMjIj4gPHJkZjpEZXNjcmlwdGlvbiByZGY6YWJvdXQ9IiIgeG1sbnM6eG1wTU09Imh0dHA6Ly9ucy5hZG9iZS5jb20veGFwLzEuMC9tbS8iIHhtbG5zOnN0UmVmPSJodHRwOi8vbnMuYWRvYmUuY29tL3hhcC8xLjAvc1R5cGUvUmVzb3VyY2VSZWYjIiB4bWxuczp4bXA9Imh0dHA6Ly9ucy5hZG9iZS5jb20veGFwLzEuMC8iIHhtcE1NOk9yaWdpbmFsRG9jdW1lbnRJRD0ieG1wLmRpZDo5MTI5ZGVmOC04YmM4LTE1NGItYWE3OC02Zjk2YWY1YmQyMjIiIHhtcE1NOkRvY3VtZW50SUQ9InhtcC5kaWQ6OUFENjlFRjVCRjVFMTFFNTgyMURFQkVCOEI0ODk0MjciIHhtcE1NOkluc3RhbmNlSUQ9InhtcC5paWQ6OUFENjlFRjRCRjVFMTFFNTgyMURFQkVCOEI0ODk0MjciIHhtcDpDcmVhdG9yVG9vbD0iQWRvYmUgUGhvdG9zaG9wIENDIDIwMTUgKFdpbmRvd3MpIj4gPHhtcE1NOkRlcml2ZWRGcm9tIHN0UmVmOmluc3RhbmNlSUQ9InhtcC5paWQ6OTEyOWRlZjgtOGJjOC0xNTRiLWFhNzgtNmY5NmFmNWJkMjIyIiBzdFJlZjpkb2N1bWVudElEPSJ4bXAuZGlkOjkxMjlkZWY4LThiYzgtMTU0Yi1hYTc4LTZmOTZhZjViZDIyMiIvPiA8L3JkZjpEZXNjcmlwdGlvbj4gPC9yZGY6UkRGPiA8L3g6eG1wbWV0YT4gPD94cGFja2V0IGVuZD0iciI/PhE6qRoAAAkqSURBVHja7N3BTQMxEIbRHbQFUBKlJBVw9JbgLhZKoAJIB3RkzDESt1has/OeFIUTQqOQ/xM5EK21BQDI5ckJAEAAAAACAAAQAACAAAAABAAAIAAAAAEAAAgAAEAAAAACAAAQAACAAAAABAAAIAAAAAEAAAgAAEAAAIAAAAAEAAAgAAAAAQAACAAAQAAAAAIAABAAAIAAAAAEAAAgAAAAAQAACAAAQAAAAAIAABAAAIAAAAABAAAIAABAAAAAAgAAEAAAgAAAAAQAACAAAAABAAAIAABAAAAAAgAAEAAAgAAAAAQAACAAAAABAAACAAAQAACAAAAABAAAIAAAAAEAAAgAAEAAAAACAAAQAACAAAAABAAAIAAAAAEAAAgAAEAAAAACAAAEAAAgAAAAAQAACAAAQAAAAAIAABAAAIAAAAAEAAAgAAAAAQAACAAAQAAAAAIAABAAAIAAAAAEAAAIACcAAAEAAAgAAEAAAAACAAAQAACAAAAABAAAIAAAAAEAAAgAAEAAAAACAAAQAACAAAAABAAAIAAAAAEAAAIAABAAAIAAAAAEAAAgAAAAAQAACAAAQAAAAAIAABAAAIAAAAAEAAAgAAAAAQAACAAAQAAAAAIAAAQAACAAAAABAAAIAABAAAAAAgAAEAAAgAAAAAQAACAAAAABAAAIAABAAAAAAgAAEAAAgAAAAAQAAAgAAEAAAAACAAAQAACAAAAABAAAIAAAAAEAAAgAAOAIqxMwUkQ8/D1qrZ/96cU14V4pJVwBfwEAAAQAACAAAAABAAAIAAAQAACAAAAABAAAIAAAAAEAAAgAAEAAAAACAAAQAACAAAAABAAAIAAAAAEAAAgAAEAAAAACAAAQAACAAAAAAQAACAAAQAAAAAIAABAAAIAAAAAEAAAgAAAAAQAACAAAQAAAAAIAABAAAIAAAAAEAAAgAAAAAQAAAgAAEAAAgAAAAAQAACAAAAABAAAIAABAAAAAx1qdgAm998fNGf691/54dgaYU7TWXIFxL6gIR2Cpte796eISY5VS/IIxjI8AAOMPAgDA+IMAADD+IAAAjD8IAADjDwIAMP6AAACMPyAAAOMPCADA+AMCADD+gAAAjD8gAADjDwgAwPgDAgAw/oAAAIw/IAAA4w8IAMD4AwIAMP4gAADjb/xBAADGHxAAgPEHBABg/AEBABh/QAAAxh8QAIDxBwQAYPwBAQAYf0AAAMYfEACA8QcEAGD8AQEAGH9AAADGHxAAYPwBBAAY/7S+nQAEABj/XK798eEMIADA+Cca/23b3pwBBAAYf+MPCAAw/sYfBABg/I0/CADA+Bt/EACA8Tf+IAAA42/8QQAAxt/4gwAAjL/xBwEAGH/jDwIAMP7GHwQAYPyNPwgAwPgbfxAAYPwx/iAAwPgbf0AAgPE3/oAAAONv/AEBAMbf+AMCAIy/8QcEABh/4w8CADD+xh8EAGD8jT8IAMD4G38QAIDxN/4gAADjb/xBAADG3/iDAADj7xLGHwQAGH/jb/xBAIDxN/6AAADjb/wBAQDG3/gDAgCMv/EHBAAYf+MPCAAw/sYfEABg/I0/IADA+Bt/QACA8Tf+IAAA42/8QQAAxt/4gwAAjL/xBwEAxh/jDwIAjL/xBwQAGH/jDwgAMP7GHxAAYPyNPyAAwPgbf0AAgPE3/oAAAONv/AEBAMbf+AMCAIy/8QcEABh/4w8IADD+xh8QAGD8jT8gADD+xt/4gwAA44/xBwEAxt/4AwIAjL/xBwQAGH/jDwgAMP7GHxAAYPyNPyAAwPgbf0AAgPE3/oAAAONv/AEBAMbf+AMCAIy/8QcEABh/4w8IADD+xh8QABh/jD8gADD+xh9AAGD8jT+AAMD4G38AAYDxN/6AAADjb/wBAQDG3/gDAgCMv/EHBAAYf+MPCAAw/sYfEABg/I0/IADA+Bt/QACA8Tf+gADA+Bt/4w8IAIw/xh8QABh/4w8gADD+xh9AAGD8jT+AAMD4G38AAYDxN/4AAgDjb/wBBADG3/gDAgCMv/EHBAAYf+MPCAAw/sYfEABg/I0/IADA+Bt/QABg/DH+gAAA42/8AQHAefWhu/YnY2f8AQGACDD+AAIAEWD8AQQAIsD4AwgARIDxBxAAiADjDyAAEAHGH0AAIAKMP4AAQAQYfwABgAgw/gACABFg/AEEACLA+AMCAESA8QcEAIgA4w8IABABxh8QAJAuAow/cDqrEzBbBNRaf7+8GH8G+nICuBetNVdg3AsqYsj36RGwTxABxp+peL9mJB8BMO1fApZjPw4w/oAAgGQRYPwBAQDJIsD4AwIAkkWA8QcEACSLAOMPCABIFgHGHxAAkCwCjD8gACBZBBh/QABAsggw/oAAgGQRYPwBAeAEJIsA4w8gAEgWAcYfQACQLAKMP4AAIFkEGH8AAUCyCDD+AH8I/1+aoS+oiCl+jlrr3p9uxp8z8X6NAAAAHuIjAAAQAACAAAAABAAAIAAAAAEAAAgAAEAAAAACAAAQAACAAAAABAAAIAAAAAEAAAgAAEAAAAACAAAQAAAgAAAAAQAACAAAQAAAAAIAABAAAIAAAAAEAAAgAAAAAQAACAAAQAAAAAIAABAAAIAAAAAEAAAgAABAAAAAAgAAEAAAgAAAAAQAACAAAAABAAAIAABAAAAAAgAAEAAAgAAAAAQAACAAAAABAAAIAABAAACAAAAABAAAIAAAAAEAAAgAAEAAAAACAAAQAACAAAAABAAAIAAAAAEAAAgAAEAAAAACAAAQAACAAAAAAQAACAAAQAAAAAIAABAAAIAAAAAEAAAgAAAAAQAACAAAQAAAAAIAABAAAIAAAAAEAAAgAAAAAQAACAAAEAAAgAAAAAQAACAAAAABAAAIAABAAAAAAgAAEAAAgAAAAAQAACAAAAABAAAIAABAAAAAAgAAEAAAIAAAAAEAAAgAAEAAAAACAAAQAACAAAAABAAAIAAAAAEAAAgAAEAAAAACAAAQAACAAAAABAAAIAAAQAAAAAIAABAAAIAAAAAEAAAgAAAAAQAACAAAQAAAAAIAABAAAIAAAAAEAAAgAAAAAQAACAAAQAAAgAAAAAQAACAAAAABAAAIAABAAAAAAgAAEAAAgAAAAA7xI8AAcwcDSVMcxj8AAAAASUVORK5CYII=;fontSize=27;rotation=-90;" vertex="1" parent="1">
                    <mxGeometry x="643.5" y="-99.5" width="309.5" height="309.5" as="geometry"/>
                </mxCell>
                <mxCell id="76" value="&lt;font style=&quot;font-size: 27px;&quot;&gt;SIM7080G&lt;br style=&quot;font-size: 27px;&quot;&gt;&lt;/font&gt;" style="text;html=1;strokeColor=none;fillColor=none;align=center;verticalAlign=middle;whiteSpace=wrap;rounded=0;fontSize=27;fontColor=#FF0000;" vertex="1" parent="1">
                    <mxGeometry x="722.5" y="355" width="60" height="30" as="geometry"/>
                </mxCell>
                <mxCell id="81" value="名称未設定レイヤ" parent="0"/>
            </root>
        </mxGraphModel>
    </diagram>
</mxfile>